<svg width="64" height="72" viewBox="0 0 64 72" fill="none" xmlns="http://www.w3.org/2000/svg">
<path d="M52.5881 18.384C52.6928 18.379 52.8007 18.374 52.9118 18.3687L52.7432 18.388C53.0234 18.3953 53.3021 18.4026 53.5812 18.4101C53.6823 18.4067 53.7918 18.403 53.9262 18.3986C53.872 18.4011 53.8299 18.4089 53.8038 18.4167C53.8948 18.4196 53.9835 18.4223 54.0724 18.4252C54.7398 18.35 56.4004 18.295 56.8795 18.2509C57.5134 18.2188 58.2892 18.2005 58.7757 18.2063C58.3248 18.2048 57.726 18.2199 57.9059 18.2614C58.8215 18.3047 59.2667 18.4294 60.847 18.3222L59.9201 18.3239C59.9201 18.3239 60.441 18.2835 60.9621 18.2433C61.4867 18.2034 61.9903 18.1608 62.0343 18.1666C62.2615 18.1891 62.2885 18.2027 62.2035 18.212C62.161 18.2166 62.0901 18.2202 62.001 18.2232C61.9582 18.2248 61.9109 18.2263 61.8599 18.228C61.8165 18.2302 61.7701 18.2326 61.7217 18.2351C61.3343 18.2541 60.8193 18.2721 60.6748 18.3011C61.0799 18.2813 61.4681 18.2796 61.8342 18.2862C62.0434 18.2947 62.2465 18.303 62.4424 18.311C62.6359 18.3308 62.8129 18.4074 62.9568 18.5233C63.1006 18.6416 63.1968 18.8018 63.2621 18.9615C63.2863 19.0453 63.3165 19.1249 63.3206 19.2086C63.3345 19.2899 63.3348 19.3713 63.3349 19.4506C63.3374 19.6084 63.3424 19.7555 63.3513 19.8937C63.3593 20.0227 63.3698 20.1294 63.386 20.2331C63.3098 20.348 63.1824 20.5409 63.1901 21.696C63.2771 20.8632 63.246 22.3885 63.3392 21.7053C63.3828 22.1045 63.3117 22.9937 63.3687 23.0602L63.3371 22.9521C63.2163 24.9245 63.4056 25.5702 63.4679 26.414C63.499 28.7756 63.4496 29.8602 63.4624 31.7864C63.4113 31.8621 63.2707 32.3865 63.2762 33.1592C63.3453 33.5184 63.3773 35.2613 63.466 35.4394C63.5029 34.0579 63.3917 34.3091 63.371 33.4821C63.464 32.7936 63.4629 33.4197 63.5184 32.4795C63.4823 33.2384 63.5668 35.9084 63.4796 36.7395L63.4674 36.4461C63.4145 37.7725 63.1954 38.0262 63.3279 40.2365L63.3823 41.291C63.3734 41.2403 63.3631 41.2345 63.3551 41.2074C63.3459 42.9336 63.2451 42.4625 63.3246 44.3683C63.3185 44.221 63.3087 44.3135 63.3028 44.1638C63.2531 45.2501 63.3529 46.3457 63.3738 47.167C63.2999 47.6683 63.3012 47.0482 63.2476 46.7379C63.2334 47.6936 63.2579 48.6869 63.2973 49.5899C63.3078 49.8196 63.3179 50.0438 63.3279 50.26C63.3321 50.381 63.3363 50.4997 63.3404 50.6159C63.3412 50.6745 63.3474 50.7339 63.3437 50.7907C63.3387 50.8476 63.3338 50.9037 63.329 50.9592C63.2465 51.4037 62.9204 51.7132 62.6167 51.794C62.6167 51.794 62.5959 51.7972 62.5596 51.8025C62.5237 51.809 62.4718 51.8166 62.4068 51.8127C62.2796 51.811 62.1099 51.809 61.9403 51.8068C61.6524 51.7956 61.3646 51.7842 61.3646 51.7842C61.5328 51.7759 61.7103 51.7645 61.8788 51.7513C62.0699 51.7348 62.2492 51.7171 62.3909 51.7C62.5326 51.6793 62.6353 51.637 62.6867 51.5972C62.739 51.5622 62.7438 51.5461 62.687 51.5539C62.6487 51.5688 62.6132 51.5824 62.5803 51.5953C62.5457 51.6012 62.514 51.6067 62.4842 51.6119C62.4249 51.6252 62.3728 51.6269 62.3254 51.6296C62.2301 51.6362 62.1551 51.6415 62.0717 51.6474C61.8954 51.6593 61.7112 51.6642 61.2692 51.6566C61.3443 51.6311 61.4745 51.6062 61.6376 51.5797C61.7979 51.5547 61.9903 51.5247 62.1938 51.4928C61.7576 51.4714 61.4907 51.4721 61.351 51.4826C61.2074 51.4931 61.1735 51.5137 61.1567 51.5318C61.1232 51.5685 61.1581 51.5961 60.5198 51.5172C59.9467 51.5162 59.6137 51.5912 59.5509 51.6532L58.5124 51.572C58.3971 51.6511 57.1151 51.6554 56.2749 51.6674C56.1723 51.7015 56.9513 51.7516 57.2698 51.721C57.2071 51.783 56.3131 51.8122 55.7384 51.811C55.5278 51.6454 51.9746 51.8351 52.6543 51.6398C50.0721 51.6937 46.4445 51.7104 44.7403 51.7796C44.1782 51.7338 43.0328 51.7316 43.7193 51.6537C41.6407 51.653 40.5687 51.823 38.5056 51.7776C38.3348 51.757 39.4382 51.7762 39.3649 51.7209C38.0174 51.7872 36.909 51.651 34.8213 51.6951C35.1685 51.692 35.2746 51.6579 35.3226 51.6408C35.3409 51.6545 35.1267 51.6688 34.8401 51.6829C34.5918 51.6959 34.2809 51.7122 34.0462 51.7243C33.7698 51.71 34.3885 51.7044 34.2293 51.6835C34.0421 51.68 33.8573 51.6768 33.6832 51.6734C33.6776 52.1326 33.6757 52.5718 33.6767 53.0327C33.6799 53.5196 33.6834 53.9965 33.6867 54.4669C33.6978 55.4079 33.7167 56.3232 33.7368 57.2403C33.777 59.0746 33.822 60.9166 33.8187 62.9887C33.8207 61.7417 33.7198 61.2706 33.6784 61.2574L33.6765 62.4788C33.727 62.9494 33.7268 63.8666 33.7645 64.6336C33.7456 64.7277 33.7251 65.1008 33.7013 64.7203C33.6503 65.9267 33.6963 66.8689 33.7485 67.8792C33.7746 68.3844 33.8024 68.9066 33.8203 69.4872C33.8292 69.7775 33.8357 70.0825 33.8382 70.4073C33.8399 70.4414 33.8357 70.5052 33.832 70.5594C33.8304 70.6156 33.8176 70.6704 33.8059 70.7259C33.782 70.8365 33.7399 70.9446 33.6834 71.0446C33.6279 71.1454 33.5548 71.2362 33.4707 71.3158C33.429 71.3568 33.3699 71.3967 33.3178 71.4334C33.2726 71.4609 33.2399 71.4753 33.2001 71.497C33.2001 71.497 33.2112 71.4899 33.2321 71.4766C33.2424 71.47 33.2554 71.4619 33.2706 71.4522C33.2857 71.4424 33.3007 71.4344 33.3318 71.4093C33.4528 71.321 33.569 71.1944 33.6649 70.9967C33.6898 70.9487 33.7098 70.8959 33.7253 70.8391C33.7448 70.7841 33.7549 70.7242 33.7642 70.6627C33.777 70.6021 33.7734 70.5375 33.7759 70.4733C33.7759 70.4116 33.7709 70.3681 33.7685 70.3131C33.7567 70.1034 33.7438 69.8795 33.7312 69.6559C33.6803 68.7607 33.6295 67.8653 33.6295 67.8653L33.5585 68.7513L33.4659 67.1769C33.4101 68.1173 33.5392 68.9349 33.4626 69.0481C33.441 68.8496 33.4479 68.3708 33.4067 68.3557C33.3768 69.2584 33.4338 69.3295 33.4487 70.008C33.2931 68.22 33.2956 64.7143 33.2573 62.8274C33.2451 62.5305 33.2948 63.0814 33.3107 63.134C33.3056 62.3642 33.354 61.9021 33.327 60.9329C33.2612 60.3311 33.2785 61.3921 33.2717 61.8699C33.2145 61.804 33.2179 61.5637 33.2093 61.0319C33.2856 60.9163 33.2363 58.1119 33.3295 57.4263C33.3054 54.5842 33.132 57.8809 33.1651 55.1064L33.2524 54.2775C33.2371 53.8663 33.2206 53.4244 33.2035 52.964C33.1909 52.3649 33.1779 51.7416 33.1646 51.1099C33.7242 51.1023 34.2907 51.0945 34.8513 51.0867C35.281 51.0828 35.706 51.0826 36.1168 51.0874L35.7632 51.0906C35.5278 51.1311 35.917 51.1561 36.0892 51.177C37.3574 51.2174 38.497 51.1025 39.2653 51.1972C40.7117 51.0964 43.1231 51.0219 44.7768 50.9698C45.2229 51.0947 42.6195 51.0758 41.9315 51.1541L43.4368 51.1534C42.5062 51.1551 42.1388 51.2028 41.581 51.2737C42.9003 51.297 43.3342 51.1875 44.5849 51.1561C44.4876 51.1899 44.6546 51.2107 45.2315 51.2118L45.3953 51.1289C45.4059 51.1356 45.4696 51.1418 45.6478 51.1471L47.8732 51.0964C47.401 51.0609 47.3782 50.9886 46.8032 50.9876C47.0085 51.0359 46.5209 51.0456 45.9456 51.0443C46.4498 50.9903 45.3846 50.9984 45.3968 50.9538C46.5503 50.9562 47.9673 50.9448 48.7235 50.9222L48.9692 50.9984C50.0684 51.018 51.2292 50.9752 51.9746 50.9974L51.7396 51.0382C53.0584 51.0614 54.3568 51.0124 55.5278 51.0869C56.704 50.9993 58.1849 50.9268 59.1463 50.8353C59.4035 50.7861 60.2663 50.8172 61.2307 50.843C61.459 50.8486 61.6935 50.8544 61.9265 50.8603C62.0515 50.8594 62.1838 50.8851 62.2985 50.8342C62.412 50.7836 62.491 50.6743 62.517 50.5611C62.5435 50.4462 62.5185 50.3342 62.5057 50.2454C62.5063 50.2227 62.537 50.3439 62.5385 50.5202C62.5315 50.6069 62.4988 50.7004 62.4465 50.7739C62.3942 50.8484 62.3223 50.8924 62.2656 50.9194C62.3896 50.8929 62.4868 50.8011 62.5357 50.6953C62.5887 50.5893 62.5865 50.4723 62.5763 50.3773C62.5734 50.3301 62.5706 50.2857 62.5681 50.2443C62.5676 50.2239 62.567 50.2044 62.5665 50.1855C62.5668 50.1621 62.5671 50.1397 62.5674 50.1183C62.5706 49.9897 62.5813 49.8858 62.6053 49.8107C62.6026 50.0257 62.6007 50.1852 62.5993 50.3018C62.5987 50.3831 62.6023 50.4345 62.6026 50.4654C62.6029 50.5265 62.6176 50.5048 62.6346 50.4588C62.661 50.3705 62.6951 50.1643 62.7087 50.479C62.7073 50.2889 62.7059 50.0961 62.7045 49.9082C62.701 49.6594 62.6976 49.4169 62.6943 49.1905C62.6856 48.7376 62.6726 48.3488 62.6556 48.1019C62.6563 49.7312 62.5234 47.5233 62.5651 49.1727C62.4846 47.8947 62.4526 46.1504 62.4837 44.6275C62.5249 44.6426 62.5442 44.4547 62.5612 43.8872L62.5013 43.4292C62.5121 42.7166 62.5721 44.8072 62.5934 43.3726C62.491 41.8964 62.6515 38.9273 62.4623 38.2809C62.537 37.1559 62.5379 40.422 62.6295 38.7262C62.6979 39.7127 62.6196 41.0735 62.714 41.3986C62.6871 40.4318 62.7938 41.0456 62.7948 40.422L62.7365 39.3436L62.7329 39.5822C62.6437 37.7727 62.6865 34.9058 62.6713 32.5951C62.5762 30.6378 62.4387 29.2904 62.449 26.9426C62.5048 27.6357 62.5028 24.9929 62.6051 26.4708C62.6543 25.3845 62.596 24.312 62.5548 24.2906C62.5406 25.2464 62.5415 24.6268 62.5212 25.4319C62.4712 24.8885 62.4734 23.6357 62.506 23.1212C62.5024 23.3598 62.512 23.2691 62.5278 23.3216C62.5613 22.1803 62.4781 22.7746 62.4571 21.9498C62.4921 21.819 62.4968 21.3637 62.4973 20.8471C62.4974 20.5888 62.4978 20.3151 62.4981 20.0588C62.4985 20.0043 62.499 19.9507 62.4995 19.8986C62.5004 19.8691 62.5012 19.8402 62.5021 19.8126C62.5042 19.7567 62.5078 19.7041 62.5118 19.6563C62.5118 19.6563 62.5023 19.6266 62.4884 19.5821C62.4679 19.54 62.4362 19.4872 62.3892 19.4497C62.3448 19.4102 62.2899 19.3863 62.2482 19.3771C62.2078 19.3638 62.1773 19.3695 62.1781 19.3671C62.2421 19.3672 62.252 19.3645 62.2295 19.3442C62.2173 19.3369 62.197 19.325 62.1701 19.3165C62.1426 19.3119 62.1093 19.3045 62.0729 19.3046C61.9837 19.3009 61.8824 19.2965 61.7981 19.2929C61.6423 19.2868 61.5179 19.2773 61.4782 19.261C60.7571 19.3112 60.1526 19.3995 59.0545 19.3803C59.5081 19.3431 58.0526 19.3267 58.0335 19.2544C56.1532 19.1851 54.9196 19.4516 53.1387 19.3481C53.194 19.3311 53.5535 19.2836 53.0329 19.2654C52.6229 19.2856 51.9051 19.2771 51.4663 19.2849L51.4803 19.2829C51.4717 19.2836 51.4663 19.2841 51.4574 19.2849C51.2426 19.2888 51.1076 19.2978 51.1023 19.3153C50.3515 19.3861 49.9643 19.4585 48.4867 19.5185C48.5951 19.6013 49.8426 19.5692 50.3829 19.5426L50.8498 19.4609C51.2959 19.5858 52.1824 19.4392 52.5221 19.4813C51.6357 19.6277 49.0828 19.5918 47.5513 19.6819C48.4851 19.7973 50.5163 19.8153 52.2887 19.8014L51.5081 19.7518L52.4354 19.7503L51.5378 19.6622C52.4162 19.6776 53.1756 19.6551 53.9695 19.66C53.0399 19.6617 52.6778 19.5475 53.2038 19.5655C54.2396 19.6468 54.2832 19.5123 55.0751 19.5174C54.6343 19.51 54.061 19.5084 54.4306 19.4611C55.9918 19.5605 56.4134 19.4957 57.8332 19.602C57.6573 19.464 59.6071 19.5882 59.8198 19.475L59.161 19.4635L60.5584 19.38C61.8479 19.4925 59.4167 19.4945 61.3788 19.5741C61.4921 19.5743 61.5979 19.5746 61.6974 19.575C61.7913 19.5746 61.9168 19.5738 61.909 19.5724C61.9534 19.5704 61.9934 19.5636 62.0313 19.5609C62.1076 19.5554 62.1713 19.5787 62.2201 19.6155C62.2699 19.653 62.3013 19.7075 62.3129 19.7839C62.3198 19.8222 62.3257 19.8664 62.3303 19.9185C62.3321 19.9901 62.334 20.0659 62.336 20.1469C62.3371 20.2319 62.3382 20.3224 62.3393 20.4189C62.3204 20.295 62.3023 20.1116 62.2857 19.9212C62.267 19.857 62.2588 19.7903 62.2367 19.7252C62.2095 19.6615 62.1532 19.6045 62.0831 19.5855C62.0482 19.5748 62.0113 19.5775 61.9759 19.5795L61.9228 19.5816L61.8199 19.5819C61.8199 19.5819 61.8309 19.5824 61.8498 19.5836C61.8593 19.5841 61.8709 19.5848 61.8842 19.5857C61.8903 19.5863 61.8918 19.5872 61.8963 19.5882C61.9113 19.5919 61.9315 19.5969 61.9515 19.6018C61.9903 19.6101 62.0232 19.6247 62.0232 19.6245C62.3623 19.6658 60.5065 19.6603 59.7659 19.654C61.0762 19.5602 59.1528 19.6252 58.5567 19.5517C58.4471 19.631 59.2884 19.6186 58.2951 19.6821C59.2257 19.6805 59.3618 19.6739 60.5454 19.7038C57.9867 19.6678 58.2445 19.9784 56.0112 19.912C57.0406 19.8762 55.6523 19.7978 55.5284 19.7594C55.044 19.7689 54.0613 19.7878 53.6571 19.8076L54.0229 19.922C52.7217 19.9714 52.2698 19.7292 50.7681 19.8472C50.5729 19.9156 52.089 19.8704 51.8188 19.8837C49.7642 19.9554 49.024 19.7713 47.1996 19.6853C47.0965 19.7196 47.1178 19.792 46.4796 19.8524C46.6801 19.7839 46.2079 19.7487 46.9257 19.6985C46.3157 19.6695 45.5932 19.7199 45.0549 19.7465C46.3248 19.7868 44.5354 19.8451 44.3015 19.8862C43.6437 19.8747 44.502 19.8178 44.9067 19.7978C44.3787 19.7795 43.751 19.6783 43.4512 19.781C43.4306 19.7087 44.9273 19.5909 45.9064 19.5723L45.2464 19.5607C45.701 19.5237 45.7862 19.5342 46.4412 19.5454C45.7999 19.4894 45.8632 19.4277 46.0126 19.3761C46.0967 19.3866 45.9657 19.3932 46.046 19.4036C46.5735 19.4219 46.9782 19.4022 46.8559 19.3639C47.3303 19.2668 46.1242 19.3033 45.7668 19.2547C45.4967 19.2613 45.2265 19.2678 44.9617 19.2741L42.221 19.5858C41.0501 19.6221 40.5237 19.5475 39.6442 19.5005L39.4028 19.5838C38.3838 19.5751 37.4224 19.5488 38.0754 19.4433C38.1121 19.4711 38.2467 19.4645 38.4679 19.4684C38.4971 19.4572 38.5482 19.449 38.6126 19.4426C38.6335 19.4365 38.6456 19.4331 38.6631 19.428C37.572 19.4563 36.8907 19.474 36.8279 19.4755C38.6806 19.3545 36.9204 19.3241 37.2304 19.1763L35.3592 19.2245C36.4934 19.2714 35.3799 19.2968 34.9773 19.3168C34.9676 19.3097 34.9482 19.3036 34.9204 19.2987C34.9064 19.2968 34.8904 19.2946 34.8724 19.2922C34.8634 19.2914 34.854 19.2904 34.844 19.2895C34.8293 19.2888 34.814 19.288 34.7981 19.2871C34.6646 19.2814 34.4885 19.2793 34.2849 19.2797C33.8731 19.2848 33.3521 19.2912 32.8554 19.2975C32.8492 18.834 32.8445 18.3846 32.8476 18.0469L32.8634 18.1209C32.8699 17.863 32.8745 17.5609 32.8773 17.2327C32.8782 17.0087 32.8793 16.7656 32.8803 16.5174C32.8792 16.0429 32.8721 15.5478 32.8617 15.1363C32.836 15.1738 32.7109 14.118 32.6356 13.6109C32.6068 15.0231 32.5762 14.1851 32.5287 14.2983C32.5329 14.1521 32.5339 13.8893 32.5242 13.8587C32.5024 13.6566 32.4951 14.1331 32.4698 14.173C32.487 14.9235 32.5045 15.6848 32.5195 16.3351C32.5254 16.4977 32.5312 16.6533 32.5365 16.8001C32.5443 16.9662 32.5517 17.1225 32.5585 17.2668C32.5749 17.7189 32.5957 18.0837 32.6224 18.3342C32.6467 17.9237 32.6351 17.5962 32.6215 17.2437C32.6157 17.1281 32.6099 17.0105 32.6039 16.8854C32.6003 16.7753 32.6004 16.6584 32.6085 16.5294C32.6217 16.6652 32.6318 16.8082 32.6399 16.9588C32.6418 16.9964 32.6435 17.0346 32.6456 17.0731C32.6471 17.123 32.6487 17.1738 32.6504 17.225C32.6528 17.3598 32.6553 17.4981 32.6578 17.6396C32.6659 18.2044 32.6673 18.821 32.6668 19.5027C33.1262 19.5035 33.6188 19.5044 34.144 19.5052L34.7818 19.575L35.9624 19.5373C35.7213 19.5556 35.6734 19.5831 35.534 19.6077C35.4645 19.6199 35.372 19.6315 35.2212 19.6408C35.0465 19.6501 34.9606 19.6573 34.3293 19.6608C34.3959 19.6773 34.5674 19.6846 34.8082 19.6865C34.8784 19.6865 34.9582 19.6863 35.0457 19.6861C35.1276 19.6844 35.2167 19.6826 35.3101 19.6807C35.6842 19.6715 36.1317 19.6569 36.5028 19.668L36.8824 19.5756C36.7362 19.6271 38.3251 19.6371 37.1962 19.7073L35.3596 19.7829L35.8701 19.846L33.8171 19.8636L34.5392 19.8158C33.4635 19.83 32.7907 19.8288 32.3756 19.8193C32.3906 18.9708 32.4281 18.8564 32.4521 18.4627C32.4642 18.2662 32.4728 18.0026 32.4735 17.5451C32.4734 17.4307 32.4729 17.3039 32.4726 17.1629C32.4714 17.0837 32.4698 16.9963 32.4682 16.8999C32.4626 16.7142 32.4557 16.4933 32.4478 16.2285C32.3446 15.3749 32.3337 14.4571 32.3587 12.7857C32.3817 13.995 32.4313 12.9099 32.491 13.365C32.534 12.1313 32.449 11.715 32.409 11.075C32.4634 10.7607 32.5079 10.5374 32.4999 11.6393C32.6138 11.7773 32.4803 10.1897 32.5976 10.0892C32.5959 8.26399 32.501 7.53255 32.4251 6.72407C32.3871 6.31982 32.3539 5.89641 32.3392 5.30718C32.3318 5.01257 32.3292 4.67655 32.3329 4.28096C32.3362 4.08309 32.3398 3.87044 32.3435 3.64032C32.3449 3.58279 32.3464 3.52424 32.3479 3.4645L32.3503 3.37405C32.3507 3.35182 32.3512 3.36607 32.3515 3.36047L32.3528 3.35776C32.3567 3.3491 32.3609 3.34011 32.3651 3.33094C32.3651 3.32925 32.4124 3.32874 32.4124 3.33043C32.3949 3.26679 32.4026 3.21452 32.3563 3.19161C32.3365 3.18143 32.3132 3.18109 32.2946 3.19043C32.2753 3.19925 32.264 3.21792 32.249 3.2315L32.2057 3.27596C32.0481 3.44702 31.889 3.61979 31.7259 3.79696C31.3737 4.18067 31.0063 4.58525 30.6043 5.03599L29.2331 6.3407C29.5076 6.01401 30.2174 5.10489 29.8154 5.45245C30.5273 4.86628 31.161 4.11245 31.8815 3.43039C31.9279 3.33145 31.6373 3.61198 31.504 3.72687C31.7078 3.50642 31.8703 3.35114 32.0473 3.176L32.0788 3.14477L32.0873 3.13867L32.1042 3.12577C32.1154 3.11694 32.1265 3.10761 32.1378 3.09692C32.1604 3.0757 32.1834 3.04974 32.211 3.01172C32.2056 2.99832 32.1668 3.01919 32.1374 3.03192C32.1087 3.0438 32.091 3.04584 32.1478 2.97269C32.1478 2.97269 32.2048 2.9396 32.2499 2.91923C32.2937 2.89242 32.3446 2.91109 32.3446 2.91109C32.4195 2.87884 32.4776 2.88343 32.5203 2.87952C32.5632 2.87834 32.5951 2.87358 32.6256 2.87732C32.6904 2.88309 32.7117 2.95301 32.6945 3.25152C32.661 3.20638 32.6201 3.15224 32.5856 3.11083C32.5551 3.06875 32.5195 3.03311 32.4665 3.00409C32.5043 3.07197 32.4682 3.04057 32.4253 3.03667C32.3778 3.03497 32.3384 3.06399 32.3699 3.1054C32.4162 3.07553 32.4564 3.08775 32.4742 3.1144C32.492 3.14189 32.4879 3.18007 32.4896 3.21894C32.4899 3.25848 32.489 3.29972 32.492 3.34724L32.4926 3.3564L32.4929 3.36098L32.4932 3.37761C32.4937 3.41478 32.4943 3.45262 32.4949 3.49098C32.4965 3.56785 32.4982 3.64745 32.4998 3.73027C32.5051 3.89556 32.5109 4.07324 32.5171 4.26637C32.5034 4.08512 32.484 4.03709 32.4779 3.65712L32.436 5.8981C32.494 5.34367 32.4996 7.7491 32.5857 7.5407C32.6035 6.34664 32.5995 5.92492 32.5971 5.46179C32.5971 5.23014 32.5973 4.98813 32.5976 4.63395C32.5995 4.45695 32.6017 4.25177 32.6043 4.0057C32.6062 3.88283 32.6081 3.74961 32.6103 3.60468C32.6115 3.53222 32.6128 3.4567 32.614 3.37829C32.6154 3.35402 32.6168 3.32874 32.6182 3.30243L32.6226 3.34113L32.6254 3.36132L32.6285 3.43107C32.6337 3.5329 32.639 3.63659 32.6445 3.74113C32.6567 3.94987 32.672 4.16081 32.6892 4.36225C32.7235 4.76514 32.7656 5.12984 32.8059 5.36268C32.8026 5.38644 32.7998 5.42564 32.7982 5.5093C32.8834 5.92526 32.9062 5.50133 33.0553 5.5093C33.0023 4.88818 32.9976 4.37006 32.9985 3.82394C32.9985 3.60621 32.9987 3.38287 32.9987 3.14104C32.9953 2.9715 32.9937 2.78924 32.9724 2.60629C32.9268 2.5788 32.912 2.72136 32.8956 2.89191C32.889 2.97846 32.8857 3.07469 32.8853 3.17125C32.8849 3.27935 32.8874 3.32059 32.8926 3.5497C32.8926 3.5497 32.8893 3.47231 32.8842 3.3564C32.8792 3.30091 32.8724 3.22708 32.8656 3.15326C32.8521 3.01699 32.8385 2.88071 32.8385 2.88071C32.8385 2.87867 32.876 2.96489 32.876 2.96692C32.876 2.96692 32.8793 2.87053 32.8787 2.72356C32.8807 2.57863 32.7681 2.37651 32.584 2.34087C32.4965 2.32 32.4024 2.3351 32.3299 2.38109C32.2568 2.4264 32.2063 2.49412 32.1562 2.54282C32.0581 2.6455 31.9928 2.71389 31.9928 2.71389C32.0901 2.60477 32.1528 2.51686 32.2082 2.43082C32.2618 2.34376 32.3124 2.26196 32.3924 2.19917C32.2895 2.23905 32.2193 2.32441 32.1382 2.39654C32.0539 2.47223 31.9684 2.54893 31.8801 2.62802C31.9185 2.64601 31.9365 2.67757 31.9303 2.72C31.9213 2.76548 31.8993 2.80977 31.8226 2.89208C30.4371 4.36853 29.6249 5.14341 29.0554 5.62521C29.0042 5.68376 28.9462 5.74978 28.8996 5.8029C29.186 5.61418 28.0264 6.97167 27.6589 7.49606C27.6217 7.40985 26.9167 8.22631 26.4912 8.6236C26.3476 8.92483 26.7209 8.72016 27.2571 8.25635C28.1238 7.18194 27.7154 7.62453 28.067 7.05415L29.4976 5.37439L29.2184 5.7939C29.9848 5.0124 30.6279 4.16081 30.6429 4.29539C30.2967 4.7721 29.6203 5.44566 29.2773 5.91915L29.7942 5.41308C28.9954 6.42895 29.284 5.82445 28.2818 7.0163C28.727 6.66094 28.1909 7.12424 27.7807 7.65576C28.1828 7.30837 29.6124 5.6298 29.3973 6.08139C28.8951 6.72186 27.4429 7.94867 26.8204 8.8415L26.8443 8.79076C25.7659 9.93407 25.4485 10.4031 25.0857 10.8756C24.5998 11.3328 24.0195 12.0625 23.5318 12.6003L23.5146 12.5555L22.8335 13.3219C23.1104 12.9056 23.6474 12.441 24.2354 11.7856L24.1071 11.8071C24.8582 11.1314 25.2182 10.5275 25.704 9.89861C24.976 10.7913 23.5024 12.2611 23.4264 12.5739L22.8923 13.0351L22.6826 13.3056C22.2843 13.649 22.5846 13.1828 23.2649 12.4172C23.399 12.3013 23.466 12.2434 23.4409 12.2954C23.7381 11.92 23.991 11.5536 24.7815 10.7222L24.3951 11.2042C25.3676 10.1564 26.2273 9.17718 26.5056 8.75902C25.0846 10.2533 23.7048 11.7416 22.3943 13.1704C22.1295 13.7241 21.7389 14.2979 21.6553 14.636C20.7954 15.6157 19.6149 16.9318 18.8082 17.7177L18.856 17.6169C18.471 18.0098 18.1332 18.3902 17.8592 18.7159C17.4349 19.1118 18.069 18.3573 17.7779 18.6382L16.5543 20.0501C16.5806 19.9096 17.6421 18.7561 18.1426 18.2044C18.0518 18.3125 17.8682 18.5304 17.937 18.471C18.5448 17.857 19.5495 16.5749 19.8804 16.3773C20.1532 16.0529 19.3549 17.0677 20.3264 16.0211C21.0023 15.3479 21.1464 15.0462 21.1917 14.9484C21.1729 14.9053 20.1348 16.0092 20.4562 15.584C19.9557 16.1355 19.7926 16.3945 19.1195 17.0645C19.6156 16.5179 20.2351 15.7163 20.5467 15.4765C21.4804 14.3443 21.2015 14.3493 20.7281 14.8471C20.882 14.7733 18.9785 16.8624 20.3301 15.5159C19.8034 16.2081 18.7404 17.3635 18.0135 18.2278L18.037 18.1783L17.1056 19.2199C17.2234 19.0587 17.496 18.7342 17.4765 18.6925L16.2454 20.1995C16.9298 19.342 15.7521 20.6562 15.3935 20.9952C15.2981 21.196 14.8193 21.7871 15.3356 21.2817C15.9196 20.7178 15.6324 20.9068 16.1307 20.3582L15.4909 21.2062L15.4229 21.2649L15.0532 21.7918C14.0817 22.8383 15.3418 21.1872 14.1585 22.5949L14.3982 22.505C12.9515 24.0512 11.0201 25.9573 10.0421 27.0981C10.2773 26.7458 10.3287 26.5336 9.90151 26.9051C10.3524 26.4449 11.2282 25.4874 11.8481 24.7982C11.9826 24.6821 11.1573 25.7503 10.459 26.4719C10.9179 26.2529 12.0953 24.526 12.3056 24.5805C14.087 22.7444 13.4748 23.0375 15.0249 21.5201C14.987 21.435 15.4153 21.0343 15.4414 20.8944C14.9103 21.2651 13.4748 23.0375 12.4854 24.04C12.5748 23.9337 12.7545 23.7195 12.7804 23.6676C12.0798 24.3916 11.8103 24.7123 11.3543 25.2544L11.4215 25.1965C10.644 26.1645 10.8618 25.71 10.3451 26.2156C10.1635 26.4316 9.46385 27.1551 9.61635 27.0821L8.67182 27.9879L8.77964 28.0119C8.28182 28.5608 8.12917 28.6334 7.71417 29.1702L7.7512 29.2562L9.01713 27.9252C8.40495 28.6317 8.89682 28.1769 8.21541 28.9436C8.92666 28.0328 7.63495 29.504 7.50464 29.5283L7.02714 30.118L7.14198 29.9595C6.71167 30.3619 6.68682 30.5009 6.21198 31.0002C6.79557 30.4367 7.19745 30.089 7.85839 29.2812C7.37979 29.8721 6.40198 31.0131 6.1551 31.2854C5.6426 31.895 5.22323 32.2541 4.71432 32.7926C5.6551 31.7202 4.20026 32.9677 6.17401 30.9148C6.14947 30.9657 5.99042 31.1329 5.92323 31.1911C6.2551 30.9922 7.07667 29.9283 7.46698 29.4424C7.31635 29.5132 7.7437 29.0258 6.97745 29.8066C7.24839 29.5717 6.44714 30.5898 5.70557 31.319L5.73838 31.0843L4.69901 32.19L4.79088 32.0807C4.34495 32.4369 3.70479 33.2851 2.96166 34.0169C2.80291 34.2129 2.47791 34.5755 2.14932 34.9421C1.98541 35.1259 1.82057 35.3107 1.67417 35.4752C1.60354 35.5561 1.53729 35.632 1.47776 35.7002C1.44432 35.7413 1.41557 35.7777 1.39307 35.8083C1.3051 35.9267 1.31339 35.9532 1.45808 35.8558C1.46698 35.8517 1.48089 35.8422 1.49573 35.8321C1.48417 35.841 1.47276 35.8499 1.46151 35.8585C1.37151 35.9293 1.27932 36.0119 1.25104 36.1272C1.21963 36.239 1.2401 36.3639 1.30198 36.4603C1.36604 36.5564 1.46182 36.6217 1.54104 36.6972L1.5762 36.7293L1.63776 36.7904C1.67886 36.8315 1.72026 36.873 1.76213 36.915C1.84479 37 1.92901 37.0867 2.01542 37.1753C2.01542 37.1753 1.8087 36.9304 1.60182 36.6853C1.56026 36.6302 1.51885 36.575 1.48776 36.5334C1.47229 36.5139 1.46089 36.4966 1.45401 36.4837C1.44651 36.4713 1.44229 36.4642 1.44229 36.4642C1.61901 36.5991 1.94823 36.934 2.08698 37.0646C2.25417 37.2231 2.40057 37.3486 2.86182 37.7362C2.91948 37.8531 3.0812 38.0735 2.8887 37.9218C4.25745 39.4188 6.19307 41.5775 7.07385 42.3714C8.03807 43.4273 8.08213 43.7095 9.48291 45.139C9.78197 45.4358 9.34557 44.8038 10.2187 45.8093C10.2724 45.8824 9.28479 44.9426 10.2937 46.0226C11.0774 46.7208 11.9303 47.8846 12.9193 48.8262C13.384 49.386 14.2437 50.2989 14.0107 50.167C13.2473 49.3104 12.1374 48.13 11.9434 47.9775C12.0842 48.0574 11.424 47.3426 12.0218 47.9356C10.8909 46.6157 11.2259 47.1462 10.2021 45.9719C10.1073 45.9174 10.6815 46.6264 10.9271 46.8499C10.8559 46.938 8.8151 44.6359 9.65948 45.7513C10.7774 46.9798 11.2703 47.17 12.1645 48.3155C11.7274 47.9417 11.1557 47.2353 10.5793 46.7832L11.3496 47.6863L11.9859 48.2578L11.9401 48.2325C13.2849 49.8446 13.3271 49.5685 14.6309 50.9017C13.9506 50.0481 14.9326 50.9424 14.4132 50.3082C15.2693 51.2168 15.8809 51.903 15.8101 51.9919C14.1648 50.3398 15.6396 51.9819 14.0999 50.4745C14.3129 50.7653 13.6401 50.2169 14.504 51.1737C15.5412 52.182 14.2732 50.7855 15.2787 51.8227C15.3298 51.893 15.3831 51.9659 15.3378 51.9406C15.8282 52.3873 15.8495 52.5275 16.4389 53.0726L16.2942 52.9487C16.9207 53.7297 17.0824 53.6912 17.6112 54.3748C17.436 54.0616 18.0464 54.7466 18.4407 55.0984C17.8753 54.4375 17.6385 54.0045 16.476 52.7515C16.2914 52.6482 16.3512 52.7669 15.854 52.274L16.6123 53.0855C16.4424 52.9171 16.3073 52.7953 16.1495 52.6434L15.4496 51.8329C16.3982 52.7938 16.0257 52.2853 16.4618 52.6578C17.2812 53.5902 17.1664 53.3964 17.6793 53.9851C17.5607 53.9989 19.1848 55.8638 20.1085 56.9587C19.9593 56.7948 19.7668 56.5832 19.6629 56.4689C18.9198 55.7519 20.0909 57.0527 20.0989 57.1006L20.6429 57.6204C20.5421 57.5208 20.3937 57.3928 20.6026 57.6397C21.307 58.3785 21.3318 58.2641 22.0353 59.0011C22.051 59.0967 21.4118 58.5217 21.8226 59.0091C21.9393 59.2043 22.3273 59.8079 23.2776 60.7705C23.3564 60.8262 23.6021 61.0761 23.8842 61.3694C23.8438 61.33 23.7943 61.2791 23.7745 61.2632L24.3449 61.9683C23.7635 61.4707 23.3231 60.7953 22.739 60.2953L22.636 60.3108C22.2293 59.8695 21.652 59.2974 21.3679 59.0549C21.9776 59.7387 22.1235 59.8638 22.8287 60.6032C22.8887 60.7486 22.3731 60.2485 22.2987 60.1765L22.4356 60.2524C21.6576 59.302 21.1437 58.9714 20.126 57.8424C19.9731 57.671 20.0721 57.7692 20.1178 57.7949C19.2282 56.9519 18.4889 55.98 17.6045 55.1821L17.8993 55.4351C17.3201 54.8671 16.1873 53.7563 15.0554 52.6466L15.024 52.6619C15.1298 52.8068 14.7265 52.367 14.5189 52.121L14.5203 52.1219C13.9539 51.5642 13.4095 51.0283 12.9642 50.5899C13.0859 50.7525 13.2478 50.9541 13.4437 51.1741C13.6393 51.3283 14.607 52.427 14.5321 52.2135C14.9526 52.75 15.7418 53.4928 16.0546 53.8826C15.482 53.1758 16.5381 54.2829 16.6787 54.3629C16.8459 54.6281 17.5881 55.3443 17.4565 55.3136C17.5639 55.4592 17.1903 54.9499 16.8993 54.7011C16.2104 54.0574 18.0299 56.0213 17.186 55.2039C18.2374 56.2673 19.5595 57.7373 20.6543 58.8229L20.0892 58.1633C20.5473 58.6772 21.6604 59.8612 21.7178 59.9776C21.3659 59.6085 20.9623 59.1688 20.5095 58.6994C20.4296 58.7395 21.5731 59.8541 21.5865 59.9466L22.9682 61.2375L22.4085 60.6227C22.7985 60.9694 23.9326 62.2941 24.7968 63.2504C24.2165 62.7934 23.4785 61.8232 22.5289 60.8611C21.8318 60.1699 22.8637 61.392 22.2134 60.7274C22.3585 60.9253 22.7723 61.3701 22.9954 61.5688L23.2299 61.8549C22.5946 61.3222 21.3489 59.9342 20.4465 59.0896C20.5279 59.1612 20.6004 59.2221 20.6321 59.2384C20.0135 58.5054 19.3556 57.793 18.7059 57.1291C19.0163 57.516 19.164 57.6426 19.3631 57.8405C19.3687 57.8857 18.7659 57.2476 18.5207 57.0246C19.086 57.6846 18.5874 57.1899 18.9465 57.6058C18.5473 57.2097 18.2428 56.8681 17.7849 56.3542C17.5709 56.0623 18.0224 56.53 18.009 56.4377C17.5079 55.9403 17.3746 55.609 16.6317 54.892C17.5498 55.922 16.3076 54.7099 15.962 54.3868L16.1159 54.5596C15.7779 54.2838 15.5249 54.0128 15.3589 53.7489C15.7582 54.1451 16.1159 54.5596 16.0501 54.3951C15.7959 54.1229 15.5424 53.8519 15.2439 53.5556L15.5346 53.8042L14.2717 52.4518C14.0353 52.2773 13.6504 51.9749 13.421 51.8468C13.1545 51.4829 12.7071 51.0588 12.4087 50.7632L12.5571 50.8903C12.0362 50.2544 10.7785 48.9472 10.6414 48.8708C10.276 48.4092 13.6473 51.6739 10.8231 48.6734C9.76089 47.5206 10.0551 48.0708 9.41213 47.4527C9.41213 47.4527 9.45714 47.478 9.40401 47.4052C8.94698 46.892 8.85994 46.8854 8.46073 46.4891C8.72323 46.8094 9.1262 47.2489 9.27167 47.3733C9.08713 47.2698 8.30776 46.3177 7.91651 45.9693C8.44729 46.3967 7.04448 44.9652 7.43838 45.3165C6.55838 44.2646 5.51589 43.2505 4.97979 42.7783C4.43901 42.0034 3.86869 41.5962 2.89073 40.4474C3.04448 40.6202 3.34135 40.9143 3.55088 41.162C4.18573 41.7328 2.52495 39.9853 3.46807 40.901C3.26854 40.7028 3.42541 40.918 3.62995 41.1213C3.97854 41.4867 4.32526 41.8108 4.26417 41.6905L3.48307 40.7369L3.78588 41.0371L2.59401 39.5972C2.54886 39.5721 2.65323 39.7151 2.70698 39.7883C2.17166 39.1831 1.59776 38.556 1.02276 37.9352C0.873855 37.773 0.755887 37.654 0.544012 37.4049C0.448856 37.2946 0.353696 37.1846 0.259009 37.075L0.14979 36.8932L0.070105 36.6938C-0.0188012 36.4199 -0.0233336 36.1156 0.0571351 35.8441C0.0755726 35.776 0.105731 35.7127 0.129168 35.6469C0.154324 35.5817 0.196045 35.5269 0.228388 35.4667C0.301513 35.3509 0.396979 35.2484 0.479167 35.1396C0.86651 34.7189 1.23729 34.3159 1.58167 33.9419C1.66745 33.5132 4.66432 30.4496 5.60307 29.224C5.37042 29.5733 5.29698 29.8226 5.50057 29.6713C5.27651 29.9288 4.86698 30.509 4.33151 31.0626C4.22338 31.1262 3.54963 31.7971 3.93682 31.315C2.50979 32.9031 4.2001 31.1761 3.83104 31.7017C5.41666 29.9468 6.2651 28.8289 7.23917 27.6921L7.28292 27.6841L8.0112 26.8179C7.37761 27.4838 7.32089 27.3554 8.1551 26.516L8.06151 26.6268C8.55667 26.1688 9.46698 25.0862 10.1885 24.3147L10.6232 23.7324C11.346 22.9599 11.471 23.0287 11.7606 22.8367C12.891 21.6233 13.4628 20.8345 14.2151 19.9176C14.6171 19.5702 16.3101 17.7523 15.4682 18.7753C16.4457 17.6349 16.021 17.6179 17.8815 15.8619L17.4699 16.3952C19.124 14.5807 21.4157 11.92 22.2234 11.1334C21.7524 11.9541 24.4446 9.03565 24.8796 8.86628C24.7656 8.9211 25.3793 8.23123 25.4534 8.1138C25.6065 7.98295 25.8503 7.75283 26.0632 7.4589C25.387 8.13246 26.374 6.80654 25.191 8.21376C25.7224 7.42869 26.4557 6.46985 27.8343 4.98253L27.872 5.06823L26.7673 6.22971C26.9201 6.15708 26.3573 6.76123 26.1478 7.03208C28.2024 4.8712 26.0195 7.46755 28.079 5.21401C28.2409 4.95606 28.1271 5.11355 28.6493 4.5138C28.3987 4.79025 28.3932 4.88342 28.8013 4.44185L29.1459 3.96667C29.9648 3.28801 28.0142 5.33315 28.6984 4.73832C27.9459 5.65508 26.5878 7.18329 26.9196 6.98423C28.2503 5.59772 27.9531 5.5592 29.3499 4.1155L29.5267 3.99229C29.9846 3.44804 30.0107 3.30837 30.2421 2.98966C30.284 2.98355 30.4192 2.86595 30.7324 2.53705C30.8248 2.41741 30.9132 2.30303 30.9985 2.19255C31.0723 2.09038 31.1948 1.9592 31.3056 1.83752C31.5365 1.58907 31.7548 1.35403 31.9706 1.12187L32.1384 0.944014C32.1665 0.916182 32.1946 0.880035 32.2231 0.858821L32.3089 0.800103C32.4285 0.730183 32.5634 0.673501 32.7095 0.650591C33.0007 0.603412 33.3331 0.669428 33.611 0.871889C33.2509 0.573883 32.8176 0.542487 32.5148 0.632092C32.4753 0.641935 32.4381 0.654154 32.4035 0.669937C32.369 0.68538 32.332 0.695733 32.3018 0.715419C32.2704 0.733068 32.2396 0.750548 32.2093 0.767519C32.179 0.796369 32.1492 0.824879 32.1198 0.852711C32.0024 0.964209 31.8929 1.06824 31.7899 1.16616C31.582 1.35929 31.3998 1.52866 31.2301 1.68631C31.1438 1.76472 31.0607 1.84024 30.9792 1.9144C30.9107 1.97991 30.8634 2.03099 30.8048 2.08937C30.357 2.54299 29.9003 3.0046 28.9018 4.14825C29.1992 3.77286 30.6256 2.18491 30.6338 2.00112L30.6731 2.08546L30.7926 1.94342L30.8524 1.87231C30.8635 1.85975 30.8696 1.85042 30.8851 1.83498L30.9324 1.78814C31.0603 1.66255 31.1887 1.53646 31.3179 1.40952C31.5829 1.15394 31.852 0.89429 32.1293 0.626662C32.2004 0.546051 32.2687 0.525177 32.3404 0.489878C32.4156 0.462046 32.4926 0.43625 32.5759 0.419959C32.7407 0.389072 32.9201 0.388054 33.099 0.426747C33.4593 0.495648 33.8078 0.754451 34.0109 1.10371C34.0082 1.10541 33.9831 1.05008 33.9204 0.982708C33.8907 0.947918 33.8571 0.906848 33.8137 0.868155C33.7929 0.848129 33.7715 0.827595 33.7498 0.806551L33.677 0.750379C33.5798 0.67452 33.4696 0.617498 33.3859 0.580332C33.3449 0.559118 33.3074 0.550633 33.2823 0.541809C33.2568 0.533832 33.2423 0.52925 33.2423 0.52925C33.4926 0.611219 33.7139 0.765991 33.8662 0.959627C33.9432 1.05432 34.0088 1.15835 34.0545 1.26306C34.104 1.36913 34.1407 1.46162 34.1406 1.60825C34.1731 2.14384 34.1962 2.64295 34.2187 3.11694L34.2271 3.29378C34.2279 3.32093 34.231 3.35725 34.2303 3.37643L34.2285 3.43786C34.2267 3.51966 34.2248 3.60078 34.2229 3.6819C34.2199 3.8438 34.2187 4.00434 34.2203 4.16522C34.2234 4.48699 34.2376 4.80994 34.272 5.1463C34.2793 4.67095 34.2768 4.28521 34.2643 3.99178C34.301 4.86968 34.2928 5.97108 34.2789 6.92517L34.4149 8.8992C34.374 8.88189 34.3717 10.1328 34.3063 9.52933C34.2437 10.9506 34.3665 11.6206 34.387 12.4418C34.2993 13.8972 34.3479 11.1811 34.234 11.0384C34.1959 13.0436 34.2304 15.1689 34.3045 16.3003C34.321 15.8915 34.3353 15.6927 34.3553 15.7135C34.3293 15.774 34.336 16.582 34.3353 17.0326C34.3353 17.0326 34.3385 17.0519 34.3437 17.0809C34.3487 17.1101 34.3554 17.1555 34.3621 17.1599C34.3756 17.1868 34.3888 17.2137 34.3888 17.2137C34.3526 17.4865 34.321 17.5071 34.2807 17.2332C34.2754 17.399 34.3003 17.5665 34.3149 17.716C34.4756 17.7011 34.606 17.6958 34.7373 17.7364C34.5935 17.7567 34.4271 17.7661 34.2653 17.7701C34.2609 17.5644 34.2635 17.3523 34.2638 17.1716C34.2629 16.9832 34.2621 16.8089 34.2613 16.6552C34.259 16.4912 34.2549 16.3492 34.2479 16.2361C34.2534 16.5038 34.256 16.7437 34.2564 16.9623C34.2559 17.0467 34.2556 17.1271 34.2551 17.2038C34.2535 17.2498 34.2521 17.2939 34.2509 17.3362C34.2435 17.5071 34.2293 17.6612 34.2137 17.8263C34.3807 17.8501 34.5623 17.8774 34.8304 17.8933C34.9513 17.8964 35.0796 17.8996 35.2173 17.903C35.3585 17.9042 35.5095 17.9056 35.672 17.9069C35.997 17.9073 36.3684 17.9032 36.8026 17.8925C36.8393 17.9203 36.3335 17.9745 36.909 17.9751C38.2421 17.9538 37.2573 17.8553 37.6737 17.7907C36.6474 17.8268 36.1699 17.7913 35.5743 17.7179L35.8481 17.6707C35.8896 17.6953 36.534 17.6965 36.7238 17.7202L36.8898 17.624C36.8132 17.7304 37.8442 17.8115 38.6546 17.7718C37.8357 17.6946 38.057 17.6987 37.8342 17.5773C38.9737 17.4625 39.1199 17.6902 40.3971 17.5685C40.3015 17.6028 39.1863 17.6283 40.1498 17.6544C40.9474 17.659 40.841 17.5762 41.376 17.5497C40.7735 17.6383 40.9282 17.7043 40.2753 17.8095C38.8582 17.8207 39.7037 17.8083 38.3185 17.847L39.491 17.922C38.2903 17.9364 38.6179 18.0235 38.519 18.0574C40.5695 18.1477 40.0643 17.9227 41.3835 17.9459C42.0195 17.8852 40.1478 17.9331 41.1426 17.8694C42.3763 17.8823 41.4238 17.8115 42.8085 17.773L42.5767 17.8137C42.9999 17.8665 43.4184 17.8015 43.9082 17.7925C44.4468 17.7657 43.2982 17.4843 45.5131 17.4782C45.4046 17.503 45.3648 17.5186 45.3648 17.529L43.2043 18.2742C45.4482 18.2723 48.0342 18.293 50.6328 18.3429C51.2448 18.4885 48.7779 18.463 48.937 18.5287L47.7518 18.4989C47.8182 18.4371 50.2351 18.4798 49.1646 18.3707C47.0717 18.415 46.122 18.3441 44.1365 18.4714C44.7532 18.6173 46.7517 18.4454 48.0432 18.5582C47.5009 18.5487 47.0431 18.5649 46.5984 18.5857C47.8113 18.6049 49.1093 18.6253 50.4892 18.647L50.7992 18.6117C49.8692 18.5952 49.2257 18.5829 49.1428 18.5776C50.3759 18.5903 51.4159 18.5095 51.4979 18.4028L51.2788 18.3991L51.7245 18.3658C52.011 18.3704 52.3004 18.3772 52.5881 18.384ZM33.6724 62.442C33.6629 62.3607 33.652 62.2965 33.6382 62.249C33.6526 62.298 33.662 62.2432 33.6724 62.442ZM33.3659 12.9712C33.3481 14.8308 33.3301 16.7061 33.3129 18.4929C33.3376 18.0308 33.3613 17.586 33.3834 17.1731C33.4071 16.8259 33.429 16.5056 33.4482 16.2248C33.4893 15.6658 33.5259 15.2646 33.556 15.1219C33.5863 14.9791 33.6104 15.0947 33.6268 15.5692C33.6349 15.8065 33.6412 16.1333 33.6453 16.5627C33.6467 16.9722 33.6485 17.4793 33.6507 18.096L33.6648 18.3952C33.6767 18.0722 33.6834 17.6537 33.6853 17.1916C33.6871 16.6896 33.6845 16.1163 33.6774 15.5707C33.6431 15.1273 33.5624 14.1898 33.4879 13.3672C33.449 12.9562 33.4129 12.5735 33.3867 12.2955C33.3587 12.0177 33.3387 11.8446 33.3331 11.8524C33.2787 12.1667 33.3381 12.6246 33.3215 13.1958L33.3659 12.9712ZM33.6913 11.7011C33.7131 10.6886 33.6699 10.9191 33.6312 10.7619C33.636 11.1183 33.641 11.474 33.6459 11.8258C33.6557 11.6912 33.6695 11.6249 33.6913 11.7011ZM33.5924 10.8227C33.5915 10.9364 33.5896 11.0334 33.5845 11.0844L33.5924 10.8227ZM44.5901 18.5494C44.5485 18.5504 44.5337 18.551 44.4943 18.552C44.7145 18.5552 44.9351 18.5584 45.1654 18.5618C45.076 18.5552 44.9059 18.5499 44.5901 18.5494ZM42.6981 18.4462L42.4768 18.5233C42.682 18.5262 42.8915 18.5292 43.1059 18.5321C43.0351 18.4973 42.9612 18.4669 42.6981 18.4462ZM36.617 18.1929C36.2335 18.2854 34.9495 18.2896 34.8707 18.3963C34.7888 18.4238 35.059 18.4342 35.3621 18.443C35.7004 18.4459 36.0615 18.4488 36.4443 18.452C36.4576 18.4364 36.5337 18.422 36.6607 18.4081C36.2826 18.3947 36.0301 18.3682 36.1832 18.3025C37.1553 18.4456 37.0542 18.2007 38.1049 18.2373C38.4392 18.162 36.9354 18.1627 36.617 18.1929ZM11.2648 48.3697C11.2798 48.399 11.3367 48.4947 11.4192 48.6266L10.8615 48.0954C9.94291 47.0651 9.2951 46.1441 8.3687 45.3248C7.99698 44.8742 7.83198 44.5959 7.66854 44.3366C7.85838 44.5487 8.03479 44.7483 8.17916 44.9177C10.6609 47.3399 9.27479 46.3956 11.2648 48.3697ZM0.728701 36.6049C0.758076 36.6655 0.790262 36.6987 0.812918 36.7181C0.834481 36.7381 0.845416 36.7456 0.845416 36.7456C0.685103 36.5716 0.602761 36.3145 0.640261 36.079C0.660261 35.9631 0.695729 35.8478 0.760729 35.7564C0.819011 35.6588 0.897449 35.5812 0.964793 35.494C1.15776 35.2635 1.34635 35.0383 1.53042 34.8186C1.71839 34.5973 1.90151 34.3816 2.07995 34.1716C2.44026 33.7553 2.78057 33.3621 3.09963 32.9935C3.74213 32.2611 4.30698 31.6362 4.77651 31.1307C4.50776 31.3126 3.45979 32.3658 2.95995 32.8634L3.32682 32.3396L3.63713 32.101L4.32183 31.2437C4.07698 31.4254 3.48979 32.0807 3.06214 32.4805C3.0387 32.5301 1.83198 33.9867 1.51135 34.4119L2.56901 33.3497C2.44979 33.465 2.15495 33.7816 1.81292 34.1559C1.46464 34.5421 1.06557 34.9847 0.748698 35.336C0.593542 35.5218 0.453383 35.6752 0.406977 35.8371C0.41729 35.845 0.4437 35.7779 0.51245 35.6905C0.577606 35.6002 0.687289 35.4935 0.800883 35.3742C0.875727 35.2971 0.95479 35.2155 1.0326 35.1352C1.10323 35.0607 1.17182 34.9861 1.23229 34.9166C1.35354 34.7778 1.44401 34.6597 1.45932 34.6041C1.61338 34.5297 0.546197 35.6898 1.26729 35.0064C1.15651 35.1413 1.03182 35.2876 0.895258 35.4434C0.800415 35.5531 0.69651 35.6608 0.615416 35.7925C0.539791 35.929 0.500729 36.0886 0.494948 36.2517C0.499792 36.415 0.541196 36.576 0.617915 36.7162C0.70354 36.8498 0.812136 36.9611 0.913229 37.0763C1.31901 37.5345 1.67698 37.9488 1.91963 38.2324L1.94729 38.4189C2.56479 39.1507 2.47026 38.7984 3.19557 39.6768C2.23854 38.6677 3.27604 39.9356 2.52057 39.1267C2.73276 39.4164 2.44932 39.2148 3.20635 40.0253C3.92729 40.6013 3.93885 40.9508 4.61448 41.5016C4.97995 41.9632 4.13182 41.1021 4.89667 41.9605C5.83854 42.8749 5.82307 42.7799 5.94776 42.7644C5.13338 41.8375 4.92057 41.8448 4.25542 41.0855L5.73088 42.4299C5.4976 42.1401 5.31432 41.9373 5.15432 41.7738C5.43385 42.0623 5.68307 42.2948 5.90557 42.4837C6.0312 42.5927 6.14714 42.6928 6.25401 42.7856C5.48573 41.9496 4.80464 41.2062 4.71354 41.0429L4.85323 41.1216C4.61198 40.7924 4.14401 40.3368 3.91479 40.1414C3.2226 39.3976 2.48807 38.7018 2.38135 38.4909L2.67338 38.7413C2.24526 38.2867 2.00714 38.0342 1.74151 37.7525C1.60948 37.6106 1.47073 37.4616 1.29776 37.2761C1.2162 37.1877 1.12636 37.0909 1.02573 36.9822C0.932451 36.8754 0.808545 36.7705 0.728701 36.6049ZM27.9484 6.44133C27.3121 6.86441 26.6374 7.36013 24.2656 9.98346L24.4454 9.76963C23.1617 10.9956 22.196 12.4354 20.6424 13.9359C21.3081 13.112 21.2739 13.1582 21.9539 12.1886L21.2246 13.0565C21.3692 12.7536 20.6418 13.6191 20.0779 14.2246L20.4929 13.6003C20.8524 13.2598 21.7331 12.3213 21.6892 12.3293C21.507 12.5464 22.9417 11.1879 23.6478 10.3704C23.5185 10.3933 22.0003 12.0899 22.5996 11.2469C22.0306 11.9454 21.9014 11.9685 21.287 12.6774C21.8573 11.9772 21.3635 12.4339 21.7764 11.8996L20.756 13.048C20.7109 13.0579 22.229 11.3611 21.3112 12.2136C20.9234 12.6964 19.7764 13.865 19.8146 13.9499L19.7712 13.9582C18.9799 14.7902 19.5112 14.4198 18.5218 15.4222C18.5398 15.4664 18.7424 15.2902 19.0789 14.9116C19.3554 14.583 19.3596 14.4912 19.9479 13.8348C20.2609 13.594 19.2229 14.6098 19.714 14.244C19.9582 14.0622 21.2551 12.4978 20.9057 13.0658L20.1159 13.8964C20.1543 13.9814 19.5882 14.5893 19.6509 14.6231C19.1971 15.1626 18.6829 15.5785 18.2482 16.161C18.0843 16.4208 18.5064 16.1148 17.6728 16.9538C16.9589 17.5417 15.1265 19.5685 14.4464 20.3341L13.8773 21.0329C13.9648 21.0158 15.0306 19.7698 14.6879 20.2429L13.7567 21.2849L13.8071 21.1814C13.489 21.5162 13.1926 21.8903 12.9196 22.2146C13.172 21.8492 13.8703 21.1274 13.6742 21.2086C13.2184 21.6775 13.1282 21.7265 12.7315 22.1827C12.8164 22.0812 12.8871 21.9914 12.8673 21.9945C11.9428 22.9416 12.0679 23.0105 11.8623 23.2766C11.0384 24.3436 12.846 22.3677 12.7931 22.561L10.1898 25.4614C10.3951 25.1953 10.6024 24.9277 10.4924 24.993C9.81776 25.6649 10.4306 24.9577 9.52557 25.9473C9.67339 25.9673 8.43416 27.2454 7.84057 27.9943C7.50682 28.2828 7.43839 28.3424 8.09276 27.6296C7.9637 27.6527 7.10448 28.6307 6.78683 28.9654C6.61901 29.1768 6.31776 29.521 6.13385 29.7467C6.42323 29.4908 6.34495 29.6493 5.79979 30.2913L5.77792 30.3395C6.72401 29.344 8.23042 27.8356 8.75917 27.1414L8.62088 27.3498C9.74541 26.2295 10.8698 24.6966 11.4687 24.2672C11.4632 24.3609 11.6946 24.042 11.734 24.1258L12.4823 23.2143L12.3435 23.4224L13.6806 21.9415L13.6559 21.9921C14.2432 21.2361 14.7032 20.6438 15.071 20.1705C15.0471 20.1413 14.9974 20.1781 15.1928 19.9254C15.3948 19.6785 15.5557 19.4996 15.7042 19.3455C15.7051 19.3442 15.7051 19.3442 15.7049 19.344L15.7053 19.3443C16.044 18.9925 16.301 18.7924 16.724 18.3655L15.4749 19.7358C15.4157 19.8938 15.5674 19.8265 16.2128 19.1913C15.9628 19.4662 15.8912 19.6171 16.2074 19.2843C16.2304 19.2349 17.0026 18.3609 16.6678 18.6497C17.8446 17.3372 19.8887 15.3632 21.6176 13.3072C20.3659 14.7738 22.7181 12.2375 21.2915 13.8255C22.3687 12.8055 22.0909 12.8094 23.1293 11.705C23.2418 11.6367 22.5667 12.3091 22.3795 12.6187C24.1156 10.793 25.1506 9.36641 26.8245 7.59382L26.949 7.57549C27.2549 7.22793 27.5948 6.84235 27.9484 6.44133ZM31.1509 2.81707C31.4454 2.48394 31.7442 2.14588 32.0478 1.80239C32.0182 1.83345 31.9907 1.86213 31.9598 1.89454C31.9598 1.89454 32.0143 1.82955 32.0959 1.73196C32.1796 1.63744 32.281 1.48725 32.4296 1.40239C32.5746 1.31296 32.7443 1.28513 32.8668 1.29633C32.929 1.29955 32.9787 1.31313 33.0134 1.32348C33.0489 1.33146 33.0673 1.34096 33.0673 1.34096C32.8871 1.23829 32.6945 1.22895 32.556 1.25373C32.4164 1.27783 32.3235 1.33977 32.2879 1.35335C32.2524 1.37117 32.2585 1.33655 32.3434 1.26035C32.4248 1.18822 32.6096 1.0623 32.9195 1.09556C32.8643 1.10201 32.9218 1.13273 32.9392 1.15343C32.9481 1.16379 32.947 1.17176 32.9184 1.17363C32.8899 1.17363 32.8332 1.17091 32.7299 1.17957C32.9217 1.17583 33.1863 1.26612 33.3537 1.49777C33.4373 1.61028 33.494 1.74792 33.5192 1.88691C33.5456 2.02658 33.5334 2.1654 33.5346 2.2903C33.5317 2.78737 33.5517 3.12475 33.604 2.86561C33.5762 2.45644 33.5734 2.23684 33.5787 2.09599C33.5842 1.95632 33.5887 1.90473 33.6028 1.86162C33.6114 1.81936 33.6243 1.78678 33.6076 1.69005C33.5928 1.64406 33.5771 1.57804 33.526 1.49947C33.4784 1.42021 33.4009 1.32161 33.2662 1.2388C33.4134 1.31992 33.5329 1.4533 33.6059 1.60944C33.6832 1.76607 33.6968 1.93782 33.6987 2.12636C33.7115 2.49582 33.7193 2.86119 33.7445 3.22131C33.7045 2.84711 33.6748 2.9116 33.6473 3.17872C33.6206 3.44872 33.5898 3.89522 33.5759 4.40587C33.5945 4.8466 33.5767 6.0393 33.6071 6.77142C33.6774 6.51041 33.7178 7.14799 33.7354 5.95478C33.7538 6.39263 33.7685 7.0701 33.7323 7.82886C33.7203 7.52797 33.7115 7.00171 33.686 7.03819C33.6213 7.52797 33.6242 8.10158 33.5965 8.41791C33.6003 8.67027 33.604 8.925 33.6078 9.17277C33.614 9.09878 33.6218 9.0348 33.632 8.98915L33.694 9.82767C33.6609 8.71066 33.7265 9.31142 33.7678 9.32568C33.6854 9.29564 33.7571 10.0447 33.7598 10.4271L33.8468 9.59653C33.8904 9.99788 33.784 11.0139 33.8701 10.8042C33.9046 9.0421 33.8898 8.36463 33.8638 6.77108L33.7962 7.418C33.7484 5.62012 33.9121 6.30913 33.9089 4.29183C33.8934 4.08224 33.8854 3.78779 33.8803 3.46332C33.8792 3.42089 33.8799 3.3861 33.8773 3.33603C33.8748 3.28631 33.8723 3.23625 33.8698 3.18584C33.8649 3.08521 33.8601 2.98338 33.8553 2.88139C33.8456 2.67825 33.836 2.47443 33.8268 2.27808C33.822 2.1805 33.8173 2.08478 33.8128 1.99196C33.8054 1.90184 33.8104 1.80392 33.7882 1.73451C33.7546 1.58636 33.6945 1.45381 33.6207 1.3598C33.479 1.16378 33.3267 1.10744 33.3082 1.12899C33.3639 1.16243 33.3365 1.11135 33.2326 1.04278C33.1317 0.972016 32.9429 0.891744 32.7206 0.903115C32.6646 0.901078 32.6099 0.91754 32.5521 0.925346C32.4981 0.945032 32.4387 0.957421 32.3873 0.98695C32.3323 1.01037 32.2832 1.04397 32.2348 1.0791C32.186 1.11542 32.139 1.17091 32.0915 1.21589C31.9028 1.40579 31.7237 1.59297 31.5929 1.74435C31.5232 1.83396 31.4359 1.94019 31.3385 2.0556C31.2917 2.11211 31.2345 2.17609 31.1898 2.23243C31.1448 2.28843 31.0982 2.3463 31.0507 2.40553C30.8596 2.64091 30.6493 2.89106 30.4673 3.10761C30.1032 3.54053 29.8529 3.8382 30.099 3.61045C30.5087 3.16853 31.0045 2.53145 31.3935 2.22632L30.6165 3.10422L31.1774 2.58949C30.8953 2.86289 30.9639 2.88105 31.1509 2.81707ZM39.8559 19.4272C39.8681 19.4277 39.884 19.4283 39.8988 19.4288C39.8824 19.4287 39.8663 19.4287 39.851 19.4285L39.8559 19.4272Z" fill="white"/>
</svg>
