<svg width="65" height="71" viewBox="0 0 65 71" fill="none" xmlns="http://www.w3.org/2000/svg">
<path d="M35.0557 4.09981C34.7048 3.73374 34.4382 3.37155 34.5835 3.49515C33.8395 2.78108 33.8716 2.7137 33.7002 2.70256C33.2098 2.25797 32.7837 1.67915 33.3293 2.1982L31.9801 0.846703L32.7448 1.70025C32.6054 1.62207 32.3001 1.28116 31.9888 0.936869L31.9304 0.872364L31.9012 0.840287L31.8867 0.824246L31.8831 0.820191C31.9365 0.873717 31.8976 0.834882 31.9093 0.846533L31.9088 0.846193L31.9079 0.845183L31.9059 0.843322L31.8981 0.835897L31.8359 0.777132L31.8212 0.763797L31.8188 0.765147C31.8174 0.765822 31.8163 0.766157 31.8156 0.766157C31.8207 0.765988 31.792 0.756194 31.7771 0.747245C31.7579 0.744037 31.7407 0.735427 31.7226 0.735764C31.6506 0.729517 31.5973 0.765143 31.582 0.800264C31.5828 0.803303 31.6182 0.781862 31.677 0.780343C31.7062 0.77933 31.7413 0.78389 31.7745 0.801619C31.8037 0.81327 31.7795 0.804824 31.797 0.806175L31.8673 0.871014L31.8762 0.87912L31.8806 0.883175C31.8871 0.889761 31.8256 0.827957 31.8518 0.854298L31.8523 0.854973L31.8534 0.855988L31.8554 0.858354L31.8718 0.875915L31.9049 0.911372C32.2582 1.28977 32.6117 1.668 32.6117 1.668L32.5192 1.61599C32.8635 1.93631 33.4759 2.61965 33.6834 2.86432C33.6382 2.83933 33.642 2.88205 33.392 2.61611C35.0855 4.45744 33.9666 2.98404 35.3987 4.48328C35.3087 4.38956 35.2002 4.27019 35.0557 4.09981Z" fill="white"/>
<path d="M36.3345 5.83643L37.011 6.38603L37.9835 7.48369C38.0238 7.46461 38.7715 8.22172 38.3066 7.66419C38.2062 7.56558 38.0081 7.37023 37.8576 7.20189C38.0312 7.25424 39.211 8.59673 38.9823 8.21243C38.1793 7.3807 38.0726 7.23549 37.5377 6.76745C36.8227 5.98232 36.3121 5.39946 35.9985 5.01111C35.7749 4.79009 35.7065 4.79921 35.427 4.51386C35.4881 4.57802 35.544 4.63695 35.614 4.71074L35.5492 4.84429C35.7957 5.06785 36.0007 5.30963 36.2542 5.57945L34.9804 4.44092C35.2674 4.94172 36.4626 6.12128 36.8829 6.65449C36.3957 5.95631 37.3735 7.0994 36.3345 5.83643Z" fill="white"/>
<path d="M35.4193 4.51392C35.4118 4.50667 35.3993 4.49475 35.3906 4.48645C35.3993 4.49475 35.4118 4.50667 35.4193 4.51392Z" fill="white"/>
<path d="M10.2987 53.1052C9.94885 53.1078 9.84572 53.1419 9.7951 53.159L13.7348 53.1563C13.6113 53.1184 12.4767 53.0716 13.2349 53.0489C12.8967 53.007 11.8668 53.0428 11.7174 53.0941L12.0029 53.0362C11.0953 53.1103 10.4753 52.9649 11.0671 52.9211L10.9906 52.9218L8.4765 53.2067C9.39963 53.2234 9.18744 53.1086 10.2987 53.1052Z" fill="white"/>
<path d="M30.6445 6.27234C30.6567 6.82381 30.6694 6.89148 30.6823 6.82887C30.6727 6.63126 30.6613 6.44362 30.6445 6.27234Z" fill="white"/>
<path d="M7.88705 53.2742L7.09955 53.3624C7.41486 53.3386 7.6919 53.3068 7.88705 53.2742Z" fill="white"/>
<path d="M13.3429 51.9196C13.3444 51.9149 13.3529 51.9107 13.3322 51.9045L12.9786 51.9497C12.9839 51.9497 12.9855 51.9497 12.9876 51.9497C13.1178 51.9387 13.2349 51.9288 13.3429 51.9196Z" fill="white"/>
<path d="M0.42976 40.1571C0.429736 40.0657 0.429717 39.9869 0.429688 39.8776C0.429713 39.9795 0.429736 40.0714 0.42976 40.1571Z" fill="white"/>
<path d="M24.0232 51.4102L22.2717 51.4959C22.5051 51.4553 21.6601 51.4675 22.0292 51.4201C21.8957 51.4266 21.2698 51.4426 21.4406 51.4636L21.7979 51.4609C20.8743 51.5791 21.4337 51.6246 19.9023 51.7148C20.8531 51.785 21.2699 51.7207 21.7735 51.6669C21.9443 51.6608 22.0873 51.6557 22.232 51.6505L23.6884 51.4851L24.0232 51.4102Z" fill="white"/>
<path d="M19.0426 20.2661L19.0235 20.2747C19.041 20.2715 19.0441 20.2689 19.0426 20.2661Z" fill="white"/>
<path d="M18.9485 20.3125L19.025 20.2756C18.931 20.294 18.5704 20.3117 18.9485 20.3125Z" fill="white"/>
<path d="M8.17994 53.1985C8.15604 53.22 8.05494 53.2464 7.89056 53.2736L8.47823 53.2079C8.39479 53.2053 8.28463 53.2018 8.17994 53.1985Z" fill="white"/>
<path d="M9.52142 52.9388L10.997 52.9222L11.541 52.8619C10.9763 52.8848 10.316 52.9004 9.52142 52.9388Z" fill="white"/>
<path d="M0.371968 42.6759C0.355249 39.3728 0.500561 43.4872 0.531498 41.9696C0.516342 41.0524 0.455405 40.7289 0.436186 40.1571C0.488374 42.777 0.235094 39.802 0.267437 42.4442C0.156969 42.0684 0.146969 40.5387 0.176969 39.6423C0.283375 38.6275 0.254937 40.529 0.359312 40.7588C0.341968 39.6985 0.322593 39.8853 0.263218 39.4353C0.287906 37.7706 0.132438 35.9911 0.279937 34.9969C0.2565 33.7919 0.205562 33.8711 0.149469 33.1782C0.0355635 33.0404 0.0896261 34.9704 -6.08694e-05 35.417C0.00962657 35.3244 0.028845 35.1439 0.0447824 35.1963L0.0208763 36.2381C0.0605636 35.2491 0.134782 36.3754 0.143688 36.904C0.146032 37.2884 0.151032 38.0527 0.119626 37.9475L0.0950944 37.3653C0.0591571 38.1147 0.178219 39.0186 0.116501 39.81C0.0908758 39.8513 0.0788447 39.552 0.0630636 39.5066C0.140876 40.3932 0.136344 41.2483 0.191344 42.5607L0.0783759 41.7999C0.203375 42.8498 0.167907 45.2271 0.101813 46.8746C0.121032 46.6917 0.134313 46.3626 0.156188 46.5602C0.183219 47.5278 0.105719 48.2588 0.0461884 47.8107C0.0930631 48.2833 0.0732194 49.1838 0.0571257 50.127C0.0536882 50.3629 0.0502511 50.6015 0.0468136 50.8365C0.0458761 50.9542 0.0449383 51.0709 0.044157 51.186L0.0438447 51.2721L0.0440009 51.3169L0.0483758 51.3986C0.0544695 51.5075 0.0604073 51.6154 0.0661885 51.7221C0.0788447 51.9352 0.0913445 52.1437 0.103376 52.3465C0.130407 52.4375 0.156969 52.5272 0.183219 52.6155C0.214313 52.7016 0.25775 52.781 0.293374 52.8614C0.456967 53.1734 0.67431 53.4187 0.903996 53.5712C0.903996 53.5712 0.937589 53.592 1.0004 53.6307C1.03212 53.6494 1.06978 53.6752 1.11634 53.7002C1.16462 53.7213 1.22009 53.7458 1.28227 53.773C1.34274 53.8046 1.41509 53.8223 1.49337 53.8412C1.53227 53.8512 1.57274 53.8615 1.61477 53.8721C1.65712 53.8816 1.70758 53.8748 1.75571 53.877C1.94915 53.8768 2.16743 53.8767 2.40555 53.8765C2.43477 53.8765 2.4643 53.8763 2.49414 53.8762C2.52024 53.8757 2.56289 53.8772 2.57305 53.8745C2.60649 53.8708 2.64055 53.8669 2.67508 53.863C2.7443 53.8552 2.81586 53.8469 2.88961 53.8387C3.03679 53.822 3.19211 53.8044 3.35257 53.7862C3.67367 53.7499 4.01632 53.711 4.35882 53.6724C5.72912 53.5172 7.09943 53.362 7.09943 53.362C6.89427 53.3775 6.67458 53.3902 6.44802 53.3956C5.94975 53.2884 5.68131 53.3014 6.55443 53.2004C5.69725 53.2571 6.02475 53.3433 4.73694 53.3477C5.24209 53.2938 5.36975 53.1707 4.13616 53.158C3.7507 53.1714 3.38132 53.1879 3.02461 53.2068C2.93555 53.2117 2.84711 53.2166 2.75945 53.2214L2.62852 53.229L2.56336 53.2328L2.47586 53.2339C2.35633 53.2349 2.23774 53.236 2.12008 53.2371L1.9418 53.2387C1.91243 53.2382 1.88165 53.2413 1.85321 53.2377L1.76915 53.2224C1.54462 53.1866 1.32993 53.0807 1.15634 52.9245C0.983682 52.7685 0.847434 52.5667 0.763684 52.3448C0.678997 52.1255 0.678997 51.8712 0.654622 51.6222C0.644622 51.5035 0.634779 51.3851 0.624779 51.2669L0.605872 51.0119C0.504936 49.654 0.39853 48.3236 0.326343 46.7672C0.402749 46.6522 0.381343 44.2084 0.399312 43.0207C0.481342 43.4741 0.504779 44.3555 0.521342 45.2703C0.524154 44.6962 0.528842 43.7079 0.532279 42.9746L0.371968 42.6759Z" fill="white"/>
<path d="M0.625 50.415C0.631869 50.3317 0.635615 50.2454 0.639206 50.1568C0.632962 50.204 0.628122 50.281 0.625 50.415Z" fill="white"/>
<path d="M0.517578 45.5492C0.520549 45.5607 0.522737 45.5566 0.525864 45.5607C0.523988 45.4647 0.521955 45.3685 0.519923 45.2701C0.519141 45.3685 0.518203 45.4795 0.517578 45.5492Z" fill="white"/>
<path d="M7.45777 53.0105C7.64105 52.9912 7.77589 52.9771 7.95917 52.9579C7.84636 52.964 7.70511 52.9716 7.56886 52.979C7.43917 52.9897 7.37745 53.0008 7.45777 53.0105Z" fill="white"/>
<path d="M8.07626 53.1559L7.97845 53.1898C8.0572 53.1926 8.11251 53.1945 8.1822 53.197C8.20345 53.1787 8.18048 53.1635 8.07626 53.1559Z" fill="white"/>
<path d="M1.07118 30.0541L1.05463 29.737C1.05603 29.9279 1.06275 30.0103 1.07118 30.0541Z" fill="white"/>
<path d="M0.498047 38.9965C0.505391 40.1452 0.612109 39.1338 0.612578 40.759L0.619453 40.282C0.668359 41.4479 0.645859 43.4971 0.649765 44.8825C0.604297 44.7262 0.594453 45.7226 0.523984 45.5607C0.540547 46.5076 0.556328 47.4456 0.628984 47.9334C0.605234 48.5201 0.669296 49.4113 0.63914 50.1572C0.681796 49.8422 0.783515 51.2191 0.731328 49.4039C0.737109 49.5505 0.746953 49.4584 0.75289 49.6033C0.812421 48.434 0.711484 47.9649 0.710078 46.9577C0.752109 46.3556 0.778046 47.9427 0.794921 47.3745C0.755703 46.1165 0.845702 43.4272 0.687109 43.5106C0.676015 42.5953 0.710859 42.4688 0.739921 42.1958C0.571016 40.7477 0.812421 36.8217 0.596484 36.8349C0.605078 37.3635 0.600391 38.2249 0.64664 39.0007L0.498047 38.9965Z" fill="white"/>
<path d="M5.67556 53.0226C5.6101 53.0222 5.52291 53.0216 5.46869 53.0212C5.52994 53.0216 5.60588 53.0221 5.67556 53.0226Z" fill="white"/>
<path d="M19.0804 53.6988L18.6358 53.8512C16.1047 53.8877 15.1896 53.8448 12.9764 53.8509C12.8072 53.83 13.0758 53.8168 13.2119 53.81C11.6559 53.8276 9.32796 53.7957 8.19546 53.8657C7.70045 53.8646 6.40076 53.8161 6.89264 53.7712C6.6517 53.7847 6.37623 53.7977 6.09919 53.7928C6.02576 53.7381 6.7192 53.7771 6.73514 53.7324C6.51545 53.7287 6.42982 53.718 6.37935 53.7354C6.74889 53.6883 5.99591 53.5494 7.71936 53.5529C8.38671 53.6811 6.52404 53.5678 6.91795 53.7091C7.48967 53.7101 7.42311 53.6554 7.47202 53.6382C8.20046 53.6414 8.18139 53.6768 8.14264 53.7091C8.42186 53.6652 9.33796 53.7263 9.72359 53.6598C11.1402 53.6488 9.6464 53.7658 10.5717 53.7643L11.1052 53.6211L12.6436 53.6481C14.8705 53.5978 12.325 53.4008 14.8705 53.3199C14.536 53.3946 15.5571 53.5202 16.7418 53.5499C16.033 53.5551 14.7227 53.6485 13.8075 53.6059C15.0975 53.718 12.032 53.6194 12.7014 53.7477C13.3391 53.6871 14.4019 53.6789 15.231 53.7116L14.9592 53.7248C15.841 53.74 16.5083 53.5902 17.7249 53.6475C18.3296 53.6429 18.2163 53.6832 18.1099 53.7167C18.6215 53.6951 19.0788 53.667 19.0804 53.6988ZM17.7632 53.7287L16.9544 53.7145C17.1464 53.7381 17.4479 53.7373 17.7632 53.7287Z" fill="white"/>
<path d="M44.336 14.4672C44.2816 14.4033 44.2191 14.3297 44.1699 14.2715C44.2035 14.3174 44.2673 14.3904 44.336 14.4672Z" fill="white"/>
<path d="M32.4609 68.4391L32.6308 68.2621C32.5535 68.3387 32.5096 68.3851 32.4609 68.4391Z" fill="white"/>
<path d="M39.4141 60.2476L39.8761 59.7004C39.6865 59.9086 39.5455 60.0799 39.4141 60.2476Z" fill="white"/>
<path d="M48.2813 18.745L48.2967 18.7627C48.3256 18.7894 48.3477 18.8099 48.3781 18.8381L48.2813 18.745Z" fill="white"/>
<path d="M54.541 44.3696C54.6224 44.2985 54.7124 44.2167 54.8312 44.1002C54.8084 44.105 54.701 44.2069 54.541 44.3696Z" fill="white"/>
<path d="M39.3359 60.3484C39.3492 60.336 39.3567 60.3289 39.367 60.3191C39.3839 60.2973 39.4028 60.2734 39.4211 60.2498L39.3359 60.3484Z" fill="white"/>
<path d="M31.9272 66.8934C31.9228 66.7845 31.9188 66.6856 31.9141 66.569C31.9166 66.722 31.9214 66.8158 31.9272 66.8934Z" fill="white"/>
<path d="M31.5561 67.6072C31.5528 67.4903 31.5486 67.3787 31.543 67.2918L31.5561 67.6072Z" fill="white"/>
<path d="M28.4822 51.6995L27.8516 51.7196C28.1616 51.7173 28.3466 51.7096 28.4822 51.6995Z" fill="white"/>
<path d="M31.6391 65.8035C31.633 65.7648 31.627 65.7261 31.6211 65.7004C31.6252 65.7923 31.633 65.836 31.6391 65.8035Z" fill="white"/>
<path d="M41.7773 11.1051C41.7875 11.115 41.7985 11.1259 41.8046 11.1319L41.8269 11.1322L41.7773 11.1051Z" fill="white"/>
<path d="M40.5559 10.0786C40.4256 9.94264 40.2897 9.80126 40.1563 9.66241C40.3013 9.82073 40.446 9.97109 40.5559 10.0786Z" fill="white"/>
<path d="M61.1719 37.5316C61.3036 37.4184 61.5969 37.1357 61.483 37.2926C61.6894 37.0267 61.6269 36.9915 61.1719 37.5316Z" fill="white"/>
<path d="M44.5378 12.8189C44.4541 12.7557 44.3559 12.6707 44.2578 12.585C44.4366 12.7488 44.5925 12.8933 44.5378 12.8189Z" fill="white"/>
<path d="M44.2668 12.5854C44.1781 12.5048 44.0832 12.419 44.0038 12.3469C44.0949 12.432 44.1835 12.5126 44.2668 12.5854Z" fill="white"/>
<path d="M58.939 41.621C58.9032 41.6452 58.8524 41.6875 58.7891 41.7507C58.8197 41.7451 58.8718 41.6961 58.939 41.621Z" fill="white"/>
<path d="M39.8694 9.30523C39.7767 9.25323 38.0245 7.46477 39.4461 9.02562C39.3214 9.04098 38.4946 8.06672 38.0953 7.67262C38.3565 7.99006 37.9127 7.57165 37.9721 7.68951C38.1701 7.88521 38.4153 8.10707 38.7236 8.45085C38.8359 8.64081 38.339 8.15064 37.9796 7.73679C38.4001 8.27052 37.3444 7.16945 37.9634 7.89905C39.3712 9.36737 40.3741 10.3965 41.4485 11.338C40.6433 10.5041 39.7403 9.5732 39.1215 8.84393L39.4534 9.07272C40.1316 9.91984 40.6222 10.3646 41.3355 11.1476L39.7525 9.36787C39.0461 8.49644 39.5636 9.03085 40.171 9.66353C40.0253 9.50431 39.896 9.3569 39.8694 9.30523Z" fill="white"/>
<path d="M41.4764 9.91125L41.4511 9.88053C41.4252 9.85761 41.3945 9.82805 41.3769 9.81476L41.4764 9.91125Z" fill="white"/>
<path d="M28.5947 53.5593L28.3985 53.5927C28.5624 53.5776 28.6129 53.567 28.5947 53.5593Z" fill="white"/>
<path d="M42.1495 11.2675L42.1484 11.2663C42.1599 11.2767 42.1626 11.2792 42.1495 11.2675Z" fill="white"/>
<path d="M30.0782 55.5011C30.0781 55.4939 30.0781 55.4868 30.0781 55.4739C30.0781 55.4923 30.0781 55.4923 30.0782 55.5011Z" fill="white"/>
<path d="M31.9141 56.9114C31.918 56.9017 31.9217 56.8989 31.9256 56.8763C31.9209 56.7656 31.9169 56.8192 31.9141 56.9114Z" fill="white"/>
<path d="M30.0782 55.5055C30.0782 55.5055 30.0782 55.5087 30.0781 55.5017C30.0782 55.5055 30.0782 55.5141 30.0782 55.5055Z" fill="white"/>
<path d="M39.1493 62.9435C39.1493 62.9435 39.0858 62.9888 38.9923 63.0668C38.9655 63.1071 39.0045 63.0798 39.1493 62.9435Z" fill="white"/>
<path d="M35.7507 66.4265C35.7275 66.4463 35.7137 66.458 35.6837 66.4835L35.7507 66.4265Z" fill="white"/>
<path d="M60.1139 38.0848C59.9491 38.2614 59.8277 38.3963 59.7266 38.5116C59.8475 38.3836 59.9767 38.2433 60.1139 38.0848Z" fill="white"/>
<path d="M30.0688 55.4731C30.0598 55.4202 30.0505 55.3448 30.0391 55.2205C30.0513 55.3575 30.0607 55.4298 30.0688 55.4731Z" fill="white"/>
<path d="M43.9038 57.1567C43.8707 57.1965 43.8398 57.2337 43.8085 57.2714L43.8721 57.2106L43.9038 57.1567Z" fill="white"/>
<path d="M45.6738 55.3337C45.6216 55.4048 45.6016 55.4417 45.5746 55.4843C46.1666 54.7904 47.3273 53.5946 47.3976 53.3805C47.1898 53.6085 46.0668 54.7411 46.2144 54.5007C45.8002 54.9828 45.1196 55.6216 44.8985 55.8833C45.6396 55.1579 45.0288 55.8591 44.5737 56.3976C44.1214 56.8459 44.6037 56.2538 44.2186 56.6445L43.2227 57.7363L44.1048 56.801L43.9008 57.1544C43.9309 57.1171 43.9517 57.0916 43.984 57.0518C45.4338 55.4228 44.1996 57.0131 45.6738 55.3337Z" fill="white"/>
<path d="M45.5732 55.4838C45.4848 55.5881 45.4081 55.6811 45.3515 55.7565C45.4901 55.6045 45.5379 55.5391 45.5732 55.4838Z" fill="white"/>
<path d="M51.7187 49.0663C51.7918 48.9811 51.871 48.8886 51.9706 48.7726C51.9232 48.8279 51.8131 48.9562 51.7187 49.0663Z" fill="white"/>
<path d="M12.5878 52.878C12.6245 52.9047 13.8428 52.9597 13.821 52.8901C13.4594 52.8829 13.095 52.8756 12.7292 52.8683L12.5878 52.878Z" fill="white"/>
<path d="M60.2442 30.8849L60.5314 31.1982C60.5547 31.2175 60.5773 31.2364 60.5947 31.251C60.5429 31.1798 60.3444 30.9838 60.2442 30.8849Z" fill="white"/>
<path d="M46.455 54.1885C46.3042 54.3671 46.2414 54.4511 46.2109 54.5005C46.3094 54.3857 46.3977 54.277 46.455 54.1885Z" fill="white"/>
<path d="M60.3056 30.705C60.1969 30.5583 60.0373 30.3414 60.0297 30.2941C59.7802 30.0233 59.5797 29.8602 59.3164 29.5945C59.6106 29.8979 59.9381 30.2623 60.3056 30.705Z" fill="white"/>
<path d="M59.2871 29.5743C59.2946 29.5816 59.302 29.5889 59.3087 29.5953C59.3012 29.5881 59.2945 29.5816 59.2871 29.5743Z" fill="white"/>
<path d="M11.8603 52.8457C11.7556 52.8506 11.6476 52.8557 11.5365 52.8609L11.7051 52.8417C11.425 52.8344 11.1462 52.8272 10.8672 52.8197C10.7661 52.8231 10.6565 52.8268 10.5222 52.8312C10.5764 52.8287 10.6184 52.8209 10.6445 52.8132C10.5536 52.8103 10.4648 52.8076 10.3759 52.8047C9.70858 52.8795 8.04795 52.9342 7.56889 52.9781C6.93498 53.01 6.1592 53.0283 5.67264 53.0225C6.12358 53.024 6.72233 53.009 6.54248 52.9677C5.62686 52.9246 5.1817 52.8005 3.60139 52.9072L4.52827 52.9055C4.52827 52.9055 4.00733 52.9457 3.48623 52.9857C2.9617 53.0254 2.45811 53.0678 2.41405 53.062C2.18686 53.0396 2.15983 53.0261 2.24483 53.0168C2.28733 53.0122 2.35827 53.0087 2.44733 53.0056C2.49014 53.0041 2.53748 53.0026 2.58842 53.0009C2.63186 52.9987 2.67827 52.9964 2.7267 52.9938C3.11405 52.9749 3.62905 52.957 3.77358 52.9281C3.36842 52.9479 2.9803 52.9496 2.6142 52.943C2.40498 52.9346 2.20186 52.9263 2.00592 52.9183C1.81248 52.8986 1.63545 52.8224 1.49155 52.7071C1.3478 52.5894 1.25155 52.43 1.18624 52.2711C1.16202 52.1877 1.13186 52.1085 1.1278 52.0253C1.11389 51.9444 1.11358 51.8634 1.11342 51.7845C1.11092 51.6275 1.10592 51.4811 1.09702 51.3436C1.08905 51.2153 1.07858 51.1091 1.06233 51.0059C1.13858 50.8916 1.26592 50.6996 1.25827 49.5504C1.17124 50.379 1.20233 48.8613 1.1092 49.5411C1.06561 49.144 1.1367 48.2592 1.07967 48.193L1.11124 48.3006C1.23202 46.3382 1.0428 45.6957 0.980454 44.8561C0.94936 42.5064 0.998735 41.4272 0.985923 39.5108C1.03702 39.4355 1.17764 38.9137 1.17217 38.1449C1.10311 37.7875 1.07108 36.0533 0.982329 35.8762C0.945454 37.2507 1.0567 37.0008 1.07733 37.8236C0.984361 38.5086 0.985454 37.8857 0.929986 38.8212C0.966079 38.0661 0.881548 35.4095 0.968735 34.5826L0.980923 34.8746C1.03389 33.5548 1.25295 33.3024 1.12045 31.1032L1.06608 30.054C1.07499 30.1045 1.0853 30.1102 1.09327 30.1372C1.10249 28.4197 1.20327 28.8884 1.12374 26.9922C1.12983 27.1388 1.13967 27.0467 1.14561 27.1957C1.1953 26.1148 1.09545 25.0247 1.07452 24.2076C1.14842 23.7088 1.14717 24.3258 1.20077 24.6345C1.21499 23.6837 1.19045 22.6954 1.15108 21.7969C1.14061 21.5683 1.13045 21.3452 1.12045 21.1301C1.11624 21.0097 1.11202 20.8917 1.10795 20.776C1.10717 20.7178 1.10092 20.6587 1.10467 20.6021C1.10967 20.5456 1.11452 20.4897 1.11936 20.4345C1.20186 19.9922 1.52795 19.6842 1.8317 19.6039C1.8317 19.6039 1.85249 19.6007 1.88874 19.5954C1.92467 19.589 1.97655 19.5814 2.04155 19.5853C2.16874 19.587 2.33842 19.589 2.50811 19.5912C2.79592 19.6023 3.08373 19.6137 3.08373 19.6137C2.91561 19.6219 2.73811 19.6332 2.56952 19.6464C2.37842 19.6628 2.1992 19.6804 2.05749 19.6974C1.91577 19.718 1.81311 19.7601 1.7617 19.7997C1.70936 19.8345 1.70452 19.8506 1.76139 19.8428C1.79967 19.8279 1.83514 19.8144 1.86811 19.8016C1.90264 19.7957 1.93436 19.7903 1.9642 19.785C2.02342 19.7719 2.07561 19.7702 2.12295 19.7675C2.21827 19.7609 2.29327 19.7557 2.3767 19.7498C2.55295 19.7379 2.73717 19.733 3.1792 19.7406C3.10405 19.766 2.97389 19.7908 2.81077 19.8171C2.65045 19.8419 2.45811 19.8718 2.25452 19.9036C2.69077 19.9249 2.95764 19.9242 3.09733 19.9137C3.24092 19.9032 3.27483 19.8828 3.2917 19.8647C3.32514 19.8283 3.2903 19.8007 3.92858 19.8793C4.5017 19.8803 4.83467 19.8056 4.89748 19.744L5.93592 19.8247C6.05124 19.746 7.33327 19.7418 8.17342 19.7298C8.27608 19.6959 7.49702 19.6461 7.17858 19.6765C7.24123 19.6148 8.1353 19.5858 8.70998 19.587C8.92061 19.7518 12.4737 19.563 11.794 19.7574C14.3762 19.7037 18.0039 19.6871 19.7081 19.6182C20.2701 19.6638 21.4156 19.666 20.729 19.7435C22.8076 19.7442 23.8797 19.575 25.9428 19.6202C26.1136 19.6407 25.0101 19.6216 25.0834 19.6766C26.4309 19.6106 27.5394 19.7462 29.627 19.7023C29.2798 19.7053 29.1737 19.7393 29.1258 19.7563C29.1075 19.7427 29.3217 19.7285 29.6083 19.7145C29.8565 19.7015 30.1675 19.6853 30.4022 19.6733C30.6786 19.6874 30.0598 19.693 30.219 19.7138C30.4062 19.7173 30.5911 19.7205 30.7651 19.7239C30.7708 19.267 30.7726 18.83 30.7717 18.3714C30.7684 17.887 30.765 17.4125 30.7617 16.9444C30.7506 16.0081 30.7317 15.0975 30.7115 14.185C30.6714 12.3599 30.6264 10.5272 30.6297 8.46549C30.6276 9.70622 30.7286 10.175 30.77 10.1881L30.7719 8.97289C30.7214 8.50466 30.7215 7.59201 30.6839 6.82897C30.7028 6.73525 30.7233 6.36412 30.747 6.74269C30.7981 5.54231 30.752 4.60484 30.6998 3.59966C30.6737 3.09699 30.6459 2.57742 30.6281 1.99978C30.6192 1.71087 30.6126 1.40744 30.6101 1.08426C30.6084 1.05032 30.6126 0.986835 30.6164 0.932971C30.6179 0.877081 30.6308 0.822543 30.6425 0.767328C30.6664 0.657236 30.7084 0.549669 30.765 0.450215C30.8205 0.349916 30.8936 0.259585 30.9776 0.180393C31.0194 0.139531 31.0784 0.0998501 31.1306 0.0633779C31.1758 0.0360237 31.2084 0.0216746 31.2483 6.14222e-05C31.2483 6.14222e-05 31.2372 0.00715125 31.2162 0.0203218C31.2059 0.026907 31.193 0.0350111 31.1778 0.0446357C31.1626 0.0544292 31.1476 0.0623676 31.1165 0.0873578C30.9956 0.175161 30.8794 0.301119 30.7834 0.497833C30.7586 0.545618 30.7386 0.598135 30.7231 0.654701C30.7036 0.709409 30.6934 0.769011 30.6842 0.830136C30.6714 0.890416 30.675 0.954756 30.6725 1.01858C30.6725 1.08004 30.6775 1.12327 30.6798 1.17798C30.6917 1.38668 30.7045 1.60939 30.7172 1.83194C30.7681 2.72264 30.8189 3.61351 30.8189 3.61351L30.8898 2.73192L30.9825 4.29838C31.0383 3.36276 30.9092 2.54923 30.9858 2.4366C31.0073 2.63416 31.0004 3.11049 31.0417 3.12552C31.0715 2.22739 31.0145 2.15665 30.9997 1.48157C31.1553 3.2606 31.1528 6.7486 31.1911 8.62607C31.2033 8.92139 31.1536 8.3733 31.1376 8.32095C31.1428 9.08687 31.0944 9.54666 31.1214 10.511C31.1872 11.1097 31.1698 10.0541 31.1767 9.57874C31.2339 9.64425 31.2304 9.88335 31.239 10.4125C31.1628 10.5275 31.212 13.3178 31.1189 14C31.143 16.8278 31.3164 13.5476 31.2833 16.3082L31.1959 17.1329C31.2112 17.542 31.2278 17.9817 31.2448 18.4398C31.2575 19.0358 31.2704 19.656 31.2837 20.2845C30.7242 20.2921 30.1576 20.2999 29.597 20.3076C29.1673 20.3115 28.7423 20.3117 28.3315 20.307L28.6851 20.3038C28.9206 20.2634 28.5314 20.2386 28.3592 20.2178C27.0909 20.1776 25.9514 20.2919 25.1831 20.1977C23.7367 20.298 21.3253 20.3721 19.6715 20.424C19.2255 20.2997 21.8289 20.3185 22.5169 20.2406L21.0115 20.2413C21.9422 20.2396 22.3095 20.1921 22.8673 20.1216C21.5481 20.0984 21.1142 20.2073 19.8634 20.2386C19.9608 20.205 19.7937 20.1842 19.2169 20.1832L19.0531 20.2656C19.0425 20.259 18.9787 20.2528 18.8006 20.2475L16.5751 20.298C17.0473 20.3333 17.0701 20.4052 17.6451 20.4063C17.4398 20.3581 17.9275 20.3485 18.5028 20.3499C17.9986 20.4036 19.0637 20.3954 19.0515 20.4399C17.8981 20.4375 16.4811 20.4488 15.7248 20.4713L15.4792 20.3954C14.38 20.376 13.2192 20.4186 12.4737 20.3965L12.7087 20.3559C11.39 20.3328 10.0915 20.3816 8.92061 20.3075C7.74436 20.3946 6.26342 20.4667 5.30202 20.5577C5.04483 20.6067 4.18202 20.5758 3.21764 20.5501C2.98936 20.5445 2.75483 20.5388 2.52186 20.5329C2.39686 20.5337 2.26452 20.5082 2.14983 20.5589C2.03639 20.6092 1.95733 20.718 1.93139 20.8306C1.90483 20.9449 1.92983 21.0563 1.94264 21.1446C1.94202 21.1673 1.91139 21.0467 1.90983 20.8713C1.91686 20.785 1.94952 20.692 2.00186 20.6188C2.0542 20.5447 2.12608 20.501 2.1828 20.4741C2.05874 20.5005 1.96155 20.5918 1.91264 20.697C1.85967 20.8026 1.86186 20.9189 1.87202 21.0134C1.87499 21.0604 1.8778 21.1046 1.8803 21.1458C1.88077 21.1661 1.88139 21.1855 1.88186 21.2043C1.88155 21.2276 1.88124 21.2498 1.88092 21.2711C1.8778 21.3991 1.86702 21.5024 1.84311 21.5772C1.84577 21.3633 1.84764 21.2046 1.84905 21.0886C1.84967 21.0077 1.84608 20.9565 1.84577 20.9258C1.84545 20.865 1.83077 20.8866 1.81374 20.9324C1.78733 21.0202 1.75327 21.2254 1.73967 20.9123C1.74108 21.1014 1.74249 21.2932 1.74389 21.4802C1.74733 21.7277 1.75077 21.969 1.75405 22.1942C1.7628 22.6449 1.77577 23.0317 1.7928 23.2774C1.79202 21.6563 1.92499 23.853 1.88327 22.212C1.96374 23.4836 1.99577 25.2191 1.96467 26.7344C1.92342 26.7193 1.9042 26.9062 1.88717 27.4709L1.94702 27.9266C1.93624 28.6356 1.87624 26.5555 1.85499 27.9828C1.95733 29.4517 1.79686 32.4058 1.98608 33.0489C1.91139 34.1683 1.91045 30.9187 1.81889 32.6059C1.75045 31.6243 1.82874 30.2705 1.73436 29.9469C1.76124 30.9089 1.65452 30.2982 1.65358 30.9187L1.71186 31.9916L1.71545 31.7542C1.80467 33.5547 1.76186 36.4071 1.77702 38.7062C1.87217 40.6536 2.00967 41.9943 1.99936 44.3302C1.94358 43.6406 1.94561 46.2701 1.84327 44.7996C1.79405 45.8804 1.85233 46.9475 1.89358 46.9688C1.9078 46.0178 1.90686 46.6343 1.92717 45.8333C1.97717 46.374 1.97499 47.6204 1.94233 48.1324C1.94592 47.895 1.93639 47.9851 1.92061 47.933C1.88702 49.0685 1.9703 48.4772 1.99124 49.2978C1.95624 49.428 1.95155 49.881 1.95108 50.395C1.95092 50.652 1.95061 50.9244 1.9503 51.1793C1.94983 51.2335 1.94936 51.2869 1.94889 51.3387C1.94795 51.3681 1.94717 51.3968 1.94623 51.4243C1.9442 51.4799 1.94061 51.5322 1.93655 51.5799C1.93655 51.5799 1.94608 51.6094 1.95999 51.6536C1.98045 51.6955 2.01217 51.748 2.0592 51.7853C2.10358 51.8247 2.15842 51.8485 2.20014 51.8576C2.24061 51.8708 2.27108 51.8652 2.2703 51.8676C2.20623 51.8674 2.19639 51.8701 2.21889 51.8904C2.23108 51.8976 2.25139 51.9095 2.27827 51.9179C2.30577 51.9225 2.33905 51.9299 2.37545 51.9297C2.46467 51.9334 2.56592 51.9378 2.6503 51.9414C2.80608 51.9474 2.93045 51.9569 2.97014 51.9731C3.69123 51.9231 4.29577 51.8353 5.39389 51.8544C4.9403 51.8914 6.39577 51.9078 6.41483 51.9797C8.29514 52.0486 9.52873 51.7835 11.3097 51.8865C11.2544 51.9034 10.8948 51.9507 11.4155 51.9687C11.8255 51.9486 12.5433 51.9571 12.982 51.9493L12.9681 51.9513C12.9767 51.9507 12.982 51.9501 12.9909 51.9493C13.2058 51.9454 13.3408 51.9365 13.3461 51.9191C14.0969 51.8487 14.484 51.7766 15.9617 51.717C15.8533 51.6346 14.6058 51.6665 14.0655 51.693L13.5986 51.7742C13.1525 51.6499 12.2659 51.7958 11.9262 51.7539C12.8126 51.6082 15.3656 51.644 16.897 51.5544C15.9633 51.4395 13.932 51.4216 12.1597 51.4355L12.9403 51.4848L12.013 51.4863L12.9106 51.5739C12.0322 51.5586 11.2728 51.581 10.4789 51.5761C11.4084 51.5744 11.7706 51.6881 11.2445 51.6702C10.2087 51.5893 10.1651 51.723 9.37327 51.718C9.81405 51.7254 10.3873 51.7269 10.0178 51.774C8.45655 51.6751 8.03498 51.7396 6.61514 51.6339C6.79108 51.7712 4.84123 51.6476 4.62858 51.7602L5.28733 51.7717L3.88998 51.8547C2.60045 51.7428 5.0317 51.7408 3.06952 51.6616C2.95624 51.6614 2.85045 51.6611 2.75092 51.6607C2.65702 51.6611 2.53155 51.6619 2.53936 51.6633C2.49498 51.6653 2.45498 51.672 2.41702 51.6747C2.34077 51.6802 2.27702 51.657 2.22827 51.6204C2.17842 51.5831 2.14702 51.5289 2.13545 51.4529C2.12858 51.4147 2.12264 51.3708 2.11811 51.319C2.11624 51.2477 2.11436 51.1722 2.11233 51.0917C2.11123 51.0071 2.11014 50.9171 2.10905 50.821C2.12795 50.9443 2.14608 51.1268 2.16264 51.3163C2.18139 51.3801 2.18952 51.4465 2.2117 51.5113C2.23889 51.5746 2.29514 51.6314 2.3653 51.6503C2.40014 51.6609 2.43702 51.6582 2.47248 51.6562L2.52561 51.6541L2.62842 51.6538C2.62842 51.6538 2.61748 51.6533 2.59858 51.6521C2.58905 51.6516 2.57748 51.6509 2.5642 51.6501C2.55811 51.6494 2.55655 51.6486 2.55202 51.6476C2.53702 51.6438 2.51686 51.639 2.49686 51.6341C2.45811 51.6258 2.42514 51.6113 2.42514 51.6114C2.08608 51.5704 3.94186 51.5758 4.68248 51.582C3.37217 51.6754 5.29561 51.6108 5.8917 51.6839C6.00123 51.605 5.15999 51.6173 6.15327 51.5542C5.22264 51.5557 5.08655 51.5623 3.90295 51.5326C6.4617 51.5684 6.20389 51.2594 8.43717 51.3254C7.4078 51.361 8.79608 51.439 8.91998 51.4772C9.40436 51.4677 10.387 51.449 10.7912 51.4292L10.4255 51.3154C11.7267 51.2663 12.1786 51.5072 13.6803 51.3899C13.8755 51.3218 12.3594 51.3668 12.6295 51.3536C14.6842 51.2822 15.4244 51.4654 17.2487 51.551C17.3519 51.5169 17.3306 51.4448 17.9687 51.3847C17.7683 51.4529 18.2404 51.4878 17.5226 51.5378C18.1326 51.5667 18.8551 51.5165 19.3934 51.49C18.1236 51.45 19.9129 51.3919 20.1469 51.3511C20.8047 51.3625 19.9464 51.4191 19.5417 51.439C20.0697 51.4573 20.6973 51.5579 20.9972 51.4557C21.0178 51.5277 19.5211 51.6449 18.542 51.6634L19.202 51.6749C18.7473 51.7117 18.6622 51.7013 18.0072 51.6901C18.6484 51.7458 18.5851 51.8073 18.4358 51.8586C18.3517 51.8482 18.4826 51.8416 18.4023 51.8313C17.8748 51.813 17.4701 51.8326 17.5925 51.8708C17.1181 51.9674 18.3242 51.9311 18.6815 51.9794C18.9517 51.9728 19.2219 51.9664 19.4867 51.9601L22.2273 51.6499C23.3983 51.6138 23.9247 51.6881 24.8042 51.7349L25.0456 51.652C26.0645 51.6606 27.0259 51.6867 26.373 51.7918C26.3362 51.7641 26.2017 51.7707 25.9805 51.7668C25.9512 51.7779 25.9001 51.786 25.8358 51.7924C25.8148 51.7985 25.8028 51.8019 25.7853 51.807C26.8764 51.7788 27.5576 51.7612 27.6205 51.7597C25.7678 51.8801 27.5279 51.9103 27.2179 52.0574L29.0892 52.0094C27.955 51.9628 29.0684 51.9375 29.4711 51.9176C29.4808 51.9247 29.5001 51.9307 29.5279 51.9356C29.542 51.9375 29.5579 51.9397 29.5759 51.942C29.585 51.9429 29.5944 51.9439 29.6044 51.9447C29.619 51.9454 29.6344 51.9463 29.6503 51.9471C29.7837 51.9529 29.9598 51.9549 30.1634 51.9545C30.5753 51.9495 31.0962 51.9431 31.5929 51.9368C31.5992 52.3979 31.6039 52.8451 31.6008 53.1811L31.585 53.1075C31.5784 53.3641 31.5739 53.6647 31.5711 53.9912C31.5701 54.2141 31.569 54.4559 31.5681 54.703C31.5692 55.1751 31.5762 55.6676 31.5867 56.0771C31.6123 56.0398 31.7375 57.0902 31.8128 57.5947C31.8415 56.1897 31.8722 57.0235 31.9197 56.9109C31.9154 57.0563 31.9145 57.3178 31.9242 57.3482C31.9459 57.5493 31.9533 57.0752 31.9786 57.0355C31.9614 56.2888 31.9439 55.5313 31.9289 54.8843C31.923 54.7225 31.9172 54.5677 31.9119 54.4216C31.904 54.2563 31.8967 54.1008 31.8898 53.9573C31.8734 53.5075 31.8526 53.1444 31.8259 52.8952C31.8017 53.3037 31.8133 53.6296 31.8269 53.9803C31.8326 54.0953 31.8384 54.2123 31.8445 54.3367C31.8481 54.4463 31.8479 54.5626 31.8398 54.691C31.8267 54.5559 31.8165 54.4135 31.8084 54.2638C31.8065 54.2263 31.8048 54.1883 31.8028 54.15C31.8012 54.1003 31.7997 54.0498 31.7979 53.9988C31.7956 53.8648 31.7931 53.7272 31.7906 53.5863C31.7825 53.0244 31.7811 52.4109 31.7815 51.7327C31.3222 51.7318 30.8295 51.731 30.3044 51.7301L29.6665 51.6607L28.4859 51.6982C28.727 51.68 28.775 51.6526 28.9144 51.6281C28.9839 51.616 29.0764 51.6045 29.2272 51.5952C29.4019 51.5859 29.4878 51.5788 30.119 51.5753C30.0525 51.5589 29.8809 51.5517 29.6401 51.5498C29.57 51.5498 29.4901 51.55 29.4026 51.5501C29.3208 51.5518 29.2317 51.5537 29.1383 51.5555C28.7642 51.5647 28.3167 51.5792 27.9456 51.5682L27.5659 51.6601C27.7122 51.6089 26.1233 51.5989 27.2522 51.529L29.0887 51.4539L28.5783 51.3911L30.6312 51.3735L29.9092 51.4211C30.9848 51.4069 31.6576 51.4081 32.0728 51.4176C32.0578 52.2619 32.0203 52.3757 31.9962 52.7674C31.9842 52.9629 31.9756 53.2252 31.9748 53.6804C31.975 53.7942 31.9754 53.9203 31.9758 54.0606C31.977 54.1395 31.9786 54.2265 31.9801 54.3224C31.9858 54.5071 31.9926 54.7269 32.0006 54.9903C32.1037 55.8397 32.1147 56.7528 32.0897 58.4159C32.0667 57.2126 32.017 58.2923 31.9573 57.8394C31.9144 59.067 31.9994 59.4812 32.0394 60.1179C31.985 60.4306 31.9405 60.6528 31.9484 59.5565C31.8345 59.4192 31.9681 60.9988 31.8508 61.0988C31.8525 62.9148 31.9473 63.6425 32.0233 64.4469C32.0612 64.8491 32.0945 65.2704 32.1092 65.8567C32.1165 66.1498 32.1192 66.4842 32.1154 66.8777C32.1122 67.0746 32.1086 67.2862 32.1048 67.5152C32.1034 67.5724 32.102 67.6307 32.1004 67.6901L32.0981 67.7801C32.0976 67.8022 32.0972 67.788 32.0969 67.7936L32.0956 67.7963C32.0917 67.8049 32.0875 67.8139 32.0833 67.823C32.0833 67.8247 32.0359 67.8252 32.0359 67.8235C32.0534 67.8868 32.0458 67.9388 32.092 67.9616C32.1119 67.9717 32.1351 67.9721 32.1537 67.9628C32.1731 67.954 32.1844 67.9354 32.1994 67.9219L32.2426 67.8777C32.4003 67.7075 32.5594 67.5356 32.7225 67.3593C33.0747 66.9775 33.442 66.575 33.844 66.1265L35.2153 64.8284C34.9408 65.1534 34.2309 66.058 34.6329 65.7122C33.9211 66.2954 33.2873 67.0454 32.5669 67.724C32.5205 67.8225 32.8111 67.5434 32.9444 67.4291C32.7406 67.6484 32.5781 67.8029 32.4011 67.9771L32.3695 68.0082L32.3611 68.0143L32.3442 68.0271C32.3329 68.0359 32.3219 68.0452 32.3106 68.0558C32.2879 68.0769 32.265 68.1028 32.2373 68.1406C32.2428 68.1539 32.2815 68.1332 32.3109 68.1205C32.3397 68.1087 32.3573 68.1067 32.3006 68.1794C32.3006 68.1794 32.2436 68.2124 32.1984 68.2326C32.1547 68.2593 32.1037 68.2407 32.1037 68.2407C32.0289 68.2728 31.9708 68.2682 31.9281 68.2721C31.8851 68.2733 31.8533 68.278 31.8228 68.2743C31.758 68.2686 31.7367 68.199 31.7539 67.902C31.7873 67.9469 31.8283 68.0008 31.8628 68.042C31.8933 68.0839 31.9289 68.1193 31.9819 68.1482C31.944 68.0807 31.9801 68.1119 32.0231 68.1158C32.0706 68.1175 32.11 68.0886 32.0784 68.0474C32.0322 68.0771 31.992 68.0649 31.9742 68.0384C31.9564 68.0111 31.9604 67.9731 31.9587 67.9344C31.9584 67.8951 31.9594 67.8541 31.9564 67.8068L31.9558 67.7977L31.9555 67.7931L31.9551 67.7765C31.9547 67.7396 31.954 67.7019 31.9534 67.6638C31.9519 67.5873 31.9501 67.5081 31.9486 67.4257C31.9433 67.2612 31.9375 67.0844 31.9312 66.8923C31.945 67.0726 31.9644 67.1204 31.9704 67.4984L32.0123 65.2687C31.9544 65.8204 31.9487 63.4271 31.8626 63.6344C31.8448 64.8225 31.8489 65.2421 31.8512 65.7029C31.8512 65.9334 31.8511 66.1741 31.8508 66.5265C31.8489 66.7026 31.8467 66.9068 31.844 67.1516C31.8422 67.2739 31.8403 67.4064 31.8381 67.5506C31.8369 67.6227 31.8356 67.6979 31.8344 67.7759C31.8329 67.8 31.8315 67.8252 31.8301 67.8514L31.8258 67.8129L31.8229 67.7928L31.8198 67.7234C31.8147 67.622 31.8094 67.5189 31.8039 67.4149C31.7917 67.2072 31.7764 66.9973 31.7592 66.7969C31.7248 66.396 31.6828 66.0331 31.6425 65.8015C31.6458 65.7778 31.6486 65.7388 31.6501 65.6556C31.565 65.2417 31.5422 65.6635 31.3931 65.6556C31.4461 66.2736 31.4508 66.7891 31.4498 67.3325C31.4498 67.5491 31.4497 67.7713 31.4497 68.0119C31.4531 68.1806 31.4547 68.362 31.4759 68.544C31.5215 68.5713 31.5364 68.4295 31.5528 68.2598C31.5594 68.1737 31.5626 68.078 31.5631 67.9819C31.5634 67.8743 31.5609 67.8333 31.5558 67.6053C31.5558 67.6053 31.559 67.6823 31.5642 67.7977C31.5692 67.8529 31.5759 67.9263 31.5828 67.9998C31.5962 68.1354 31.6098 68.271 31.6098 68.271C31.6098 68.273 31.5723 68.1872 31.5723 68.1852C31.5723 68.1852 31.569 68.2811 31.5697 68.4273C31.5676 68.5715 31.6803 68.7726 31.8644 68.8081C31.9519 68.8288 32.0459 68.8138 32.1184 68.7681C32.1915 68.723 32.242 68.6556 32.2922 68.6071C32.3903 68.505 32.4556 68.4369 32.4556 68.4369C32.3583 68.5455 32.2956 68.633 32.2401 68.7186C32.1865 68.8052 32.1359 68.8866 32.0559 68.9491C32.1589 68.9094 32.229 68.8244 32.3101 68.7527C32.3945 68.6774 32.48 68.6011 32.5683 68.5224C32.5298 68.5045 32.5119 68.4731 32.5181 68.4309C32.527 68.3856 32.549 68.3415 32.6258 68.2596C34.0112 66.7906 34.8234 66.0196 35.3929 65.5403C35.4442 65.482 35.5022 65.4163 35.5487 65.3635C35.2623 65.5512 36.422 64.2006 36.7895 63.6788C36.8267 63.7646 37.5317 62.9523 37.9572 62.557C38.1008 62.2573 37.7275 62.4609 37.1912 62.9224C36.3245 63.9914 36.7329 63.551 36.3814 64.1185L34.9508 65.7898L35.23 65.3724C34.4636 66.15 33.8204 66.9973 33.8054 66.8634C34.1517 66.3891 34.8281 65.7189 35.1711 65.2478L34.6542 65.7513C35.4529 64.7406 35.1644 65.342 36.1665 64.1562C35.7214 64.5098 36.2575 64.0488 36.6676 63.5199C36.2656 63.8656 34.8359 65.5357 35.0511 65.0864C35.5533 64.4491 37.0054 63.2285 37.6279 62.3402L37.604 62.3907C38.6825 61.2531 38.9998 60.7864 39.3626 60.3163C39.8486 59.8614 40.4289 59.1353 40.9165 58.6002L40.9337 58.6448L41.6148 57.8823C41.3379 58.2965 40.8009 58.7588 40.2129 59.4109L40.3412 59.3895C39.5901 60.0618 39.2301 60.6626 38.7444 61.2884C39.4723 60.4002 40.9459 58.9378 41.022 58.6266L41.5561 58.1676L41.7658 57.8985C42.164 57.5569 41.8637 58.0207 41.1834 58.7824C41.0493 58.8978 40.9823 58.9553 41.0075 58.9037C40.7103 59.2772 40.4573 59.6417 39.6669 60.4689L40.0533 59.9894C39.0808 61.0319 38.2211 62.0062 37.9428 62.4222C39.3637 60.9355 40.7436 59.4546 42.054 58.0331C42.3189 57.4821 42.7095 56.9112 42.7931 56.5749C43.6529 55.6001 44.8334 54.2906 45.6401 53.5087L45.5923 53.609C45.9773 53.2181 46.3151 52.8395 46.5892 52.5155C47.0134 52.1215 46.3794 52.8723 46.6704 52.5928L47.894 51.1879C47.8678 51.3278 46.8062 52.4754 46.3058 53.0244C46.3965 52.9168 46.5801 52.7 46.5114 52.7591C45.9036 53.37 44.8989 54.6457 44.5679 54.8423C44.2951 55.1651 45.0934 54.1554 44.122 55.1967C43.4461 55.8665 43.302 56.1667 43.2567 56.264C43.2754 56.3069 44.3136 55.2085 43.9922 55.6316C44.4926 55.0829 44.6558 54.8252 45.3289 54.1586C44.8328 54.7024 44.2133 55.4999 43.9017 55.7385C42.9679 56.8651 43.2469 56.86 43.7203 56.3648C43.5664 56.4383 45.4698 54.3597 44.1183 55.6994C44.645 55.0106 45.7079 53.8611 46.4348 53.0011L46.4114 53.0504L47.3428 52.014C47.225 52.1744 46.9523 52.4972 46.9718 52.5388L48.2029 51.0394C47.5186 51.8926 48.6962 50.585 49.0548 50.2476C49.1503 50.0479 49.629 49.4597 49.1128 49.9626C48.5287 50.5237 48.8159 50.3356 48.3176 50.8815L48.9575 50.0377L49.0254 49.9793L49.3951 49.455C50.3667 48.4139 49.1065 50.0566 50.2898 48.656L50.0501 48.7455C51.4969 47.2071 53.4283 45.3105 54.4062 44.1755C54.1711 44.526 54.1197 44.7371 54.5468 44.3675C54.0959 44.8254 53.2201 45.7781 52.6003 46.4638C52.4658 46.5793 53.2911 45.5165 53.9894 44.7986C53.5304 45.0164 52.3531 46.7346 52.1428 46.6804C50.3614 48.5072 50.9736 48.2156 49.4234 49.7253C49.4614 49.8101 49.0331 50.2088 49.007 50.3479C49.5381 49.9791 50.9736 48.2156 51.9629 47.2182C51.8736 47.3239 51.6939 47.537 51.6679 47.5887C52.3686 46.8684 52.6381 46.5492 53.094 46.0099L53.0268 46.0675C53.8043 45.1044 53.5865 45.5565 54.1033 45.0535C54.2848 44.8386 54.9845 44.1188 54.832 44.1914L55.7765 43.2902L55.6687 43.2662C56.1665 42.7201 56.3192 42.6479 56.7342 42.1138L56.6972 42.0282L55.4312 43.3525C56.0434 42.6496 55.5515 43.1021 56.2329 42.3392C55.5217 43.2455 56.8134 41.7817 56.9437 41.7575L57.4212 41.1708L57.3064 41.3285C57.7367 40.9281 57.7615 40.7898 58.2364 40.2931C57.6528 40.8537 57.2509 41.1996 56.59 42.0034C57.0686 41.4154 58.0464 40.2802 58.2933 40.0092C58.8058 39.4027 59.2251 39.0454 59.734 38.5096C58.7933 39.5766 60.2481 38.3354 58.2744 40.378C58.2989 40.3273 58.4579 40.161 58.5251 40.1031C58.1933 40.301 57.3717 41.3595 56.9814 41.843C57.132 41.7725 56.7047 42.2575 57.4709 41.4806C57.2 41.7143 58.0012 40.7013 58.7428 39.9758L58.71 40.2093L59.7493 39.1092L59.6575 39.218C60.1034 38.8636 60.7436 38.0196 61.4867 37.2915C61.6454 37.0965 61.9704 36.7357 62.299 36.3709C62.4629 36.1881 62.6278 36.0042 62.7742 35.8406C62.8448 35.76 62.9111 35.6846 62.9706 35.6167C63.004 35.5758 63.0328 35.5395 63.0553 35.5091C63.1433 35.3913 63.135 35.3649 62.9903 35.4618C62.9814 35.4659 62.9675 35.4754 62.9526 35.4855C62.9642 35.4765 62.9756 35.4678 62.9868 35.4591C63.0768 35.3887 63.169 35.3065 63.1973 35.1918C63.2287 35.0806 63.2083 34.9563 63.1464 34.8604C63.0823 34.7648 62.9865 34.6998 62.9073 34.6247L62.8722 34.5928L62.8106 34.532C62.7695 34.4911 62.7281 34.4497 62.6862 34.408C62.6036 34.3234 62.5193 34.2372 62.4329 34.149C62.4329 34.149 62.6397 34.3927 62.8465 34.6365C62.8881 34.6914 62.9295 34.7462 62.9606 34.7876C62.9761 34.807 62.9875 34.8243 62.9943 34.8371C63.0018 34.8494 63.0061 34.8565 63.0061 34.8565C62.8294 34.7223 62.5001 34.3891 62.3614 34.2591C62.1942 34.1014 62.0478 33.9766 61.5865 33.591C61.5289 33.4746 61.3672 33.2553 61.5597 33.4062C60.1909 31.9168 58.2553 29.769 57.3745 28.9791C56.4103 27.9285 56.3662 27.6477 54.9654 26.2254C54.6664 25.9301 55.1028 26.5589 54.2297 25.5585C54.1759 25.4857 55.1636 26.4208 54.1547 25.3462C53.3709 24.6516 52.5181 23.4936 51.529 22.5568C51.0644 21.9997 50.2047 21.0915 50.4376 21.2227C51.2011 22.075 52.3109 23.2494 52.505 23.4012C52.3642 23.3217 53.0244 24.0329 52.4265 23.4429C53.5575 24.7561 53.2225 24.2282 54.2462 25.3967C54.3411 25.4509 53.7669 24.7454 53.5212 24.5231C53.5925 24.4354 55.6333 26.7259 54.7889 25.6162C53.6709 24.3939 53.1781 24.2046 52.2839 23.0648C52.7209 23.4368 53.2926 24.1396 53.869 24.5894L53.0987 23.6909L52.4625 23.1223L52.5083 23.1474C51.1634 21.5435 51.1212 21.8182 49.8175 20.4917C50.4978 21.341 49.5158 20.4512 50.0351 21.0822C49.179 20.1781 48.5675 19.4955 48.6383 19.407C50.2836 21.0508 48.8087 19.4169 50.3484 20.9167C50.1354 20.6275 50.8083 21.173 49.9444 20.221C48.9072 19.2179 50.1751 20.6074 49.1697 19.5753C49.1186 19.5054 49.0653 19.4328 49.1106 19.458C48.6201 19.0136 48.5989 18.8741 48.0095 18.3317L48.1542 18.455C47.5276 17.6779 47.3659 17.7163 46.8372 17.0361C47.0123 17.3477 46.402 16.6662 46.0076 16.3161C46.5731 16.9736 46.8098 17.4046 47.9723 18.6512C48.157 18.754 48.0972 18.6358 48.5944 19.1264L47.8361 18.3189C48.0059 18.4864 48.1411 18.6076 48.2989 18.7588L48.9987 19.5652C48.0501 18.6092 48.4226 19.115 47.9865 18.7444C47.1672 17.8167 47.282 18.0096 46.769 17.4238C46.8876 17.4101 45.2636 15.5546 44.3398 14.4652C44.489 14.6283 44.6815 14.8388 44.7854 14.9525C45.5286 15.6659 44.3575 14.3716 44.3495 14.324L43.8054 13.8068C43.9062 13.9059 44.0547 14.0332 43.8458 13.7876C43.1414 13.0525 43.1165 13.1664 42.4131 12.433C42.3973 12.338 43.0365 12.91 42.6258 12.4251C42.509 12.2309 42.1211 11.6303 41.1708 10.6726C41.092 10.6172 40.8462 10.3685 40.5642 10.0767C40.6045 10.1159 40.654 10.1665 40.6739 10.1824L40.1034 9.4808C40.6848 9.97588 41.1253 10.6479 41.7094 11.1454L41.8123 11.13C42.219 11.569 42.7964 12.1382 43.0804 12.3795C42.4708 11.6992 42.3248 11.5747 41.6197 10.8391C41.5597 10.6943 42.0753 11.192 42.1497 11.2636L42.0128 11.1881C42.7908 12.1337 43.3047 12.4626 44.3223 13.586C44.4753 13.7565 44.3762 13.6587 44.3306 13.6332C45.2201 14.4719 45.9595 15.4389 46.8439 16.2329L46.549 15.9811C47.1283 16.5463 48.2611 17.6514 49.3929 18.7555L49.4244 18.7403C49.3186 18.5961 49.7219 19.0338 49.9295 19.2785L49.9281 19.2776C50.4945 19.8325 51.0389 20.3657 51.4842 20.8019C51.3625 20.6401 51.2006 20.4395 51.0047 20.2207C50.809 20.0672 49.8414 18.974 49.9162 19.1865C49.4958 18.6527 48.7065 17.9137 48.3937 17.5258C48.9664 18.2291 47.9103 17.1275 47.7697 17.0479C47.6025 16.784 46.8603 16.0715 46.9919 16.102C46.8845 15.9571 47.2581 16.4639 47.549 16.7114C48.2379 17.3519 46.4184 15.3979 47.2623 16.2111C46.2109 15.1531 44.8889 13.6905 43.794 12.6103L44.3592 13.2667C43.9011 12.7554 42.7879 11.5773 42.7306 11.4614C43.0825 11.8287 43.4861 12.2662 43.9389 12.7332C44.0187 12.6934 42.8753 11.5844 42.8619 11.4923L41.4801 10.2079L42.0398 10.8196C41.6498 10.4747 40.5158 9.15661 39.6515 8.20512C40.2319 8.65984 40.9698 9.62517 41.9195 10.5824C42.6165 11.2701 41.5847 10.0542 42.235 10.7155C42.0898 10.5186 41.6761 10.076 41.4529 9.87828L41.2184 9.5936C41.8537 10.1236 43.0995 11.5047 44.0019 12.3451C43.9204 12.2738 43.8479 12.2132 43.8162 12.197C44.4348 12.9262 45.0928 13.6351 45.7425 14.2956C45.432 13.9107 45.2844 13.7847 45.0853 13.5878C45.0797 13.5429 45.6825 14.1778 45.9276 14.3997C45.3623 13.743 45.8609 14.2352 45.5019 13.8213C45.9011 14.2154 46.2056 14.5553 46.6634 15.0666C46.8775 15.357 46.4259 14.8917 46.4394 14.9835C46.9404 15.4785 47.0737 15.8081 47.8167 16.5215C46.8986 15.4967 48.1408 16.7026 48.4864 17.0241L48.3325 16.8522C48.6704 17.1266 48.9234 17.3963 49.0895 17.6589C48.6901 17.2646 48.3325 16.8522 48.3983 17.0159C48.6525 17.2867 48.9059 17.5564 49.2045 17.8512L48.9137 17.6038L50.1767 18.9494C50.4131 19.123 50.7979 19.4239 51.0273 19.5514C51.2939 19.9134 51.7412 20.3353 52.0397 20.6295L51.8912 20.503C52.4122 21.1357 53.6698 22.4364 53.807 22.5124C54.1723 22.9716 50.8011 19.7234 53.6253 22.7087C54.6875 23.8557 54.3933 23.3083 55.0362 23.9233C55.0362 23.9233 54.9912 23.8981 55.0443 23.9706C55.5014 24.4812 55.5884 24.4878 55.9876 24.882C55.7251 24.5634 55.3222 24.1261 55.1767 24.0023C55.3612 24.1053 56.1406 25.0526 56.5318 25.3992C56.0011 24.9741 57.4039 26.3983 57.01 26.0488C57.89 27.0954 58.9325 28.1044 59.4686 28.5742C60.0093 29.3452 60.5797 29.7504 61.5576 30.8934C61.4039 30.7215 61.107 30.4288 60.8975 30.1823C60.2626 29.6145 61.9234 31.3531 60.9803 30.442C61.1798 30.6392 61.0229 30.4251 60.8184 30.2228C60.4698 29.8593 60.1231 29.5368 60.1842 29.6565L60.9653 30.6053L60.6625 30.3066L61.8543 31.7393C61.8995 31.7643 61.7951 31.622 61.7414 31.5492C62.2767 32.1513 62.8506 32.7752 63.4256 33.3929C63.5745 33.5543 63.6925 33.6727 63.9043 33.9206C63.9995 34.0303 64.0947 34.1397 64.1894 34.2488L64.2986 34.4296L64.3783 34.6281C64.4672 34.9006 64.4717 35.2033 64.3912 35.4735C64.3728 35.5412 64.3426 35.6042 64.3192 35.6697C64.294 35.7345 64.2523 35.7891 64.22 35.849C64.1468 35.9642 64.0514 36.0662 63.9692 36.1744C63.5818 36.593 63.2111 36.994 62.8667 37.3662C62.7809 37.7927 59.784 40.8408 58.8453 42.0603C59.0779 41.7128 59.1514 41.4647 58.9478 41.6152C59.1719 41.359 59.5814 40.7817 60.1169 40.2309C60.225 40.1676 60.8987 39.5001 60.5115 39.9798C61.9386 38.3997 60.2483 40.118 60.6173 39.595C59.0317 41.3411 58.1833 42.4534 57.2092 43.5845L57.1654 43.5924L56.4372 44.4543C57.0708 43.7917 57.1275 43.9195 56.2933 44.7547L56.3868 44.6444C55.8917 45.1001 54.9814 46.1772 54.2598 46.9448L53.8251 47.5242C53.1023 48.2928 52.9773 48.2244 52.6878 48.4154C51.5573 49.6227 50.9856 50.4075 50.2333 51.3198C49.8312 51.6655 48.1383 53.4742 48.9801 52.4564C48.0026 53.5911 48.4273 53.6079 46.5669 55.3551L46.9784 54.8245C45.3244 56.6299 43.0326 59.2772 42.225 60.0598C42.6959 59.2432 40.0037 62.147 39.5687 62.3155C39.6828 62.261 39.069 62.9474 38.995 63.0642C38.8419 63.1944 38.5981 63.4234 38.3851 63.7158C39.0614 63.0456 38.0744 64.3649 39.2573 62.9648C38.7259 63.7459 37.9926 64.6999 36.614 66.1797L36.5764 66.0944L37.6811 64.9388C37.5283 65.0111 38.0911 64.41 38.3006 64.1405C36.2459 66.2905 38.4289 63.7072 36.3694 65.9494C36.2075 66.206 36.3212 66.0494 35.799 66.6461C36.0497 66.371 36.0551 66.2783 35.647 66.7177L35.3025 67.1905C34.4836 67.8657 36.4342 65.8309 35.75 66.4227C36.5025 65.5105 37.8606 63.99 37.5287 64.1881C36.1981 65.5676 36.4953 65.6059 35.0984 67.0424L34.9217 67.165C34.4637 67.7065 34.4376 67.8454 34.2062 68.1625C34.1644 68.1686 34.0292 68.2856 33.7159 68.6129C33.6236 68.7319 33.5351 68.8457 33.4498 68.9556C33.3761 69.0573 33.2536 69.1878 33.1428 69.3089C32.9119 69.5561 32.6936 69.7899 32.4778 70.0209L32.31 70.1979C32.2819 70.2256 32.2537 70.2616 32.2253 70.2827L32.1395 70.3411C32.0198 70.4107 31.885 70.467 31.7389 70.4898C31.4476 70.5368 31.1153 70.4711 30.8373 70.2697C31.1975 70.5662 31.6308 70.5974 31.9336 70.5082C31.9731 70.4985 32.0103 70.4863 32.0448 70.4706C32.0794 70.4552 32.1164 70.4449 32.1465 70.4253C32.1779 70.4078 32.2087 70.3904 32.239 70.3735C32.2694 70.3448 32.2992 70.3164 32.3286 70.2887C32.4459 70.1778 32.5554 70.0743 32.6584 69.9769C32.8664 69.7847 33.0486 69.6162 33.2183 69.4593C33.3045 69.3813 33.3876 69.3062 33.4692 69.2324C33.5376 69.1672 33.585 69.1164 33.6436 69.0583C34.0914 68.607 34.5481 68.1477 35.5465 67.0098C35.2492 67.3833 33.8228 68.9632 33.8145 69.1461L33.7753 69.0622L33.6558 69.2035L33.5959 69.2743C33.5848 69.2868 33.5787 69.2961 33.5633 69.3114L33.5159 69.358C33.3881 69.483 33.2597 69.6084 33.1304 69.7347C32.8654 69.989 32.5964 70.2474 32.319 70.5137C32.248 70.5939 32.1797 70.6146 32.108 70.6497C32.0328 70.6774 31.9558 70.7031 31.8725 70.7193C31.7076 70.75 31.5283 70.7511 31.3494 70.7126C30.989 70.644 30.6406 70.3865 30.4375 70.039C30.4401 70.0373 30.4653 70.0924 30.528 70.1594C30.5576 70.194 30.5912 70.2349 30.6347 70.2734C30.6554 70.2933 30.6769 70.3137 30.6986 70.3347L30.7714 70.3906C30.8686 70.466 30.9787 70.5228 31.0625 70.5597C31.1034 70.5809 31.1409 70.5893 31.1661 70.5981C31.1915 70.606 31.2061 70.6106 31.2061 70.6106C30.9558 70.529 30.7345 70.375 30.5822 70.1824C30.5051 70.0881 30.4395 69.9846 30.3939 69.8805C30.3444 69.7749 30.3076 69.6829 30.3078 69.537C30.2753 69.0041 30.2522 68.5075 30.2297 68.0359L30.2212 67.86C30.2205 67.8329 30.2173 67.7968 30.2181 67.7777L30.2198 67.7166C30.2217 67.6352 30.2236 67.5545 30.2255 67.4738C30.2284 67.3127 30.2297 67.153 30.2281 66.9929C30.225 66.6728 30.2108 66.3514 30.1764 66.0168C30.169 66.4897 30.1715 66.8735 30.184 67.1655C30.1473 66.292 30.1556 65.1961 30.1695 64.2469L30.0334 62.2828C30.0744 62.3 30.0767 61.0554 30.142 61.6558C30.2047 60.2417 30.0819 59.575 30.0614 58.758C30.149 57.3099 30.1004 60.0124 30.2144 60.1544C30.2525 58.1592 30.2179 56.0447 30.1439 54.9189C30.1273 55.3257 30.1131 55.5234 30.0931 55.5028C30.119 55.4425 30.1123 54.6386 30.1131 54.1903C30.1131 54.1903 30.1098 54.1711 30.1047 54.1422C30.0997 54.1132 30.093 54.0681 30.0862 54.0637C30.0728 54.0368 30.0595 54.0102 30.0595 54.0102C30.0958 53.7386 30.1273 53.7182 30.1676 53.9907C30.173 53.8258 30.1481 53.6591 30.1334 53.5103C29.9728 53.5252 29.8423 53.5304 29.7111 53.4901C29.8548 53.4698 30.0212 53.4605 30.1831 53.4565C30.1875 53.6611 30.1848 53.8722 30.1845 54.052C30.1855 54.2395 30.1862 54.4129 30.187 54.5658C30.1894 54.729 30.1934 54.8703 30.2004 54.9827C30.195 54.7165 30.1923 54.4777 30.192 54.2602C30.1925 54.1763 30.1928 54.0963 30.1933 54.0199C30.1948 53.9742 30.1962 53.9303 30.1975 53.8882C30.2048 53.7182 30.219 53.5649 30.2347 53.4006C30.0676 53.377 29.8861 53.3498 29.618 53.3339C29.497 53.3309 29.3687 53.3276 29.2311 53.3243C29.0898 53.3231 28.9389 53.3217 28.7764 53.3204C28.4514 53.32 28.08 53.3241 27.6458 53.3347C27.609 53.307 28.1148 53.2532 27.5394 53.2525C26.2062 53.2738 27.1911 53.3717 26.7747 53.4361C27.8009 53.4001 28.2784 53.4354 28.874 53.5085L28.6003 53.5554C28.5587 53.5309 27.9144 53.5298 27.7245 53.5061L27.5586 53.6019C27.6351 53.496 26.6042 53.4153 25.7937 53.4548C26.6126 53.5316 26.3914 53.5276 26.6142 53.6483C25.4747 53.7626 25.3284 53.536 24.0512 53.6571C24.1469 53.623 25.262 53.5976 24.2986 53.5716C23.5009 53.5671 23.6073 53.6495 23.0723 53.6758C23.6748 53.5877 23.5201 53.522 24.1731 53.4173C25.5901 53.4062 24.7447 53.4185 26.1298 53.38L24.9573 53.3054C26.1581 53.291 25.8305 53.2044 25.9294 53.1706C23.8789 53.0808 24.384 53.3047 23.0648 53.2816C22.4289 53.342 24.3006 53.2944 23.3058 53.3577C22.072 53.3449 23.0245 53.4153 21.6398 53.4536L21.8717 53.4131C21.4484 53.3606 21.03 53.4252 20.5401 53.4342C20.0015 53.4609 21.1501 53.7408 18.9353 53.7469C19.0437 53.7223 19.0836 53.7067 19.0836 53.6964L21.244 52.955C19.0001 52.9568 16.4142 52.9362 13.8156 52.8866C13.2036 52.7417 15.6705 52.7671 15.5114 52.7017L16.6965 52.7314C16.6301 52.7929 14.2133 52.7503 15.2837 52.8589C17.3767 52.8148 18.3264 52.8854 20.3119 52.7588C19.6951 52.6136 17.6967 52.7846 16.4051 52.6723C16.9475 52.6818 17.4053 52.6657 17.85 52.645C16.637 52.6259 15.339 52.6056 13.9592 52.584L13.6492 52.6191C14.5792 52.6355 15.2226 52.6478 15.3056 52.6531C14.0725 52.6404 13.0325 52.7208 12.9505 52.827L13.1695 52.8307L12.7239 52.8638C12.4373 52.8593 12.148 52.8525 11.8603 52.8457ZM30.7759 9.00954C30.7854 9.09042 30.7964 9.15424 30.8101 9.20152C30.7958 9.15272 30.7864 9.20726 30.7759 9.00954ZM31.0825 58.2313C31.1003 56.381 31.1183 54.5152 31.1355 52.7373C31.1108 53.1971 31.087 53.6397 31.065 54.0505C31.0412 54.396 31.0194 54.7146 31.0001 54.9941C30.959 55.5503 30.9225 55.9494 30.8923 56.0914C30.862 56.2334 30.838 56.1184 30.8215 55.6463C30.8134 55.4103 30.8072 55.0851 30.8031 54.6579C30.8017 54.2504 30.7998 53.7459 30.7976 53.1323L30.7836 52.8346C30.7717 53.1559 30.765 53.5723 30.7631 54.0321C30.7612 54.5316 30.7639 55.102 30.7709 55.6448C30.8053 56.086 30.8859 57.0188 30.9604 57.8372C30.9994 58.2462 31.0355 58.6269 31.0617 58.9035C31.0897 59.1799 31.1097 59.3521 31.1153 59.3444C31.1697 59.0317 31.1103 58.5761 31.1269 58.0077L31.0825 58.2313ZM30.757 59.495C30.7353 60.5024 30.7784 60.2731 30.8172 60.4294C30.8123 60.0748 30.8073 59.7209 30.8025 59.3709C30.7926 59.5048 30.7789 59.5708 30.757 59.495ZM30.8559 60.369C30.8569 60.2558 30.8587 60.1593 30.8639 60.1086L30.8559 60.369ZM19.8583 52.6811C19.8998 52.6801 19.9147 52.6796 19.954 52.6786C19.7339 52.6754 19.5133 52.6722 19.283 52.6688C19.3723 52.6754 19.5425 52.6806 19.8583 52.6811ZM21.7503 52.7838L21.9715 52.7071C21.7664 52.7042 21.5569 52.7012 21.3425 52.6983C21.4133 52.7329 21.4872 52.7632 21.7503 52.7838ZM27.8314 53.0359C28.2148 52.9438 29.4989 52.9396 29.5776 52.8334C29.6595 52.8061 29.3894 52.7958 29.0862 52.787C28.748 52.7841 28.3869 52.7812 28.004 52.778C27.9908 52.7936 27.9147 52.8079 27.7876 52.8218C28.1658 52.8351 28.4183 52.8614 28.2651 52.9268C27.2931 52.7844 27.3942 53.0281 26.3434 52.9916C26.0092 53.0666 27.513 53.0659 27.8314 53.0359ZM53.1836 23.011C53.1686 22.9818 53.1117 22.8865 53.0292 22.7553L53.5869 23.2838C54.5054 24.309 55.1533 25.2253 56.0797 26.0405C56.4514 26.4888 56.6164 26.7658 56.7798 27.0238C56.59 26.8127 56.4136 26.6141 56.2692 26.4456C53.7875 24.0356 55.1736 24.9751 53.1836 23.011ZM63.7197 34.7165C63.6903 34.6562 63.6581 34.6232 63.6354 34.6039C63.6139 34.584 63.6029 34.5766 63.6029 34.5766C63.7633 34.7496 63.8456 35.0054 63.8081 35.2398C63.7881 35.3551 63.7526 35.4698 63.6876 35.5608C63.6293 35.6579 63.5509 35.735 63.4836 35.8218C63.2906 36.0511 63.102 36.2752 62.9179 36.4939C62.73 36.7141 62.5469 36.9287 62.3684 37.1375C62.0081 37.5517 61.6678 37.943 61.3487 38.3097C60.7062 39.0385 60.1414 39.6602 59.6719 40.1632C59.9406 39.9822 60.9886 38.9343 61.4884 38.4392L61.1215 38.9603L60.8112 39.1977L60.1265 40.0508C60.3714 39.8699 60.9586 39.218 61.3862 38.8202C61.4097 38.7709 62.6164 37.3216 62.937 36.8984L61.8793 37.9553C61.9986 37.8406 62.2934 37.5256 62.6354 37.1532C62.9837 36.7689 63.3828 36.3286 63.6997 35.979C63.8548 35.7941 63.995 35.6415 64.0414 35.4804C64.0311 35.4726 64.0047 35.5393 63.9359 35.6263C63.8708 35.7161 63.7611 35.8223 63.6475 35.941C63.5726 36.0177 63.4936 36.0989 63.4158 36.1788C63.3451 36.2529 63.2765 36.3272 63.2161 36.3963C63.0948 36.5344 63.0043 36.6519 62.989 36.7073C62.835 36.7813 63.9022 35.627 63.1811 36.307C63.2919 36.1727 63.4165 36.0272 63.5531 35.8722C63.6479 35.7631 63.7518 35.6559 63.8329 35.5248C63.9086 35.3891 63.9476 35.2302 63.9534 35.0679C63.9486 34.9055 63.9072 34.7452 63.8304 34.6058C63.7448 34.4729 63.6362 34.3621 63.5351 34.2475C63.1293 33.7916 62.7714 33.3794 62.5287 33.0972L62.5011 32.9117C61.8836 32.1836 61.9781 32.5341 61.2528 31.6601C62.2098 32.6641 61.1723 31.4026 61.9278 32.2074C61.7156 31.9191 61.999 32.1197 61.242 31.3133C60.5211 30.7402 60.5095 30.3925 59.8339 29.8444C59.4684 29.3852 60.3165 30.2419 59.5517 29.3879C58.6098 28.4781 58.6253 28.5727 58.5006 28.588C59.315 29.5103 59.5278 29.503 60.1929 30.2585L58.7175 28.9208C58.9508 29.2092 59.134 29.411 59.294 29.5736C59.0145 29.2866 58.7653 29.0552 58.5428 28.8673C58.4172 28.7589 58.3012 28.6593 58.1943 28.5669C58.9626 29.3987 59.6437 30.1384 59.7348 30.3009L59.5951 30.2225C59.8364 30.5501 60.3044 31.0035 60.5336 31.1978C61.2258 31.9379 61.9603 32.6302 62.067 32.8401L61.775 32.5908C62.2031 33.0432 62.4412 33.2945 62.7068 33.5747C62.8389 33.7159 62.9776 33.8642 63.1506 34.0487C63.2322 34.1367 63.322 34.2329 63.4226 34.3412C63.5159 34.4474 63.6398 34.5517 63.7197 34.7165ZM36.5 64.7282C37.1362 64.3073 37.8109 63.8141 40.1828 61.204L40.003 61.4167C41.2867 60.1969 42.2523 58.7644 43.8059 57.2714C43.1403 58.0912 43.1745 58.0452 42.4945 59.0099L43.2237 58.1464C43.0792 58.4478 43.8065 57.5866 44.3704 56.9842L43.9554 57.6054C43.5959 57.9441 42.7153 58.8778 42.7592 58.8699C42.9414 58.6539 41.5067 60.0056 40.8006 60.819C40.9298 60.7962 42.4481 59.1082 41.8487 59.9468C42.4178 59.2518 42.547 59.2289 43.1614 58.5236C42.5911 59.2203 43.0848 58.7659 42.672 59.2974L43.6923 58.1548C43.7375 58.145 42.2194 59.8332 43.1372 58.9851C43.525 58.5047 44.672 57.342 44.6337 57.2575L44.6772 57.2493C45.4684 56.4214 44.9372 56.79 45.9265 55.7926C45.9086 55.7487 45.7059 55.9239 45.3695 56.3006C45.0929 56.6275 45.0887 56.7189 44.5004 57.372C44.1875 57.6116 45.2254 56.6009 44.7344 56.9649C44.4901 57.1457 43.1933 58.7022 43.5426 58.1371L44.3325 57.3107C44.294 57.2261 44.8601 56.6213 44.7975 56.5877C45.2512 56.0509 45.7654 55.637 46.2001 55.0575C46.364 54.799 45.942 55.1035 46.7756 54.2687C47.4895 53.6838 49.3219 51.6671 50.002 50.9055L50.5711 50.2101C50.4836 50.2272 49.4178 51.4669 49.7604 50.9961L50.6917 49.9594L50.6412 50.0624C50.9593 49.7292 51.2558 49.3571 51.5287 49.0344C51.2764 49.3979 50.5781 50.1161 50.7742 50.0354C51.23 49.5688 51.3201 49.52 51.7169 49.0661C51.632 49.1671 51.5612 49.2564 51.5811 49.2534C52.5056 48.311 52.3804 48.2425 52.5861 47.9777C53.41 46.9161 51.6023 48.8821 51.6553 48.6898L54.2586 45.8039C54.0533 46.0687 53.8459 46.335 53.9559 46.2699C54.6306 45.6015 54.0178 46.3051 54.9228 45.3205C54.775 45.3006 56.0142 44.0289 56.6078 43.2838C56.9415 42.9967 57.01 42.9375 56.3556 43.6466C56.4847 43.6237 57.3439 42.6506 57.6615 42.3176C57.8293 42.1072 58.1306 41.7648 58.3145 41.5402C58.0251 41.7948 58.1034 41.6371 58.6486 40.9984L58.6704 40.9504C57.7243 41.9409 56.2179 43.4417 55.6892 44.1324L55.8275 43.9251C54.7029 45.0397 53.5786 46.5649 52.9797 46.9921C52.9851 46.8989 52.7537 47.2162 52.7143 47.1328L51.9661 48.0397L52.1048 47.8327L50.7678 49.3061L50.7925 49.2558C50.2051 50.008 49.7451 50.5973 49.3773 51.0682C49.4012 51.0973 49.4509 51.0606 49.2556 51.3121C49.0536 51.5577 48.8926 51.7357 48.7442 51.889C48.7433 51.8904 48.7433 51.8904 48.7434 51.8905L48.7431 51.8902C48.4044 52.2402 48.1473 52.4393 47.7244 52.8641L48.9734 51.5007C49.0326 51.3435 48.8809 51.4105 48.2356 52.0425C48.4856 51.769 48.5572 51.6189 48.2409 51.95C48.2179 51.9991 47.4458 52.8687 47.7806 52.5813C46.6037 53.8872 44.5597 55.8513 42.8308 57.897C44.0825 56.4377 41.7303 58.9613 43.1569 57.3813C42.0797 58.3961 42.3575 58.3922 41.319 59.4911C41.2065 59.559 41.8817 58.89 42.0689 58.582C40.3328 60.3985 39.2978 61.8179 37.6239 63.5816L37.4994 63.5998C37.1934 63.9456 36.8536 64.3293 36.5 64.7282ZM33.2975 68.3343C33.0029 68.6657 32.7042 69.0021 32.4006 69.3438C32.4301 69.3129 32.4576 69.2844 32.4886 69.2522C32.4886 69.2522 32.434 69.3168 32.3525 69.4139C32.2687 69.508 32.1673 69.6574 32.0187 69.7418C31.8737 69.8308 31.704 69.8585 31.5815 69.8474C31.5194 69.8442 31.4697 69.8306 31.435 69.8203C31.3995 69.8124 31.3811 69.803 31.3811 69.803C31.5612 69.9051 31.7539 69.9144 31.8923 69.8897C32.032 69.8658 32.1248 69.8041 32.1605 69.7906C32.1959 69.7729 32.1898 69.8073 32.105 69.8832C32.0236 69.9549 31.8387 70.0802 31.5289 70.0471C31.584 70.0407 31.5265 70.0101 31.5092 69.9895C31.5003 69.9792 31.5014 69.9713 31.53 69.9694C31.5584 69.9694 31.6151 69.9721 31.7184 69.9635C31.5267 69.9672 31.262 69.8774 31.0947 69.6469C31.0111 69.535 30.9544 69.398 30.9292 69.2598C30.9028 69.1208 30.915 68.9827 30.9137 68.8584C30.9167 68.3638 30.8967 68.0281 30.8444 68.286C30.8722 68.6931 30.875 68.9116 30.8697 69.0517C30.8642 69.1907 30.8597 69.242 30.8456 69.2849C30.837 69.327 30.824 69.3594 30.8408 69.4556C30.8556 69.5014 30.8712 69.5671 30.9223 69.6452C30.97 69.7241 31.0475 69.8222 31.1822 69.9046C31.035 69.8239 30.9155 69.6912 30.8425 69.5358C30.7651 69.38 30.7515 69.2091 30.7497 69.0215C30.7369 68.6539 30.729 68.2904 30.7039 67.9321C30.7439 68.3044 30.7736 68.2402 30.8011 67.9744C30.8278 67.7058 30.8586 67.2615 30.8725 66.7535C30.8539 66.315 30.8717 65.1283 30.8412 64.3998C30.7709 64.6595 30.7306 64.0251 30.7129 65.2124C30.6945 64.7767 30.6798 64.1027 30.7161 63.3477C30.7281 63.6471 30.7369 64.1707 30.7623 64.1344C30.827 63.6471 30.8242 63.0764 30.8519 62.7616C30.8481 62.5105 30.8444 62.2571 30.8406 62.0106C30.8344 62.0842 30.8265 62.1478 30.8164 62.1933L30.7544 61.359C30.7875 62.4704 30.7219 61.8726 30.6806 61.8584C30.7629 61.8883 30.6912 61.143 30.6886 60.7626L30.6015 61.5889C30.5579 61.1896 30.6644 60.1787 30.5783 60.3874C30.5437 62.1406 30.5586 62.8146 30.5845 64.4002L30.6522 63.7565C30.7 65.5453 30.5362 64.8598 30.5395 66.8669C30.555 67.0755 30.563 67.3684 30.5681 67.6913C30.5692 67.7335 30.5684 67.7681 30.5711 67.8179C30.5736 67.8674 30.5761 67.9172 30.5786 67.9674C30.5834 68.0675 30.5883 68.1688 30.5931 68.2703C30.6028 68.4724 30.6123 68.6752 30.6215 68.8705C30.6264 68.9676 30.6311 69.0629 30.6356 69.1552C30.643 69.2449 30.6379 69.3423 30.6601 69.4114C30.6937 69.5588 30.7539 69.6907 30.8276 69.7842C30.9694 69.9792 31.1217 70.0353 31.1401 70.0138C31.0845 69.9806 31.1119 70.0314 31.2158 70.0996C31.3167 70.17 31.5055 70.2499 31.7278 70.2386C31.7837 70.2406 31.8384 70.2242 31.8962 70.2165C31.9503 70.1969 32.0097 70.1846 32.0611 70.1552C32.1161 70.1319 32.1651 70.0984 32.2136 70.0635C32.2623 70.0274 32.3094 69.9721 32.3569 69.9274C32.5456 69.7384 32.7247 69.5522 32.8555 69.4016C32.9251 69.3124 33.0125 69.2067 33.1098 69.0919C33.1567 69.0357 33.2139 68.972 33.2586 68.916C33.3036 68.8602 33.3501 68.8027 33.3976 68.7437C33.5887 68.5095 33.799 68.2606 33.9811 68.0452C34.3451 67.6145 34.5954 67.3183 34.3494 67.5449C33.9397 67.9846 33.4439 68.6184 33.0548 68.922L33.8319 68.0486L33.2709 68.5607C33.5531 68.2887 33.4845 68.2706 33.2975 68.3343ZM24.5925 51.8078C24.5803 51.8073 24.5644 51.8066 24.5495 51.8061C24.5659 51.8063 24.582 51.8063 24.5973 51.8065L24.5925 51.8078Z" fill="white"/>
<path d="M41.3187 10.5943C41.0722 10.3706 40.5147 9.7606 40.5817 9.92586C40.6153 9.86012 41.5906 11.0012 41.3187 10.5943Z" fill="white"/>
<path d="M40.7047 9.82025C40.6541 9.78971 40.6634 9.83881 40.4102 9.56903L41.1148 10.304L40.7047 9.82025Z" fill="white"/>
<path d="M40.3167 8.71278C39.9244 8.36459 39.6783 8.14135 39.1209 7.53209C39.0253 7.18051 40.0708 8.48938 40.4322 8.64828C39.4153 7.52601 38.9995 7.29365 38.1445 6.39056C38.5153 6.89496 40.1986 8.77374 40.3167 8.71278Z" fill="white"/>
<path d="M40.9292 9.04917L40.332 8.45972L40.3815 8.52791L40.9793 9.11804L40.9292 9.04917Z" fill="white"/>
<path d="M52.3047 23.5038C52.3203 23.5983 52.7116 23.9446 52.9114 24.1415C52.7584 23.9712 52.5506 23.7264 52.3047 23.5038Z" fill="white"/>
<path d="M22.7539 20.8712L28.9191 20.8196C27.1452 20.8345 25.5073 20.8481 22.7539 20.8712Z" fill="white"/>
<path d="M60.4996 38.2945C61.0253 37.6927 61.4059 37.2346 61.7821 36.7841C61.971 36.5597 62.1587 36.3369 62.3609 36.0968C62.4631 35.9781 62.5692 35.8552 62.6807 35.7255C62.737 35.6612 62.7946 35.5953 62.8542 35.5274C62.8824 35.4938 62.9113 35.4596 62.9415 35.4239C62.9659 35.3913 63.0065 35.3528 63.0388 35.3035C63.0024 35.3464 62.9595 35.3777 62.9251 35.4121C62.9049 35.4312 62.8852 35.4499 62.8659 35.4683L62.8306 35.5035L62.7687 35.568C62.6877 35.6541 62.6099 35.7368 62.5348 35.8169C62.3857 35.9783 62.2493 36.1309 62.1217 36.2773C61.8667 36.5701 61.6471 36.8376 61.4309 37.0997C60.9987 37.6238 60.5807 38.1255 59.9218 38.7617L60.4996 38.2945Z" fill="white"/>
<path d="M60.6143 37.5382C60.876 37.4015 59.7906 38.6006 60.01 38.4703C60.7823 37.5994 60.3129 38.0033 61.0346 37.2356L60.6143 37.5382Z" fill="white"/>
<path d="M62.1191 31.806L62.5093 32.1517L62.2107 31.8567L62.1191 31.806Z" fill="white"/>
<path d="M55.3477 43.3691L55.4618 43.2129L54.8535 43.8237L55.3477 43.3691Z" fill="white"/>
<path d="M55.5632 43.0582L55.4493 43.2125L55.5632 43.0582Z" fill="white"/>
<path d="M62.7192 32.1423L62.2061 31.5563L61.9141 31.3077L62.7192 32.1423Z" fill="white"/>
<path d="M61.7129 38.3036L62.1632 37.7704C62.0739 37.8762 61.4005 38.5437 61.7129 38.3036Z" fill="white"/>
<path d="M51.7298 47.2119L51.1817 47.86L51.2472 47.8038L51.7934 47.1579L51.7298 47.2119Z" fill="white"/>
<path d="M58.2031 42.4972C58.5811 42.2012 57.2756 43.5291 57.9923 42.8544C58.5811 42.2012 58.3119 42.4334 58.2031 42.4972Z" fill="white"/>
<path d="M50.9234 49.6027C50.8461 49.6865 50.7662 49.7766 50.6934 49.8679C50.7842 49.7634 50.8601 49.6757 50.9234 49.6027Z" fill="white"/>
<path d="M50.918 49.603C51.1682 49.3329 51.438 49.0844 51.5944 48.8831C51.2593 49.1942 51.1546 49.3265 50.918 49.603Z" fill="white"/>
<path d="M48.073 52.7118L48.3034 52.4708C48.0975 52.7488 48.2034 52.626 48.3897 52.3802C48.6281 52.1185 48.5981 52.1155 48.6155 52.0724C48.657 52.0133 48.6981 51.9547 48.743 51.8908C48.6759 51.9785 48.6158 52.0572 48.5647 52.1241C48.192 52.526 47.9675 52.7743 48.073 52.7118Z" fill="white"/>
<path d="M36.5529 63.2661C37.4094 62.3822 37.6355 62.1581 37.6304 62.2509C38.438 61.4058 38.2454 61.4641 38.7085 60.9285C37.8169 61.909 37.6144 62.0875 36.5529 63.2661Z" fill="white"/>
<path d="M38.711 60.9286C38.8108 60.8186 38.9059 60.7133 39.0215 60.5855C38.8895 60.7258 38.7942 60.8326 38.711 60.9286Z" fill="white"/>
<path d="M51.8552 49.5703L51.3965 50.1991L51.579 49.9836L51.8552 49.5703Z" fill="white"/>
<path d="M35.2867 64.5872C35.4446 64.4222 35.6917 64.1516 35.8277 64.0345C35.8319 63.9426 35.1292 64.7517 35.2867 64.5872Z" fill="white"/>
<path d="M39.3164 61.9519C39.4261 61.8867 39.9472 61.2913 40.1747 61.0657C39.8567 61.3986 39.5275 61.5937 39.3164 61.9519Z" fill="white"/>
<path d="M33.0469 67.3632C33.2047 67.1981 33.4706 66.9697 33.4006 67.1173C33.6063 66.8524 33.8403 66.4457 33.0469 67.3632Z" fill="white"/>
<path d="M37.7734 63.5978L37.9067 63.4835L38.4539 62.8365L37.7734 63.5978Z" fill="white"/>
<path d="M40.4086 62.0322C41.005 61.2832 39.27 63.0122 40.3394 61.7678C38.857 63.2617 40.5174 61.7228 39.4532 62.8566C40.088 62.2052 40.4519 61.9433 40.4086 62.0322Z" fill="white"/>
<path d="M39.457 62.8561C39.3647 62.9506 39.2658 63.0545 39.1602 63.1686C39.2786 63.0438 39.3742 62.9432 39.457 62.8561Z" fill="white"/>
<path d="M30.6739 67.5861C30.6783 67.6577 30.6819 67.718 30.6851 67.7718C30.6908 67.831 30.6958 67.8827 30.7004 67.9326C30.6914 67.8149 30.6828 67.7025 30.6739 67.5861Z" fill="white"/>
<path d="M36.1205 66.5449L37.0142 65.4229C36.4172 66.1723 34.7909 67.9232 34.9641 67.8917C35.5044 67.3394 36.1176 66.6354 36.3464 66.321L36.1205 66.5449Z" fill="white"/>
<path d="M32.0321 59.348L32.0724 59.9862L32.0843 59.1891C32.069 59.4176 31.9941 59.0046 32.0321 59.348Z" fill="white"/>
<path d="M32.0898 59.0375L32.0898 59.1897C32.0898 59.1563 32.0898 59.1079 32.0898 59.0375Z" fill="white"/>
<path d="M31.5844 70.11C31.8211 70.1341 32.0341 70.054 32.1919 69.9195C32.3495 69.7704 32.498 69.5996 32.6547 69.4289C32.62 69.4583 32.5399 69.5348 32.4409 69.6329C32.3402 69.727 32.2291 69.8628 32.1045 69.9431C31.9783 70.0285 31.8352 70.069 31.7333 70.0806C31.6314 70.0985 31.5691 70.0919 31.5844 70.11Z" fill="white"/>
<path d="M31.8751 54.8564L31.8926 55.9098L31.8851 54.7604L31.8751 54.8564Z" fill="white"/>
<path d="M28.3391 51.4341L28.1711 51.4141L27.3633 51.452L27.5341 51.4719L28.3391 51.4341Z" fill="white"/>
<path d="M30.0497 56.3687C30.0389 57.083 30.1303 57.6408 30.1496 57.4537L30.1455 56.069C30.0655 56.4209 30.1478 56.4531 30.1277 57.2559L30.0497 56.3687Z" fill="white"/>
<path d="M2.30252 45.114C2.35596 45.4231 2.32502 46.9367 2.27424 47.0161C2.25221 46.8126 2.23111 45.9922 2.19877 46.5075L2.33002 47.705C2.2483 49.298 2.15752 46.4943 2.11127 45.7075C2.09439 47.3303 2.18064 47.8112 2.18002 49.5376C2.19174 49.0283 2.22455 48.7067 2.25267 48.4377C2.34502 48.3791 2.30408 49.9874 2.31142 51.1373C2.33142 50.7714 2.35002 50.6941 2.36799 50.7751C2.37705 50.8156 2.3858 50.8957 2.39471 50.9988C2.39877 51.0505 2.4033 51.1079 2.40799 51.169C2.41017 51.1996 2.41236 51.2312 2.41471 51.2634L2.41814 51.3122C2.41924 51.3153 2.42033 51.3163 2.42143 51.3183C2.42439 51.3288 2.42955 51.3348 2.4358 51.3381C2.44018 51.3433 2.44439 51.3477 2.44877 51.3516L2.44861 51.3394C2.45893 51.3381 2.47143 51.3315 2.48861 51.3232C2.48689 51.3195 2.48564 51.3175 2.48471 51.3119C2.48424 51.2533 2.48361 51.1957 2.48299 51.1388C2.48377 51.0252 2.48439 50.9147 2.48518 50.8074C2.48861 50.5927 2.4958 50.3908 2.50393 50.1993C2.52002 49.8165 2.53955 49.4768 2.54018 49.1663C2.39002 49.7801 2.50549 47.0511 2.45924 46.2701L2.44439 45.3684L2.44408 45.0311C2.46049 44.9632 2.48127 45.0593 2.51096 45.5734C2.48143 45.1442 2.49174 43.7127 2.44346 43.8449L2.44127 40.5781C2.44736 40.4764 2.45502 40.3746 2.4658 40.2995C2.45627 40.1864 2.44861 40.1673 2.44096 40.1823L2.43127 25.949C2.41939 26.6513 2.38518 27.2587 2.36861 27.9827C2.26892 26.896 2.35064 29.1699 2.25627 28.8511C2.22205 28.3626 2.23283 27.6477 2.2558 27.222C2.20814 27.0635 2.16596 27.6701 2.10908 27.6001C2.04924 29.3953 2.27705 29.67 2.24252 31.4249C2.18549 31.3554 2.13549 30.8128 2.1433 31.9615L2.13096 31.6696C2.19486 33.5091 2.00189 33.1026 2.15846 34.2606L2.07611 34.2302C2.13814 35.0645 2.13861 36.6879 2.15002 37.6027L2.13408 37.5482C2.22846 40.1146 2.15408 38.9888 2.19361 41.8707L2.09752 40.5445C2.05783 41.5387 2.16236 41.7628 2.15158 42.4763C2.13564 42.4252 2.07549 42.5906 2.06049 41.9168L2.20705 45.4134C2.26908 46.2478 2.26752 45.244 2.30252 45.114Z" fill="white"/>
<path d="M2.17773 49.5381C2.17768 49.723 2.17765 49.9331 2.17769 50.1813C2.17771 49.9419 2.17772 49.7357 2.17773 49.5381Z" fill="white"/>
<path d="M2.43158 24.9489L2.43159 25.9492C2.43165 25.6394 2.43167 25.3162 2.43158 24.9489Z" fill="white"/>
<path d="M3.32167 51.5323C2.76071 51.4874 3.74168 51.4694 3.83949 51.4359C3.83949 51.4359 3.33714 51.4362 2.83478 51.4367C2.71884 51.4368 2.60305 51.437 2.51602 51.4372C2.4993 51.4377 2.48867 51.4342 2.48867 51.4342C2.47367 51.4689 2.42742 51.4941 2.41211 51.5237C2.41211 51.5237 2.42711 51.5328 2.45211 51.5361C2.47727 51.5394 2.51086 51.5358 2.54368 51.5358C2.93275 51.5341 3.32167 51.5323 3.32167 51.5323Z" fill="white"/>
<path d="M2.50679 51.3546C2.48538 51.3692 2.4596 51.3697 2.44147 51.353C2.44147 51.353 2.43928 51.3802 2.45319 51.4023C2.46694 51.4247 2.49194 51.4319 2.49194 51.4319C2.50538 51.4068 2.50413 51.3825 2.50679 51.3546Z" fill="white"/>
<path d="M1.20416 52.8264C1.20057 52.8305 1.12322 52.7355 1.05072 52.6367C0.988534 52.5299 0.930721 52.4206 0.935877 52.4181C0.935877 52.4181 0.918221 52.3746 0.891814 52.3096C0.860564 52.2459 0.851189 52.1509 0.826658 52.0599C0.810564 51.8664 0.80072 51.6679 0.80072 51.6679C0.80072 51.6679 0.804939 51.75 0.811033 51.873C0.816502 51.9335 0.812439 52.0078 0.826814 52.0805C0.845408 52.1518 0.852752 52.2312 0.882127 52.3038C0.933221 52.4524 1.01072 52.5887 1.07947 52.6813C1.11588 52.7259 1.14619 52.7631 1.16744 52.7892C1.18775 52.8163 1.20525 52.8254 1.20416 52.8264Z" fill="white"/>
<path d="M0.951906 46.5266C0.903767 46.9856 0.94034 47.8567 0.952531 48.1481C0.950968 47.1443 0.969411 47.5793 0.951906 46.5266Z" fill="white"/>
<path d="M0.437042 47.7672L0.409859 46.7988L0.40033 46.8891L0.437042 47.7672Z" fill="white"/>
<path d="M3.74994 20.7494C3.89663 20.7477 4.03926 20.7459 4.18752 20.7442C3.98708 20.7439 3.85617 20.7461 3.74994 20.7494Z" fill="white"/>
<path d="M2.18315 25.8626C2.27565 23.5542 2.26002 27.375 2.37846 26.6498L2.33924 25.3937L2.37096 25.5008L2.36065 23.9688C2.30627 24.283 2.30283 24.5192 2.2458 24.4508C2.26815 22.4057 2.31362 23.8062 2.38565 22.3058C2.38565 22.3058 2.38299 21.7685 2.38049 21.2314C2.38018 21.1915 2.37393 21.149 2.38533 21.1194C2.39596 21.0905 2.41065 21.0758 2.41065 21.0758C2.40955 21.0757 2.40955 21.1103 2.40987 21.1096C2.42284 21.0885 2.42643 21.076 2.42674 21.061C2.42674 21.061 2.43955 21.0495 2.46705 21.0419C2.48096 21.039 2.49815 21.0382 2.51815 21.0379C2.55112 21.0372 2.50221 21.0363 2.72752 21.0353C3.39581 21.0318 4.2869 21.0269 5.178 21.0221C6.96019 21.0125 8.74239 21.0029 8.74239 21.0029C10.0393 20.9541 8.02504 20.8921 8.98161 20.8011C7.47832 20.8015 5.24456 20.7358 5.11691 20.8589C5.16737 20.842 5.26691 20.808 4.96222 20.7935L4.09284 20.8948L4.92191 20.9271C4.48487 20.9776 3.56049 20.997 2.68174 20.9963C2.62877 20.9958 2.57612 20.9953 2.5244 20.995C2.50487 20.9941 2.48549 20.9931 2.46674 20.9923C2.42846 20.9906 2.39143 21.0039 2.36455 21.0255C2.30846 21.0693 2.29658 21.1299 2.28377 21.154C2.26893 21.0556 2.30065 20.9897 2.32393 20.9478C2.34987 20.9068 2.37221 20.8773 2.40518 20.8619C2.43799 20.8447 2.48252 20.8374 2.56049 20.834C2.82049 20.8313 3.19237 20.8362 3.75065 20.8526C3.65018 20.8214 3.24065 20.7665 3.74425 20.7495C3.41674 20.7528 3.09331 20.756 2.77315 20.7592C2.67127 20.7601 2.56987 20.7609 2.46877 20.7618C2.41424 20.7631 2.35815 20.7582 2.30627 20.7785C2.20096 20.8123 2.12455 20.9237 2.12049 21.0407C2.11768 21.0991 2.12002 21.1576 2.11955 21.216L2.12049 21.6729C2.12315 23.0278 2.13455 24.3958 2.18315 25.8626Z" fill="white"/>
<path d="M22.345 20.7759L22.3242 20.7863C22.3716 20.7808 22.387 20.7766 22.345 20.7759Z" fill="white"/>
<path d="M21.4724 20.7623L20.1953 20.8804L22.1867 20.8708L22.3313 20.7881C22.1554 20.8091 21.4571 20.8511 21.1865 20.8187L21.4724 20.7623Z" fill="white"/>
<path d="M18.7109 20.9534C19.7393 20.9173 19.6835 20.8173 19.1224 20.7717C20.0668 20.7255 19.6206 20.8793 20.271 20.7738C20.2498 20.7016 19.0859 20.744 18.8184 20.7572L18.7109 20.9534Z" fill="white"/>
<path d="M11.1166 20.9011L11.4059 20.8607L10.6934 20.8499L11.1166 20.9011Z" fill="white"/>
<path d="M11.4063 20.86L12.1134 20.8708C12.0645 20.8404 12.0161 20.811 11.9008 20.7902L11.4063 20.86Z" fill="white"/>
<path d="M13.9648 20.8995C14.2642 20.9071 14.5955 20.9126 14.9986 20.9153L13.9648 20.8995Z" fill="white"/>
<path d="M13.1641 20.8757L13.188 20.888L13.9728 20.8994C13.6836 20.8909 13.4241 20.8833 13.1641 20.8757Z" fill="white"/>
<path d="M12.1094 20.8737C12.2242 20.9419 12.3588 21.0134 13.3814 20.9943L13.1803 20.8896L12.1094 20.8737Z" fill="white"/>
<path d="M0.534775 40.7288L0.498218 39.8542L0.48822 39.947L0.524777 40.8209L0.534775 40.7288Z" fill="white"/>
<path d="M0.601761 35.6858C0.590352 35.4695 0.578474 35.3056 0.566284 35.1568C0.573317 35.3845 0.584101 35.5657 0.601761 35.6858Z" fill="white"/>
<path d="M0.152437 31.937C0.217437 30.9089 0.238374 33.3551 0.267124 31.4514C0.327593 31.2835 0.405563 32.176 0.375406 33.0726C0.318531 33.0013 0.339 32.1991 0.280875 32.7502C0.346656 33.3455 0.301812 33.5719 0.387594 33.3645C0.441031 34.3662 0.501969 34.4777 0.557907 35.1575C0.520094 33.9466 0.60822 31.4043 0.498063 29.8679C0.394938 29.0207 0.254156 29.5344 0.105249 29.531C0.0704049 29.6585 0.0538427 31.8543 0.152437 31.937Z" fill="white"/>
<path d="M0.0422105 33.5541C0.0348669 34.03 0.0408042 34.1757 0.0531477 34.4677C0.104241 34.3891 0.0445542 33.9388 0.0422105 33.5541Z" fill="white"/>
<path d="M1.12892 22.62C1.10767 22.5293 1.08142 21.6677 1.04486 21.8529L1.07158 23.1588C1.07517 22.8523 1.10095 22.7443 1.12892 22.62Z" fill="white"/>
<path d="M1.07639 23.7312L1.06498 23.1591C1.06311 23.302 1.06607 23.4791 1.07639 23.7312Z" fill="white"/>
<path d="M1.14587 22.5602C1.1415 22.5803 1.13759 22.5984 1.13275 22.6205C1.13713 22.6386 1.14181 22.6351 1.14587 22.5602Z" fill="white"/>
<path d="M16.895 20.9413C16.878 20.9824 17.4161 20.9578 17.6863 20.9455C17.4668 20.9422 17.1583 20.9287 16.895 20.9413Z" fill="white"/>
<path d="M31.7188 13.0803L31.7513 12.5652C31.7319 12.7475 31.7224 12.8406 31.7188 13.0803Z" fill="white"/>
<path d="M30.6069 5.16296C30.5989 5.14844 30.5922 5.1113 30.5859 5.06128C30.5911 5.1113 30.5978 5.14613 30.6069 5.16296Z" fill="white"/>
<path d="M30.5946 5.05884C30.5607 4.7078 30.6135 3.62411 30.5618 3.2344L30.5776 3.28387L30.5468 2.55865C30.5515 3.23845 30.5451 4.66524 30.5946 5.05884Z" fill="white"/>
</svg>
