<svg width="50" height="55" viewBox="0 0 50 55" fill="none" xmlns="http://www.w3.org/2000/svg">
<path d="M20.2145 8.47552C20.387 8.32704 20.4874 8.1221 20.4874 7.91196C20.4874 7.70288 20.3868 7.49804 20.2145 7.34946C20.0409 7.20087 19.8015 7.11597 19.5571 7.11597C19.3115 7.11597 19.0721 7.20087 18.8984 7.34946C18.7259 7.49794 18.6268 7.70288 18.6268 7.91196C18.6268 8.12199 18.7261 8.32693 18.8984 8.47552C19.072 8.62315 19.3114 8.70795 19.5571 8.70795C19.8015 8.70805 20.0409 8.62315 20.2145 8.47552Z" fill="white" fill-opacity="0.6"/>
<path d="M27.8554 7.39289C27.683 7.54033 27.5839 7.7461 27.5839 7.95506C27.5839 8.16401 27.6831 8.36978 27.8554 8.51722C28.029 8.66571 28.2684 8.75056 28.5142 8.75056C28.7585 8.75056 28.9992 8.66571 29.1716 8.51722C29.3452 8.36978 29.4445 8.16401 29.4445 7.95506C29.4445 7.7461 29.3452 7.54033 29.1716 7.39289C28.9992 7.2444 28.7598 7.15955 28.5142 7.15955C28.2684 7.15955 28.029 7.2444 27.8554 7.39289Z" fill="white" fill-opacity="0.6"/>
<path d="M23.4855 9.46967C23.2399 9.46967 23.0005 9.55452 22.8267 9.70291C22.6543 9.85045 22.5552 10.0561 22.5552 10.2652C22.5552 10.4752 22.6544 10.6798 22.8267 10.8273C23.0004 10.9757 23.2398 11.0607 23.4855 11.0607C23.7299 11.0607 23.9693 10.9757 24.143 10.8273C24.3167 10.6798 24.4159 10.4741 24.4159 10.2652C24.4159 10.0561 24.3167 9.85151 24.143 9.70291C23.9692 9.55452 23.7299 9.46967 23.4855 9.46967Z" fill="white" fill-opacity="0.6"/>
<path d="M24.2742 5.91541C24.1007 5.76798 23.8612 5.68323 23.6156 5.68323C23.3712 5.68323 23.1318 5.76808 22.9582 5.91541C22.7856 6.06391 22.6865 6.26862 22.6865 6.47874C22.6865 6.68769 22.7858 6.8923 22.9582 7.0409C23.1318 7.18939 23.3712 7.27425 23.6156 7.27425C23.8612 7.27425 24.1006 7.18939 24.2742 7.0409C24.4468 6.8924 24.5459 6.68769 24.5459 6.47874C24.546 6.26957 24.4468 6.06391 24.2742 5.91541Z" fill="white" fill-opacity="0.6"/>
<path d="M40.7173 12.1141L49.5432 4.62547C49.8379 4.37558 50.0001 4.04221 50 3.68678C49.9999 3.33145 49.8375 2.9984 49.5432 2.74893L46.7571 0.385129C46.4647 0.136826 46.0755 0 45.6614 0C45.2474 0 44.8582 0.136826 44.566 0.384917L34.6816 8.77141C34.0927 7.40113 33.132 6.15474 31.838 5.1173C31.463 4.8165 30.8742 4.83304 30.523 5.15347C30.1715 5.4739 30.1905 5.9774 30.5653 6.27788C31.8269 7.28944 32.7078 8.53891 33.1567 9.91301C32.6392 9.85181 32.1106 9.81946 31.5733 9.81946C30.4338 9.81946 29.3337 9.96222 28.2966 10.2265C28.2695 10.2324 28.2429 10.2391 28.2169 10.2468C26.2724 10.7557 24.5542 11.6948 23.2223 12.9298C22.8899 12.5992 22.5292 12.2861 22.1409 11.9939C21.755 11.7037 21.167 11.736 20.8279 12.066C20.4886 12.3958 20.5262 12.8986 20.9121 13.1887C21.3329 13.505 21.7138 13.8511 22.0538 14.2205C20.9666 15.6637 20.3367 17.3699 20.3367 19.1969C20.3367 19.4275 20.3474 19.656 20.3671 19.8825C20.233 19.8185 20.0787 19.7816 19.9141 19.7816H17.7141C17.2002 19.7816 16.7838 20.1376 16.7838 20.5771C16.7838 21.0165 17.2002 21.3726 17.7141 21.3726H19.9143C20.1747 21.3726 20.4096 21.281 20.5785 21.1337C20.6628 21.4673 20.769 21.7942 20.8948 22.1138H6.05132C5.53444 21.1496 5.24518 20.0837 5.24518 18.962C5.24518 14.6685 9.45115 11.1756 14.6212 11.1756C15.7363 11.1756 16.8275 11.3365 17.8642 11.6539C18.3478 11.802 18.8802 11.5865 19.0536 11.173C19.2268 10.7594 18.975 10.3041 18.4912 10.1559C17.4368 9.83325 16.3359 9.6472 15.2116 9.59873C16.4352 6.4145 19.9668 4.10585 24.1253 4.10585C25.2962 4.10585 26.438 4.28627 27.5186 4.64233C27.9974 4.79984 28.5364 4.59588 28.7211 4.18582C28.9057 3.77587 28.6668 3.31554 28.1872 3.15761C26.8924 2.73112 25.5257 2.51484 24.1251 2.51484C18.9058 2.51484 14.5073 5.55239 13.2501 9.65452C7.69858 10.2206 3.38457 14.1785 3.38457 18.962C3.38457 20.0674 3.61628 21.1282 4.03926 22.1138H2.11874C0.950398 22.1138 0 22.9271 0 23.9269V28.8101C0 30.8246 1.52843 32.541 3.65213 33.1702C6.78911 38.2491 12.5546 41.9816 19.4056 43.0562C20.0823 44.0098 20.4449 45.1019 20.4449 46.2451C20.4449 47.1824 20.1919 48.1028 19.7174 48.9383H10.8687C9.12852 48.9383 7.71272 50.1424 7.71272 51.6223C7.71272 53.1023 9.12852 54.3062 10.8687 54.3062H36.0924C37.8326 54.3062 39.2484 53.1022 39.2484 51.6222C39.2484 50.1423 37.8326 48.9382 36.0924 48.9382H27.2439C26.7693 48.1027 26.5164 47.1822 26.5164 46.245C26.5164 45.1016 26.879 44.0096 27.5556 43.0561C34.4064 41.9815 40.1721 38.249 43.309 33.1701C45.4328 32.5407 46.9613 30.8244 46.9613 28.81V23.9268C46.9613 22.927 46.0107 22.1137 44.8424 22.1137H42.2523C42.6136 21.1951 42.8102 20.215 42.8102 19.1968C42.8102 16.7537 41.6844 14.5261 39.8436 12.8554L40.7097 12.1204C40.7125 12.1184 40.7147 12.1161 40.7173 12.1141ZM45.6614 1.69675L48.0074 3.68731L45.6962 5.64838L44.204 2.93338L45.6614 1.69675ZM42.8018 4.12303L44.2941 6.83802L43.0293 7.91131L41.5371 5.19622L42.8018 4.12303ZM37.4688 8.64784L38.961 11.363L38.4572 11.7904C37.9586 11.467 37.4268 11.178 36.8667 10.9271L36.204 9.72103L37.4688 8.64784ZM29.4533 11.6137C30.135 11.4823 30.8442 11.4105 31.5734 11.4105C32.3028 11.4105 33.0119 11.4823 33.6938 11.6137V22.1137H29.4533V11.6137ZM27.5927 12.1492V22.1137H22.8811C22.4409 21.2123 22.1976 20.2279 22.1976 19.1968C22.1976 16.0849 24.4081 13.3948 27.5927 12.1492ZM36.0924 50.5293C36.8068 50.5293 37.3878 51.0196 37.3878 51.6223C37.3878 52.225 36.8068 52.7152 36.0924 52.7152H10.8687C10.1543 52.7152 9.57333 52.2249 9.57333 51.6222C9.57333 51.0195 10.1545 50.5292 10.8687 50.5292H36.0924V50.5293ZM25.2227 48.9383H21.7386C22.1101 48.0813 22.3055 47.1697 22.3055 46.2451C22.3055 45.2201 22.0748 44.2275 21.635 43.3077C22.2438 43.3501 22.8592 43.3724 23.4806 43.3724C24.1021 43.3724 24.7174 43.3501 25.3261 43.3077C24.8865 44.2275 24.6558 45.22 24.6558 46.2451C24.6558 47.1697 24.851 48.0813 25.2227 48.9383ZM23.4806 41.7814C18.9433 41.7814 14.7473 40.5237 11.3469 38.4001H35.6144C32.2138 40.5237 28.0179 41.7814 23.4806 41.7814ZM44.8424 23.7047C44.9824 23.7047 45.1007 23.8064 45.1007 23.9268V28.81C45.1007 30.4788 43.4947 31.8366 41.5207 31.8366C39.5469 31.8366 37.941 30.4788 37.941 28.81C37.941 28.3706 37.5246 28.0145 37.0107 28.0145C36.4968 28.0145 36.0804 28.3706 36.0804 28.81C36.0804 29.7403 35.5853 30.6055 34.7218 31.1838C34.3173 31.4548 34.2462 31.9548 34.5632 32.3005C34.8801 32.6463 35.4649 32.7071 35.8692 32.4362C36.3185 32.1352 36.7025 31.783 37.0133 31.393C37.9022 32.5068 39.3494 33.2731 41.0104 33.4051C40.1161 34.6505 39.0444 35.7942 37.8224 36.8091H9.13931C7.91726 35.7943 6.84555 34.6505 5.95122 33.4051C7.61361 33.273 9.06203 32.5054 9.95066 31.3898C10.9293 32.6183 12.5858 33.4276 14.4606 33.4276C16.3355 33.4276 17.9921 32.6183 18.9706 31.3898C19.9493 32.6183 21.6059 33.4276 23.4808 33.4276C25.3526 33.4276 27.0069 32.621 27.986 31.3957C28.7267 32.3291 29.8661 33.025 31.2355 33.3021C31.7355 33.4027 32.2367 33.1386 32.355 32.7111C32.4732 32.2836 32.1638 31.8551 31.6638 31.7539C30.0488 31.4272 28.9209 30.2166 28.9209 28.8101C28.9209 28.3707 28.5045 28.0146 27.9906 28.0146C27.4767 28.0146 27.0603 28.3707 27.0603 28.8101C27.0603 30.4789 25.4545 31.8367 23.4808 31.8367C21.5068 31.8367 19.9009 30.4789 19.9009 28.8101C19.9009 28.3707 19.4845 28.0146 18.9706 28.0146C18.4567 28.0146 18.0403 28.3707 18.0403 28.8101C18.0403 30.4789 16.4345 31.8367 14.4606 31.8367C12.4868 31.8367 10.881 30.4789 10.881 28.8101C10.881 28.3707 10.4646 28.0146 9.95066 28.0146C9.43676 28.0146 9.02035 28.3707 9.02035 28.8101C9.02035 30.4789 7.41452 31.8367 5.44054 31.8367C3.46681 31.8367 1.86098 30.4789 1.86098 28.8101V23.9269C1.86098 23.8065 1.97919 23.7048 2.11911 23.7048H44.8424V23.7047ZM40.9496 19.1968C40.9496 20.2279 40.7063 21.2123 40.266 22.1137H35.5544V12.1492C38.7392 13.3949 40.9496 16.0849 40.9496 19.1968ZM38.871 7.4582L40.1348 6.38586L41.6269 9.10096L40.363 10.1734L38.871 7.4582Z" fill="white" fill-opacity="0.6"/>
<path d="M15.0272 14.1004C15.5411 14.1004 15.9575 13.7443 15.9575 13.3049C15.9575 12.8655 15.5411 12.5094 15.0272 12.5094H12.6702C12.1563 12.5094 11.7399 12.8655 11.7399 13.3049C11.7399 13.7443 12.1563 14.1004 12.6702 14.1004H15.0272Z" fill="white" fill-opacity="0.6"/>
<path d="M11.7147 16.1048C11.7147 15.6654 11.2983 15.3093 10.7844 15.3093H8.58425C8.07034 15.3093 7.65393 15.6654 7.65393 16.1048C7.65393 16.5443 8.07034 16.9003 8.58425 16.9003H10.7844C11.2983 16.9003 11.7147 16.5443 11.7147 16.1048Z" fill="white" fill-opacity="0.6"/>
<path d="M16.2843 16.9003H18.4844C18.9983 16.9003 19.4147 16.5443 19.4147 16.1048C19.4147 15.6654 18.9983 15.3093 18.4844 15.3093H16.2843C15.7704 15.3093 15.354 15.6654 15.354 16.1048C15.354 16.5443 15.7705 16.9003 16.2843 16.9003Z" fill="white" fill-opacity="0.6"/>
<path d="M12.3806 19.8886H14.5807C15.0946 19.8886 15.511 19.5323 15.511 19.0926C15.511 18.6529 15.0946 18.2966 14.5807 18.2966H12.3806C11.8667 18.2966 11.4503 18.6529 11.4503 19.0926C11.4503 19.5323 11.8667 19.8886 12.3806 19.8886Z" fill="white" fill-opacity="0.6"/>
<path d="M7.29504 19.7815C6.78115 19.7815 6.36475 20.1376 6.36475 20.577C6.36475 21.0164 6.78115 21.3725 7.29504 21.3725H9.495C10.0089 21.3725 10.4253 21.0164 10.4253 20.577C10.4253 20.1376 10.0089 19.7815 9.495 19.7815H7.29504Z" fill="white" fill-opacity="0.6"/>
</svg>
