<svg width="50" height="50" viewBox="0 0 50 50" fill="none" xmlns="http://www.w3.org/2000/svg">
<path d="M26.4682 18.344C26.1597 18.6503 25.6612 18.6483 25.3551 18.3398C23.6586 16.63 21.3981 15.6885 18.9902 15.6885C14.0458 15.6885 10.0232 19.711 10.0232 24.6554C10.0232 29.5999 14.0457 33.6224 18.9902 33.6224C21.3981 33.6224 23.6586 32.6808 25.3552 30.9709C25.6613 30.6624 26.1597 30.6604 26.4683 30.9667C26.7769 31.2729 26.7789 31.7712 26.4726 32.0798C24.4781 34.0898 21.8208 35.1967 18.9901 35.1967C13.1776 35.1967 8.44882 30.4679 8.44882 24.6554C8.44882 18.8431 13.1776 14.1142 18.9901 14.1142C21.8209 14.1142 24.4781 15.2212 26.4725 17.2309C26.7788 17.5394 26.7768 18.0378 26.4682 18.344ZM43.0978 46.1709C43.0978 48.2822 41.3799 50 39.2684 50C38.0547 50 36.9373 49.4185 36.2262 48.4907C35.5153 49.4185 34.3979 50 33.1841 50C31.0727 50 29.3547 48.2823 29.3547 46.1709V30.88C29.3547 30.5145 29.6061 30.1972 29.9618 30.1138C30.9717 29.8766 31.7047 28.9533 31.7047 27.9183C31.7047 26.8877 30.9781 25.9677 29.9748 25.7256C29.8729 25.7035 29.7782 25.6617 29.6951 25.6043C29.6947 25.604 29.6944 25.6038 29.6941 25.6036C29.694 25.6036 29.6938 25.6034 29.6937 25.6034C29.6445 25.5693 29.5996 25.5299 29.5597 25.4859C29.4347 25.3485 29.3574 25.1666 29.3548 24.9669V24.9668C29.3548 24.9668 29.3548 24.9656 29.3547 24.9651V24.9643V24.9629V24.9617V24.9607V24.9591C29.3547 24.9589 29.3547 24.9586 29.3547 24.9586C29.3547 24.9574 29.3547 24.9566 29.3547 24.956V19.7208C29.3547 17.7018 30.6186 15.9725 32.3969 15.2825V11.4827C32.3969 11.048 32.7493 10.6955 33.1841 10.6955H39.2683C39.703 10.6955 40.0554 11.048 40.0554 11.4827V15.2823C41.8335 15.9724 43.0977 17.7018 43.0977 19.7208V24.956C43.0977 25.3213 42.8463 25.6386 42.4907 25.7222C41.4809 25.9594 40.7479 26.883 40.7479 27.9179C40.7479 28.9529 41.4809 29.8763 42.4907 30.1135C42.8463 30.1971 43.0977 30.5144 43.0977 30.8798V32.7776C43.0977 33.2123 42.7453 33.5647 42.3105 33.5647C41.8758 33.5647 41.5234 33.2123 41.5234 32.7776V31.4474C40.1311 30.8564 39.1736 29.4602 39.1736 27.9179C39.1736 26.3755 40.1312 24.9791 41.5234 24.3881V19.7206C41.5234 17.9647 40.0949 16.5363 38.339 16.5363H34.1135C32.3576 16.5363 30.9291 17.9647 30.9291 19.7206V24.1686H37.019C37.4538 24.1686 37.8062 24.521 37.8062 24.9558C37.8062 25.3905 37.4538 25.7429 37.019 25.7429H32.5898C33.0255 26.3693 33.2791 27.1242 33.2791 27.9178C33.2791 29.4605 32.3214 30.8567 30.9291 31.4475V35.3334H38.8216C39.2563 35.3334 39.6087 35.6858 39.6087 36.1205C39.6087 36.5553 39.2563 36.9077 38.8216 36.9077H30.9291V46.1708C30.9291 47.4142 31.9406 48.4256 33.1842 48.4256C34.1892 48.4256 35.0822 47.7478 35.3556 46.7773C35.4512 46.4379 35.7608 46.2036 36.1132 46.2036H36.3394C36.6919 46.2036 37.0015 46.4379 37.097 46.7773C37.3705 47.7478 38.2634 48.4256 39.2685 48.4256C40.5121 48.4256 41.5236 47.4142 41.5236 46.1708C41.5236 45.736 41.876 45.3836 42.3108 45.3836C42.7455 45.3836 43.0978 45.7361 43.0978 46.1709ZM33.9713 14.9645C34.0185 14.963 34.0661 14.9623 34.1137 14.9623H38.3392C38.3867 14.9623 38.4342 14.963 38.4814 14.9645V12.2699H37.0135V12.8362C37.0135 13.2709 36.6611 13.6233 36.2264 13.6233C35.7917 13.6233 35.4393 13.2709 35.4393 12.8362V12.2699H33.9713V14.9645ZM27.3072 44.5394C27.3072 44.9741 26.9548 45.3265 26.5201 45.3265H4.78712C4.35241 45.3265 4 44.9741 4 44.5394V4.77132C4 4.3366 4.35241 3.98419 4.78712 3.98419H9.68112V0.787124C9.68112 0.352406 10.0335 0 10.4682 0H16.1495C16.5842 0 16.9366 0.352406 16.9366 0.787124V3.98419H33.1928C33.6276 3.98419 33.98 4.3366 33.98 4.77132V7.78735C33.98 8.22207 33.6276 8.57447 33.1928 8.57447C32.7581 8.57447 32.4057 8.22207 32.4057 7.78735V5.55844H5.57425V43.7523H26.5201C26.9548 43.7523 27.3072 44.1047 27.3072 44.5394ZM11.2554 3.98419H15.3624V1.57425H14.096V2.05091C14.096 2.48562 13.7436 2.83803 13.3089 2.83803C12.8741 2.83803 12.5217 2.48562 12.5217 2.05091V1.57425H11.2554V3.98419ZM19.0976 23.8683H18.8826C18.4479 23.8683 18.0955 24.2207 18.0955 24.6554C18.0955 25.0901 18.4479 25.4425 18.8826 25.4425H19.0976C19.5323 25.4425 19.8847 25.0901 19.8847 24.6554C19.8847 24.2207 19.5323 23.8683 19.0976 23.8683ZM38.9194 23.3391C39.3541 23.3391 39.7065 22.9867 39.7065 22.552V20.4388C39.7065 19.1207 38.6342 18.0484 37.3162 18.0484C36.8815 18.0484 36.5291 18.4008 36.5291 18.8355C36.5291 19.2702 36.8815 19.6227 37.3162 19.6227C37.7661 19.6227 38.1323 19.9888 38.1323 20.4388V22.552C38.1323 22.9867 38.4847 23.3391 38.9194 23.3391ZM45.5412 41.8566C44.9174 43.0757 43.6795 43.8329 42.3106 43.8329C40.9995 43.8329 39.7863 43.1218 39.1446 41.9771C37.9487 39.8433 39.3706 38.1917 40.625 36.7345C40.9857 36.3154 41.3587 35.8821 41.6679 35.4447C41.8155 35.2363 42.0551 35.1121 42.3106 35.1121C42.5662 35.1121 42.8057 35.2363 42.9534 35.4447C43.2625 35.8819 43.635 36.3144 43.9953 36.7327C45.221 38.1557 46.61 39.7685 45.5412 41.8566ZM42.8025 37.7602C42.6394 37.5709 42.474 37.3789 42.3108 37.1825C42.1472 37.3794 41.9814 37.5719 41.818 37.7616C40.5681 39.2136 39.8914 40.0896 40.5178 41.2074C40.8812 41.8559 41.5683 42.2588 42.3105 42.2588C43.0856 42.2588 43.7865 41.8299 44.1398 41.1395C44.6991 40.0469 44.0312 39.1866 42.8025 37.7602ZM25.2908 21.0735C25.8941 22.1307 26.2392 23.3535 26.2392 24.6554C26.2392 25.9573 25.8942 27.18 25.2909 28.2373C25.2837 28.2517 25.2759 28.2659 25.2679 28.28C25.2592 28.2951 25.2502 28.3097 25.2406 28.3239C23.9793 30.4646 21.6497 31.9045 18.9902 31.9045C16.331 31.9045 14.0015 30.4649 12.7401 28.3245C12.7305 28.3101 12.7213 28.2953 12.7124 28.28C12.7041 28.2656 12.6964 28.2512 12.6891 28.2365C12.086 27.1796 11.7411 25.9571 11.7411 24.6554C11.7411 23.3537 12.086 22.1313 12.6891 21.0742C12.6964 21.0596 12.7041 21.0451 12.7124 21.0308C12.7212 21.0155 12.7304 21.0007 12.7401 20.9863C14.0015 18.8459 16.3311 17.4063 18.9902 17.4063C21.6499 17.4063 23.9794 18.8459 25.2408 20.987C25.2502 21.0011 25.2592 21.0159 25.2679 21.0308C25.2759 21.0449 25.2836 21.0592 25.2908 21.0735ZM24.6648 24.6554C24.6648 23.9031 24.5176 23.1846 24.2507 22.527L21.6223 24.0445C21.2461 24.2617 20.7645 24.133 20.5471 23.7563C20.3298 23.3798 20.4587 22.8984 20.8352 22.681L23.4614 21.1647C22.5749 20.0316 21.2679 19.2427 19.7772 19.035V22.0705C19.7772 22.5052 19.4248 22.8576 18.9901 22.8576C18.5554 22.8576 18.203 22.5052 18.203 22.0705V19.035C16.7123 19.2428 15.4053 20.0317 14.5187 21.1649L17.1448 22.681C17.5213 22.8984 17.6503 23.3798 17.4329 23.7563C17.2155 24.1329 16.7341 24.2614 16.3577 24.0445L13.7294 22.527C13.4623 23.1846 13.3153 23.903 13.3153 24.6554C13.3153 25.4078 13.4625 26.1262 13.7294 26.7838L16.3577 25.2663C16.7342 25.0493 17.2157 25.1779 17.4329 25.5545C17.6503 25.931 17.5213 26.4124 17.1448 26.6299L14.5187 28.146C15.4052 29.2792 16.7123 30.0681 18.203 30.2758V27.2403C18.203 26.8056 18.5554 26.4532 18.9901 26.4532C19.4248 26.4532 19.7772 26.8056 19.7772 27.2403V30.2758C21.2679 30.068 22.5749 29.2792 23.4614 28.1461L20.8352 26.6299C20.4587 26.4124 20.3298 25.931 20.5471 25.5545C20.7645 25.1778 21.2459 25.0493 21.6223 25.2663L24.2507 26.7838C24.5177 26.1262 24.6648 25.4077 24.6648 24.6554Z" fill="white" fill-opacity="0.6"/>
</svg>
