<svg width="50" height="50" viewBox="0 0 50 50" fill="none" xmlns="http://www.w3.org/2000/svg">
<g clip-path="url(#clip0)">
<path d="M48.5145 19.2949C48.3848 19.1004 48.2552 18.9059 48.0607 18.8411C48.2552 18.5818 48.3848 18.1928 48.32 17.8686C48.2552 16.4424 47.6068 13.525 44.4302 9.89449C41.1886 6.26399 38.3361 5.29154 36.9747 5.03222C36.7154 4.96739 36.5209 5.03222 36.3264 5.03222C36.2615 4.70806 36.0671 4.38391 35.8077 4.18942C34.7056 3.2818 32.1124 1.85553 27.2501 1.85553C22.3879 1.85553 19.7946 3.34663 18.6277 4.18942C18.0442 4.64323 17.8497 5.35637 18.1739 6.00467L19.2112 8.40339L25.6942 24.0923C25.6942 24.1572 25.759 24.222 25.8239 24.2868C25.6942 24.222 25.4997 24.222 25.3052 24.222L8.25485 25.7131L5.66164 25.9076C4.94851 25.9724 4.36503 26.491 4.23537 27.2042C3.97605 28.6304 3.91122 31.6126 6.24511 35.8266C8.51417 40.1054 11.1074 41.6613 12.404 42.2448C12.5985 42.3096 12.793 42.3745 13.0523 42.3745C13.0523 42.3745 13.0523 42.3745 13.1171 42.3745C13.1171 42.6986 13.2468 43.0228 13.4413 43.3469C14.3489 44.4491 16.4883 46.5236 21.2209 47.6257C22.9065 48.0147 24.3328 48.1444 25.5645 48.1444C27.7688 48.1444 29.2599 47.6906 30.1027 47.3016C30.2972 47.2368 30.4916 47.0423 30.6213 46.9126C30.8806 47.1071 31.2048 47.3016 31.5289 47.3016C31.6586 47.3016 31.7883 47.3016 31.9179 47.3016C33.4738 47.3016 36.2615 46.8478 39.8272 44.3194C43.7819 41.5317 45.0785 38.8088 45.5323 37.4474C45.5971 37.2529 45.5971 36.9936 45.5971 36.7991C45.9213 36.7342 46.2454 36.6046 46.5047 36.3453C47.542 35.308 49.2924 32.9093 49.8111 28.1118C50.4594 23.3144 49.2924 20.5267 48.5145 19.2949ZM36.3912 6.45848C36.456 6.32882 36.5857 6.26399 36.6505 6.32882C37.8823 6.58814 40.4755 7.43094 43.3929 10.7373C46.3102 14.0436 46.8937 16.6368 46.9585 17.9334C46.9585 18.0631 46.8937 18.1279 46.7641 18.1928L45.7268 18.5818C45.5971 17.2851 44.9488 14.8216 42.2908 11.7746C39.6327 8.72754 37.1692 7.81992 35.8726 7.5606L36.3912 6.45848ZM45.7916 27.658C45.3378 31.6126 43.8467 33.4927 43.1984 34.141C43.1336 34.2059 43.0687 34.2059 43.0039 34.141L35.4188 29.7326L28.7412 25.5186L36.3264 22.9902L44.5598 20.6563C44.6247 20.6563 44.6895 20.6563 44.7543 20.7211C45.273 21.4991 46.2454 23.7033 45.7916 27.658ZM35.4836 8.79237C36.3264 8.92203 38.6603 9.63517 41.3831 12.6822C44.0412 15.6644 44.4302 18.0631 44.495 18.9059C44.495 18.9707 44.4302 19.0356 44.3653 19.0356L36.0022 21.7584L28.4171 23.8978L31.5938 16.572L35.3539 8.8572C35.3539 8.79237 35.4188 8.79237 35.4836 8.79237ZM19.276 5.55086C19.2112 5.4212 19.276 5.29154 19.3408 5.22671C20.3781 4.44874 22.712 3.15214 27.1205 3.15214C31.5289 3.15214 33.8628 4.44874 34.8353 5.22671C34.9001 5.29154 34.9649 5.4212 34.9001 5.55086L34.4463 6.58814C33.3442 5.81018 31.1399 4.64323 27.1205 4.64323C23.101 4.64323 20.7671 5.81018 19.7298 6.58814L19.276 5.55086ZM20.3133 7.94958C20.3133 7.88475 20.3133 7.81992 20.3781 7.75509C21.0913 7.23645 23.1658 5.93984 27.1853 5.93984C31.0751 5.93984 33.0849 7.04195 33.9277 7.75509C33.9925 7.81992 33.9925 7.88475 33.9925 7.94958L30.4916 16.0534L26.8611 23.5737L20.3133 7.94958ZM26.9908 25.0648C26.9908 25.1296 26.9908 25.1296 26.9908 25.1944C26.9908 25.1944 26.926 25.1944 26.8611 25.2593C26.7963 25.2593 26.7963 25.2593 26.7315 25.1944C26.7315 25.1296 26.7315 25.0648 26.6667 25L26.6018 24.9351C26.6667 24.9351 26.7963 25 26.8611 25C26.926 25.0648 26.926 25.0648 26.9908 25.0648ZM26.2128 27.0097L27.8336 34.8542L29.195 43.2821C29.195 43.3469 29.195 43.4118 29.1302 43.4766C28.3522 43.8656 26.0184 44.5787 22.1285 43.6711C18.2387 42.7635 16.5531 41.0779 15.9697 40.3647C15.9048 40.2999 15.9048 40.2351 15.9697 40.1702L21.2209 33.1037L26.2128 27.0097ZM13.2468 41.013C13.182 41.0779 13.0523 41.1427 12.9226 41.0779C12.015 40.6889 9.55146 39.2626 7.34723 35.1783C5.27266 31.2885 5.27266 28.6304 5.53198 27.3987C5.53198 27.269 5.66164 27.2042 5.7913 27.2042L6.95825 27.1394C6.76376 28.436 6.82859 31.0292 8.70866 34.53C10.6536 38.0957 12.7281 39.5219 13.9599 40.1054L13.2468 41.013ZM9.81078 33.9465C7.9307 30.4457 8.06036 28.047 8.19002 27.1394C8.19002 27.0745 8.25485 27.0097 8.31968 27.0097L25.3052 25.5834C25.2404 25.6483 25.1756 25.6483 25.1756 25.7131L20.2485 32.3258L14.8675 39.0033C14.8027 39.0681 14.7379 39.0681 14.6731 39.0681C13.8303 38.6791 11.7557 37.4474 9.81078 33.9465ZM29.5192 46.1346C28.6116 46.5884 25.9535 47.4312 21.4154 46.394C17.0718 45.3567 15.1269 43.5414 14.3489 42.569C14.2841 42.5041 14.2841 42.3745 14.3489 42.2448L15.062 41.3372C15.9048 42.3745 17.8497 43.9952 21.7396 44.9029C23.2307 45.227 24.4624 45.3567 25.5645 45.3567C27.3798 45.3567 28.6116 44.9677 29.3895 44.6435L29.584 45.8105C29.7137 46.005 29.6489 46.1346 29.5192 46.1346ZM30.8806 43.2173L29.1302 34.5948L27.8336 26.8152L34.7704 30.8347L41.9666 35.4376C42.0314 35.5025 42.0314 35.5673 42.0314 35.6321C41.7721 36.4749 40.7997 38.6791 37.4933 41.013C34.187 43.2821 31.8531 43.4766 30.9455 43.4118C30.9455 43.3469 30.8806 43.3469 30.8806 43.2173ZM39.1141 43.2821C35.4836 45.8105 32.8255 46.0698 31.5938 46.005C31.4641 46.005 31.3993 45.9401 31.3344 45.8105L31.14 44.6435C31.2048 44.6435 31.2048 44.6435 31.2696 44.6435C32.631 44.6435 35.0946 44.2546 38.2713 42.0503C41.5776 39.7164 42.8094 37.4474 43.1984 36.2156L44.1708 36.7991C44.3005 36.8639 44.3005 36.9936 44.3005 37.1232C44.0412 38.0957 42.9391 40.6241 39.1141 43.2821ZM48.5793 27.9821C48.0607 32.3906 46.5047 34.53 45.5971 35.4376C45.5323 35.5025 45.4026 35.5673 45.273 35.5025L44.3005 34.919C45.2081 33.9465 46.6344 31.8071 47.0882 27.8525C47.542 23.833 46.6344 21.4343 45.9861 20.2673L47.0882 19.9432C47.2179 19.8784 47.3475 19.9432 47.4124 20.0728C48.0607 21.1101 49.0979 23.5737 48.5793 27.9821Z" fill="white" fill-opacity="0.6"/>
<path d="M29.9082 7.30127C28.6116 7.30127 27.5743 8.33855 27.5743 9.63516C27.5743 10.9318 28.6116 11.969 29.9082 11.969C31.2048 11.969 32.242 10.9318 32.242 9.63516C32.242 8.33855 31.2048 7.30127 29.9082 7.30127ZM29.9082 10.7373C29.3247 10.7373 28.8709 10.2835 28.8709 9.69999C28.8709 9.11652 29.3247 8.66271 29.9082 8.66271C30.4916 8.66271 30.9454 9.11652 30.9454 9.69999C30.9454 10.2835 30.4916 10.7373 29.9082 10.7373Z" fill="white" fill-opacity="0.6"/>
<path d="M26.8612 12.6821C25.6294 12.6821 24.6569 13.6546 24.6569 14.8864C24.6569 16.1181 25.6294 17.0906 26.8612 17.0906C28.0929 17.0906 29.0654 16.1181 29.0654 14.8864C29.0654 13.6546 28.0929 12.6821 26.8612 12.6821ZM26.7963 15.794C26.2777 15.794 25.8887 15.405 25.8887 14.8864C25.8887 14.3677 26.2777 13.9787 26.7963 13.9787C27.315 13.9787 27.7039 14.3677 27.7039 14.8864C27.7039 15.405 27.315 15.794 26.7963 15.794Z" fill="white" fill-opacity="0.6"/>
<path d="M38.4009 12.6173C37.6878 11.8394 36.456 11.7745 35.6781 12.4877C35.2891 12.8118 35.0946 13.3305 35.0298 13.7843C35.0298 14.3029 35.1594 14.8216 35.4836 15.1457C35.8077 15.5995 36.3264 15.8589 36.845 15.8589C36.9098 15.8589 36.9098 15.8589 36.9747 15.8589C37.4285 15.8589 37.8823 15.6644 38.2713 15.3402C39.0492 14.6271 39.1141 13.3953 38.4009 12.6173ZM37.2988 14.4974C37.1692 14.6271 37.0395 14.6919 36.845 14.6271C36.6505 14.6271 36.5209 14.5622 36.3912 14.4326C36.2615 14.3029 36.1967 14.1733 36.2615 13.9788C36.3264 13.7843 36.3912 13.5898 36.5209 13.525C36.6505 13.3953 36.7802 13.3953 36.9098 13.3953C37.1043 13.3953 37.234 13.4601 37.3636 13.5898C37.623 13.8491 37.5581 14.2381 37.2988 14.4974Z" fill="white" fill-opacity="0.6"/>
<path d="M43.6522 28.5008C43.1984 28.0469 42.6797 27.7228 42.0963 27.658C40.8645 27.5283 39.6975 28.4359 39.5679 29.6677C39.4382 30.8995 40.3458 32.0664 41.5776 32.1961C41.6424 32.1961 41.7721 32.1961 41.8369 32.1961C43.0039 32.1961 43.9763 31.3533 44.106 30.1864C44.1708 29.6029 43.9763 28.9546 43.6522 28.5008ZM41.7073 30.9643C41.1238 30.8995 40.7348 30.3808 40.7997 29.8622C40.8645 29.2787 41.3831 28.8897 41.9018 28.9546C42.1611 28.9546 42.4204 29.1491 42.5501 29.3436C42.6797 29.5381 42.8094 29.7974 42.8094 30.0567C42.7446 30.6402 42.2259 31.0292 41.7073 30.9643Z" fill="white" fill-opacity="0.6"/>
<path d="M44.2357 22.666C43.9764 22.2771 43.5226 22.0177 43.0039 21.9529C42.4853 21.8881 41.9666 22.0177 41.5776 22.3419C41.1887 22.666 40.9293 23.1199 40.8645 23.6385C40.7997 24.1571 40.9293 24.6758 41.2535 25.0648C41.5776 25.4538 42.0315 25.7131 42.5501 25.7779C42.6149 25.7779 42.6798 25.7779 42.7446 25.7779C43.1984 25.7779 43.5874 25.6482 43.9115 25.3889C44.3005 25.0648 44.5598 24.611 44.6247 24.0923C44.6895 23.5737 44.5599 23.055 44.2357 22.666ZM43.1336 24.3516C43.0039 24.4813 42.8094 24.4813 42.6798 24.4813C42.4853 24.4813 42.3556 24.3516 42.2908 24.222C42.1611 24.0923 42.1611 23.8978 42.1611 23.7682C42.1611 23.5737 42.2908 23.444 42.4204 23.3792C42.5501 23.2495 42.7446 23.2495 42.8743 23.2495C43.0687 23.2495 43.1984 23.3792 43.2632 23.5088C43.3281 23.6385 43.3929 23.833 43.3929 23.9627C43.3929 24.0923 43.2632 24.2868 43.1336 24.3516Z" fill="white" fill-opacity="0.6"/>
<path d="M34.5111 32.1961C34.1221 31.6775 33.6683 31.3533 33.0849 31.2885C32.5014 31.1588 31.9179 31.2885 31.3993 31.6775C30.4268 32.3906 30.1675 33.7521 30.8806 34.7893C31.2696 35.3728 31.9827 35.697 32.6959 35.697C33.1497 35.697 33.6035 35.5673 33.9925 35.308C34.5111 34.9838 34.8353 34.4652 34.9001 33.8817C35.0298 33.2982 34.9001 32.7148 34.5111 32.1961ZM33.6035 33.6872C33.5387 33.9465 33.409 34.141 33.2145 34.2707C32.8255 34.5948 32.2421 34.4652 31.9179 34.0114C31.6586 33.6224 31.7234 33.0389 32.1772 32.7148C32.5662 32.4554 33.1497 32.5203 33.4738 32.9741C33.6035 33.1686 33.6683 33.4279 33.6035 33.6872Z" fill="white" fill-opacity="0.6"/>
<path d="M25.3052 37.9012C24.7866 37.7715 24.268 37.8363 23.879 38.1605C23.4252 38.4198 23.1658 38.8736 23.0362 39.3274C22.712 40.3647 23.3603 41.402 24.3976 41.6613C24.5273 41.7262 24.7218 41.7262 24.8514 41.7262C25.6942 41.7262 26.537 41.1427 26.7315 40.2351C26.9908 39.1978 26.3425 38.1605 25.3052 37.9012ZM25.3701 39.9757C25.3052 40.2999 24.9811 40.4944 24.5921 40.4296C24.3976 40.3647 24.268 40.2999 24.2031 40.1702C24.1383 40.0406 24.2031 39.8461 24.2031 39.6516C24.268 39.4571 24.3328 39.3274 24.4624 39.2626C24.5921 39.1978 24.6569 39.1978 24.7866 39.1978C24.8514 39.1978 24.9163 39.1978 24.9163 39.1978C25.2404 39.2626 25.4349 39.5868 25.3701 39.9757Z" fill="white" fill-opacity="0.6"/>
<path d="M13.8303 28.6305C13.2468 27.5283 11.8205 27.0745 10.7184 27.7228C9.61629 28.3063 9.16248 29.7326 9.81078 30.8347C10.1998 31.6126 11.0426 32.0664 11.8205 32.0664C12.2095 32.0664 12.5337 32.0016 12.9226 31.8071C14.0248 31.1588 14.4137 29.7326 13.8303 28.6305ZM12.2743 30.6402C11.7557 30.8995 11.1722 30.705 10.9129 30.2512C10.6536 29.7326 10.8481 29.1491 11.3019 28.8898C11.8205 28.6305 12.404 28.8249 12.6633 29.2788C12.9226 29.7326 12.7281 30.3809 12.2743 30.6402Z" fill="white" fill-opacity="0.6"/>
<path d="M19.7947 28.8898C19.5353 28.3712 19.0167 27.9822 18.4981 27.7877C17.9146 27.5932 17.3311 27.658 16.8125 27.9822C16.2938 28.2415 15.9048 28.7601 15.7104 29.2788C15.5159 29.8623 15.5807 30.4457 15.9048 30.9644C16.1642 31.5478 16.618 31.9368 17.2015 32.0665C17.3959 32.1313 17.6553 32.1313 17.8498 32.1313C18.2387 32.1313 18.5629 32.0665 18.887 31.872C19.4057 31.6127 19.7947 31.094 19.9892 30.5754C20.1836 29.9919 20.1188 29.4084 19.7947 28.8898ZM18.2387 30.7699C18.0442 30.8995 17.7849 30.8995 17.5256 30.8347C17.2663 30.7699 17.0718 30.5754 17.007 30.3809C16.9421 30.1864 16.8773 29.9271 16.9421 29.6678C17.007 29.4084 17.2014 29.214 17.3959 29.1491C17.5904 29.0195 17.8498 29.0195 18.1091 29.0843C18.3684 29.1491 18.5629 29.3436 18.6277 29.5381C18.887 29.9919 18.6925 30.5754 18.2387 30.7699Z" fill="white" fill-opacity="0.6"/>
<path d="M22.1931 19.8135L11.7554 6.32882L10.1347 4.25425C9.68088 3.67078 8.96774 3.47629 8.31944 3.80044C7.02283 4.38391 4.49445 5.93984 2.16056 10.1538C-0.173333 14.3678 -0.108502 17.4148 0.0859886 18.8411C0.215649 19.5542 0.734292 20.0728 1.44743 20.1377L4.04064 20.3322L20.8965 22.1474C21.0262 22.1474 21.091 22.1474 21.091 22.1474C21.6097 22.1474 22.0635 21.8881 22.3228 21.4343C22.5821 20.9156 22.5821 20.3322 22.1931 19.8135ZM2.74403 18.9707L1.64192 18.8411C1.51226 18.8411 1.44743 18.7114 1.3826 18.6466C1.1881 17.4148 1.1881 14.6919 3.26267 10.8021C5.40207 6.9123 7.67114 5.48603 8.77325 5.03222C8.90291 4.96739 9.03257 5.03222 9.0974 5.09705L9.81054 6.00467C8.57876 6.58815 6.50419 8.01441 4.55928 11.5152C2.61437 15.0809 2.54954 17.6093 2.74403 18.9707ZM21.2855 20.786C21.2207 20.8508 21.2207 20.8508 21.1558 20.8508L4.29996 19.0356C4.1703 19.0356 4.10547 18.9707 4.10547 18.9059C3.97581 17.9983 3.84615 15.5996 5.79106 12.0987C7.73597 8.59788 9.81054 7.43094 10.5885 7.04196C10.6533 7.04196 10.7182 7.04196 10.783 7.10679L21.2855 20.5915C21.3503 20.6563 21.3503 20.7212 21.2855 20.786Z" fill="white" fill-opacity="0.6"/>
<path d="M12.5337 10.8021C12.3392 10.2186 11.9502 9.69999 11.4316 9.44067C10.9129 9.11652 10.2646 9.05169 9.68114 9.24618C9.09766 9.44067 8.57902 9.82965 8.3197 10.3483C7.99555 10.8669 7.93072 11.5152 8.12521 12.0987C8.3197 12.6822 8.70868 13.2008 9.22732 13.525C9.55148 13.7195 9.94046 13.7843 10.3294 13.7843C11.1722 13.7843 11.9502 13.3305 12.3392 12.5525C12.6633 12.0339 12.7282 11.3856 12.5337 10.8021ZM11.1722 11.9691C10.9129 12.4877 10.2646 12.6174 9.8108 12.358C9.55148 12.2284 9.42182 12.0339 9.35699 11.7746C9.29216 11.5152 9.35698 11.2559 9.48665 10.9966C9.61631 10.7373 9.8108 10.6076 10.0701 10.5428C10.1349 10.5428 10.2646 10.478 10.3294 10.478C10.5239 10.478 10.6536 10.5428 10.7833 10.6076C11.0426 10.7373 11.1722 10.9318 11.2371 11.1911C11.3019 11.4504 11.3019 11.7097 11.1722 11.9691Z" fill="white" fill-opacity="0.6"/>
<path d="M13.5709 15.405C12.6633 14.7567 11.4963 15.0809 10.9777 16.0533C10.7184 16.5071 10.6535 17.0258 10.848 17.5444C10.9777 18.0631 11.3019 18.4521 11.7557 18.7114C12.015 18.841 12.3391 18.9707 12.6633 18.9707C12.8578 18.9707 13.0523 18.9707 13.1819 18.9059C13.7006 18.7762 14.0896 18.4521 14.3489 17.9982C14.8675 17.0906 14.5434 15.9237 13.5709 15.405ZM13.2468 17.2203C13.0523 17.5444 12.7281 17.6093 12.404 17.4796C12.2743 17.4148 12.1446 17.2851 12.0798 17.0906C12.015 16.8961 12.0798 16.7665 12.1446 16.6368C12.2095 16.5071 12.3391 16.3775 12.5336 16.3127C12.5336 16.3775 12.5985 16.3127 12.6633 16.3127C12.793 16.3127 12.8578 16.3127 12.9874 16.3775C13.3116 16.572 13.3764 16.8961 13.2468 17.2203Z" fill="white" fill-opacity="0.6"/>
<path d="M8.06036 16.3127L7.28239 14.692C7.15273 14.3678 6.76375 14.2381 6.4396 14.3678C6.11545 14.4975 5.98579 14.8864 6.11545 15.2106L6.89341 16.8314C7.02307 17.0907 7.21756 17.2203 7.47689 17.2203C7.54172 17.2203 7.67138 17.2203 7.73621 17.1555C8.06036 17.0258 8.19002 16.6369 8.06036 16.3127Z" fill="white" fill-opacity="0.6"/>
<path d="M25.1756 11.0614L24.3976 9.44067C24.2679 9.11652 23.879 8.98686 23.5548 9.11652C23.2307 9.24618 23.101 9.63516 23.2307 9.95931L24.0086 11.5801C24.1383 11.8394 24.3328 11.9691 24.5921 11.9691C24.6569 11.9691 24.7866 11.9691 24.8514 11.9042C25.1756 11.7746 25.3701 11.3856 25.1756 11.0614Z" fill="white" fill-opacity="0.6"/>
<path d="M36.5857 19.1653L35.8077 17.5445C35.6781 17.2203 35.2891 17.0907 34.9649 17.2203C34.6408 17.35 34.5111 17.739 34.6408 18.0631L35.4188 19.6839C35.5484 19.9432 35.7429 20.0729 36.0022 20.0729C36.0671 20.0729 36.1967 20.0729 36.2616 20.008C36.5857 19.8784 36.7154 19.4894 36.5857 19.1653Z" fill="white" fill-opacity="0.6"/>
<path d="M21.0264 40.2999L20.2484 38.6791C20.1188 38.355 19.7298 38.2253 19.4056 38.355C19.0815 38.4846 18.9518 38.8736 19.0815 39.1978L19.8594 40.8185C19.9891 41.0779 20.1836 41.2075 20.4429 41.2075C20.5077 41.2075 20.6374 41.2075 20.7022 41.1427C21.0264 41.013 21.1561 40.624 21.0264 40.2999Z" fill="white" fill-opacity="0.6"/>
<path d="M34.3167 38.8736L32.5014 38.5494C32.1773 38.4846 31.7883 38.7439 31.7234 39.0681C31.6586 39.3922 31.9179 39.7812 32.2421 39.846L34.0573 40.1702C34.1222 40.1702 34.1222 40.1702 34.187 40.1702C34.5111 40.1702 34.7705 39.9757 34.8353 39.6515C34.965 39.2626 34.7056 38.9384 34.3167 38.8736Z" fill="white" fill-opacity="0.6"/>
<path d="M37.2988 26.7503L35.4836 26.4262C35.1594 26.3614 34.7704 26.6207 34.7056 26.9448C34.6408 27.269 34.9001 27.658 35.2243 27.7228L37.0395 28.0469C37.1043 28.0469 37.1043 28.0469 37.1692 28.0469C37.4933 28.0469 37.7526 27.8525 37.8175 27.5283C37.8823 27.2042 37.623 26.8152 37.2988 26.7503Z" fill="white" fill-opacity="0.6"/>
<path d="M41.7721 16.6368L39.9569 16.3127C39.6327 16.2478 39.2437 16.5072 39.1789 16.8313C39.1141 17.2203 39.3734 17.5445 39.6976 17.6093L41.5128 17.9334C41.5776 17.9334 41.5776 17.9334 41.6425 17.9334C41.9666 17.9334 42.2259 17.7389 42.2908 17.4148C42.3556 17.0906 42.0963 16.7017 41.7721 16.6368Z" fill="white" fill-opacity="0.6"/>
<path d="M25.1756 34.6596L24.3976 33.0389C24.2679 32.7147 23.879 32.5851 23.5548 32.7147C23.2307 32.8444 23.101 33.2334 23.2307 33.5575L24.0086 35.1783C24.1383 35.4376 24.3328 35.5673 24.5921 35.5673C24.6569 35.5673 24.7866 35.5673 24.8514 35.5024C25.1756 35.3728 25.3052 34.9838 25.1756 34.6596Z" fill="white" fill-opacity="0.6"/>
<path d="M15.1268 33.8168C14.9324 33.5575 14.4785 33.4927 14.2192 33.752L12.793 34.9189C12.5336 35.1134 12.4688 35.5672 12.7281 35.8266C12.8578 35.9562 13.0523 36.0859 13.2468 36.0859C13.3764 36.0859 13.5061 36.0211 13.6358 35.9562L15.062 34.7893C15.3213 34.53 15.3862 34.141 15.1268 33.8168Z" fill="white" fill-opacity="0.6"/>
<path d="M33.02 20.1377C32.8255 19.8784 32.3717 19.8135 32.1124 20.0729L30.6861 21.175C30.4268 21.4343 30.362 21.8233 30.6213 22.0826C30.751 22.2123 30.9454 22.3419 31.1399 22.3419C31.2696 22.3419 31.3993 22.2771 31.5289 22.2123L32.9552 21.0453C33.2145 20.8508 33.2794 20.397 33.02 20.1377Z" fill="white" fill-opacity="0.6"/>
<path d="M38.7899 35.7617C38.5954 35.5024 38.1416 35.4376 37.8823 35.6969L36.456 36.8638C36.1967 37.0583 36.1319 37.5121 36.3912 37.7715C36.5209 37.9011 36.7153 37.966 36.9098 37.966C37.0395 37.966 37.1692 37.9011 37.2988 37.8363L38.7251 36.6693C38.9844 36.4748 39.0492 36.021 38.7899 35.7617Z" fill="white" fill-opacity="0.6"/>
</g>
<defs>
<clipPath id="clip0">
<rect width="50" height="50" fill="white"/>
</clipPath>
</defs>
</svg>
