<svg width="23" height="28" viewBox="0 0 23 28" fill="none" xmlns="http://www.w3.org/2000/svg">
<path d="M21.4308 14.9417L12.5305 5.50644C12.3247 5.28804 12.0499 5.16772 11.7569 5.16772C11.4639 5.16772 11.1891 5.28804 10.9832 5.50644L10.3278 6.20112C9.9013 6.65378 9.9013 7.38949 10.3278 7.84146L17.8016 15.7646L10.3195 23.6965C10.1137 23.9149 10 24.2061 10 24.5165C10 24.8273 10.1137 25.1185 10.3195 25.337L10.975 26.0315C11.181 26.2499 11.4556 26.3703 11.7486 26.3703C12.0416 26.3703 12.3164 26.2499 12.5223 26.0315L21.4308 16.5877C21.6371 16.3686 21.7505 16.0761 21.7498 15.7651C21.7505 15.4529 21.6371 15.1606 21.4308 14.9417Z" fill="#F5994F"/>
</svg>
