<svg width="50" height="54" viewBox="0 0 50 54" fill="none" xmlns="http://www.w3.org/2000/svg">
<g clip-path="url(#clip0)">
<path fill-rule="evenodd" clip-rule="evenodd" d="M16.3127 27.4802L16.2516 31.645H23.0184C24.4507 31.645 25.6226 32.9473 25.6226 34.539V37.4331H25.5941V48.756C25.5941 50.3478 24.4222 51.6501 22.9899 51.6501H20.3857V38.4822C20.3857 37.2884 20.5892 37.4331 19.5516 37.4331H12.8499V37.415H9.50927C7.35269 37.415 5.59081 35.457 5.59081 33.0603V18.8026C5.59081 16.3653 7.38525 14.3756 9.57437 14.3756H11.5478C14.3229 14.3756 14.9251 15.8136 15.5843 17.3556L19.1121 19.2367C21.5251 20.4441 20.9025 20.6838 22.5382 18.4318L24.3612 15.9176L22.3389 14.5972C21.9564 14.6786 21.4762 14.6062 21.0124 14.3666C20.1538 13.9189 19.6655 13.0597 19.9259 12.4493C20.1823 11.8388 21.0897 11.7032 21.9482 12.1508C22.6807 12.5352 23.1445 13.218 23.0998 13.7878L25.0529 15.063C26.4608 14.0455 29.6509 15.8905 28.0558 18.6896L24.9715 23.3653C23.6857 25.3142 21.9767 25.5901 19.9097 24.6314L16.3127 23.2251V27.4802ZM49.7681 26.3272H36.7391L37.7523 24.9525C37.911 25.0881 38.09 25.1967 38.2772 25.2781C38.505 25.373 38.7573 25.4273 39.0137 25.4273C39.5955 25.4273 40.1204 25.1605 40.5029 24.7309C40.8854 24.3013 41.1173 23.7135 41.1173 23.0578C41.1173 22.4066 40.8813 21.8142 40.5029 21.3847C40.1204 20.9551 39.5955 20.6883 39.0137 20.6883C38.4318 20.6883 37.9069 20.9551 37.5244 21.3847C37.1785 21.7735 36.9507 22.3026 36.9141 22.8859C33.7239 22.8859 30.5298 22.8859 27.3397 22.8859C27.2949 22.8859 27.2502 22.904 27.2135 22.9402C27.1403 23.0171 27.1403 23.1437 27.2095 23.2251L29.6427 26.3226H24.292C24.1658 26.3226 24.0601 26.4402 24.0601 26.5804V30.2703C24.0601 30.4105 24.1658 30.528 24.292 30.528C28.7313 30.528 30.8878 30.528 35.3312 30.528V53.1378C35.3312 53.3232 35.4696 53.477 35.6364 53.477H35.7544H35.7625H39.0218H39.0299H39.1479C39.3148 53.477 39.4531 53.3232 39.4531 53.1378V30.528C42.3828 30.528 46.8384 30.528 49.7681 30.528C49.8942 30.528 50 30.4105 50 30.2703V26.5804C50 26.4402 49.8942 26.3272 49.7681 26.3272ZM0.724276 23.3924H2.6245C3.01106 23.3924 3.26741 23.7496 3.32844 24.1747C4.04866 29.2031 4.43521 34.236 4.41487 39.2645H17.4154C17.9281 39.2645 18.3472 39.7302 18.3472 40.3V42.3937H17.6025V53.1016C17.6025 53.2735 17.4723 53.4182 17.3177 53.4182H14.8275C14.6728 53.4182 14.5426 53.278 14.5426 53.1016V48.444H3.90217C3.74755 49.8639 3.55631 51.2838 3.32844 52.7037C3.25927 53.1288 3.01106 53.486 2.6245 53.486H0.724276C0.33772 53.486 -0.0895261 53.1152 0.0203372 52.7037C2.52685 43.0132 2.00195 33.5397 0.0203372 24.1747C-0.07325 23.7542 0.333651 23.3924 0.724276 23.3924ZM14.5386 47.0015V42.3982H4.37418C4.31721 44.3562 4.19514 45.0435 4.00797 47.006H14.5386V47.0015ZM11.4217 0.484192C14.4328 0.484192 16.8742 3.19736 16.8742 6.54361C16.8742 9.88985 14.4328 12.603 11.4217 12.603C8.41064 12.603 5.96923 9.88985 5.96923 6.54361C5.9733 3.19736 8.41471 0.484192 11.4217 0.484192Z" fill="white"/>
</g>
<defs>
<clipPath id="clip0">
<rect width="50" height="53.0063" fill="white" transform="translate(0 0.484192)"/>
</clipPath>
</defs>
</svg>
