<svg width="25" height="26" viewBox="0 0 25 26" fill="none" xmlns="http://www.w3.org/2000/svg">
<path d="M24.8873 20.7514L24.7628 20.3704C24.4681 19.4802 23.5022 18.5517 22.6147 18.3071L19.3302 17.3953C18.4396 17.149 17.169 17.4802 16.5173 18.1424L15.3286 19.3504C11.0086 18.1641 7.62102 14.7214 6.45526 10.332L7.64402 9.12396C8.2957 8.4617 8.62148 7.17221 8.37916 6.26705L7.48354 2.92758C7.24122 2.02406 6.32595 1.04238 5.45166 0.746183L5.07673 0.618075C4.20076 0.321873 2.95148 0.621429 2.29986 1.28364L0.521721 3.09232C0.204058 3.41344 0.00103175 4.33191 0.00103175 4.33527C-0.0611596 10.0724 2.15248 15.5999 6.14582 19.6582C10.1294 23.7064 15.5481 25.9527 21.1771 25.9045C21.2066 25.9045 22.1366 25.7015 22.4542 25.3803L24.2324 23.5733C24.884 22.9111 25.1787 21.6416 24.8873 20.7514Z" fill="#252233"/>
</svg>
