<svg width="50" height="54" viewBox="0 0 50 54" fill="none" xmlns="http://www.w3.org/2000/svg">
<g clip-path="url(#clip0)">
<path d="M49.2661 17.911C49.6714 17.911 50 17.5626 50 17.1329V12.0501C50 11.6205 49.6714 11.2721 49.2661 11.2721H25.6631C25.3191 9.38366 23.7491 7.9527 21.8688 7.9527H3.86494C3.45967 7.9527 3.13105 8.30107 3.13105 8.73071V11.2721H0.733887C0.328613 11.2721 0 11.6205 0 12.0501V45.2439C0 45.6735 0.328613 46.0219 0.733887 46.0219H49.2662C49.6715 46.0219 50.0001 45.6735 50.0001 45.2439V20.729C50.0001 20.2993 49.6715 19.951 49.2662 19.951C48.8609 19.951 48.5323 20.2993 48.5323 20.729V44.466H25.7339V12.8281H37.5734V20.3486C37.5734 20.9575 38.2354 21.3347 38.7144 20.9959L40.6557 19.6238L42.597 20.9959C43.0765 21.3348 43.7379 20.9567 43.7379 20.3486V12.8281H48.5324V17.1329C48.5323 17.5626 48.8608 17.911 49.2661 17.911ZM1.46768 44.466V12.8281H3.13105V41.9246C3.13105 42.3542 3.45967 42.7026 3.86494 42.7026H21.8688C22.9348 42.7026 23.8399 43.4442 24.1508 44.466H1.46768ZM24.2661 42.0321C23.6068 41.478 22.7736 41.1466 21.8688 41.1466H4.59883V9.50872H21.8688C23.1906 9.50872 24.2661 10.6489 24.2661 12.0501V42.0321ZM42.27 18.8949L41.0626 18.0415C40.9393 17.9543 40.7975 17.9108 40.6556 17.9108C40.5137 17.9108 40.3718 17.9544 40.2485 18.0415L39.0411 18.8949V12.8281H42.2701V18.8949H42.27Z" fill="white"/>
<path d="M22.2468 22.0452C21.6448 21.407 20.7533 21.1237 19.8015 21.2678C18.9135 21.4023 18.0373 21.8868 17.3345 22.632C16.0518 23.9919 15.6818 25.8864 16.3409 27.206L14.6389 29.0104L12.7234 26.9797C13.4418 25.7229 13.2902 24.06 12.2674 22.9755L10.0534 20.6284C9.76681 20.3246 9.30216 20.3246 9.01564 20.6284C8.72902 20.9323 8.72902 21.4249 9.01564 21.7286L10.7108 23.5257L10.0881 24.1858L8.39298 22.3887C8.10636 22.0849 7.64171 22.0849 7.35519 22.3887C7.06857 22.6926 7.06857 23.1852 7.35519 23.4889L9.05031 25.286L8.42765 25.9461L6.73243 24.149C6.44581 23.8452 5.98116 23.8452 5.69464 24.149C5.40802 24.4529 5.40802 24.9455 5.69464 25.2492L7.90861 27.5963C8.50949 28.2333 9.29874 28.5517 10.0881 28.5517C10.6425 28.5517 11.1966 28.394 11.6857 28.0797L13.6012 30.1104L9.58546 34.3675C9.31827 34.6507 9.3005 35.1186 9.5464 35.4231C9.82081 35.7628 10.3247 35.7842 10.6232 35.4677L14.6389 31.2106L18.9787 35.8113C19.2773 36.1278 19.7811 36.1065 20.0556 35.7667C20.3016 35.4622 20.2838 34.9943 20.0165 34.7112L15.6767 30.1104L17.3785 28.3062C17.7815 28.5337 18.2481 28.6538 18.7439 28.6538C18.9021 28.6538 19.0632 28.6417 19.2262 28.617C20.1142 28.4825 20.9902 27.998 21.6932 27.2528C22.3961 26.5076 22.853 25.5787 22.98 24.6375C23.116 23.6283 22.8488 22.6834 22.2468 22.0452ZM11.2296 26.4962C10.7869 26.9655 10.1496 27.1033 9.59122 26.9128L10.6064 25.8366C10.6066 25.8364 10.6067 25.8363 10.6068 25.8361C10.607 25.8359 10.6071 25.8358 10.6073 25.8356L11.6224 24.7595C11.8022 25.3514 11.6721 26.027 11.2296 26.4962ZM21.5073 24.5402C21.3934 25.1525 21.0684 25.715 20.6554 26.1527C20.2425 26.5904 19.7118 26.9349 19.1344 27.0559C18.6818 27.1506 18.1605 27.1017 17.8188 26.7396C17.2 26.0834 17.4534 24.7062 18.3723 23.7321C18.7617 23.3192 19.2534 22.9922 19.7916 22.8528C20.27 22.729 20.8412 22.7553 21.209 23.1454C21.5507 23.5077 21.5968 24.0605 21.5073 24.5402Z" fill="white"/>
<path d="M36.0001 24.5497H29.6967C29.2914 24.5497 28.9628 24.8981 28.9628 25.3277C28.9628 25.7574 29.2914 26.1057 29.6967 26.1057H36.0001C36.4054 26.1057 36.734 25.7574 36.734 25.3277C36.734 24.8981 36.4054 24.5497 36.0001 24.5497Z" fill="white"/>
<path d="M43.0039 24.5497H38.8017C38.3964 24.5497 38.0678 24.8981 38.0678 25.3277C38.0678 25.7574 38.3964 26.1057 38.8017 26.1057H43.0039C43.4092 26.1057 43.7378 25.7574 43.7378 25.3277C43.7378 24.8981 43.4092 24.5497 43.0039 24.5497Z" fill="white"/>
<path d="M41.4384 28.6989H29.6967C29.2914 28.6989 28.9628 29.0473 28.9628 29.4769C28.9628 29.9065 29.2914 30.2549 29.6967 30.2549H41.4384C41.8437 30.2549 42.1723 29.9065 42.1723 29.4769C42.1722 29.0473 41.8437 28.6989 41.4384 28.6989Z" fill="white"/>
<path d="M33.1987 32.8482H29.6967C29.2914 32.8482 28.9628 33.1965 28.9628 33.6262C28.9628 34.0558 29.2914 34.4042 29.6967 34.4042H33.1987C33.6039 34.4042 33.9326 34.0558 33.9326 33.6262C33.9326 33.1965 33.6039 32.8482 33.1987 32.8482Z" fill="white"/>
<path d="M43.0039 32.8482H36.0001C35.5948 32.8482 35.2662 33.1965 35.2662 33.6262C35.2662 34.0558 35.5948 34.4042 36.0001 34.4042H43.0039C43.4092 34.4042 43.7378 34.0558 43.7378 33.6262C43.7378 33.1965 43.4092 32.8482 43.0039 32.8482Z" fill="white"/>
<path d="M37.4009 36.9974H29.6967C29.2914 36.9974 28.9628 37.3458 28.9628 37.7754C28.9628 38.2051 29.2914 38.5534 29.6967 38.5534H37.4009C37.8062 38.5534 38.1348 38.2051 38.1348 37.7754C38.1348 37.3457 37.8062 36.9974 37.4009 36.9974Z" fill="white"/>
<path d="M43.0039 36.9974H40.2025C39.7972 36.9974 39.4686 37.3458 39.4686 37.7754C39.4686 38.2051 39.7972 38.5534 40.2025 38.5534H43.0039C43.4092 38.5534 43.7378 38.2051 43.7378 37.7754C43.7378 37.3457 43.4092 36.9974 43.0039 36.9974Z" fill="white"/>
<path d="M19.5205 12.9319H8.56158C8.15631 12.9319 7.8277 13.2803 7.8277 13.7099C7.8277 14.1395 8.15631 14.4879 8.56158 14.4879H19.5205C19.9258 14.4879 20.2544 14.1395 20.2544 13.7099C20.2544 13.2803 19.9258 12.9319 19.5205 12.9319Z" fill="white"/>
<path d="M12.4756 16.2512H8.56159C8.15631 16.2512 7.8277 16.5996 7.8277 17.0292C7.8277 17.4588 8.15631 17.8072 8.56159 17.8072H12.4755C12.8807 17.8072 13.2093 17.4588 13.2093 17.0292C13.2093 16.5996 12.8808 16.2512 12.4756 16.2512Z" fill="white"/>
<path d="M19.5205 16.2512H15.6066C15.2014 16.2512 14.8727 16.5996 14.8727 17.0292C14.8727 17.4588 15.2014 17.8072 15.6066 17.8072H19.5205C19.9258 17.8072 20.2544 17.4588 20.2544 17.0292C20.2544 16.5996 19.9259 16.2512 19.5205 16.2512Z" fill="white"/>
</g>
<defs>
<clipPath id="clip0">
<rect width="50" height="53.0063" fill="white" transform="translate(0 0.484192)"/>
</clipPath>
</defs>
</svg>
