<svg width="12" height="12" viewBox="0 0 12 12" fill="none" xmlns="http://www.w3.org/2000/svg">
<path d="M0.29527 6.71228L5.28685 11.7045C5.68054 12.0982 6.31905 12.0982 6.71275 11.7045C7.10644 11.3107 7.10644 10.6721 6.71275 10.2784L2.43457 5.99975L6.71275 1.72112C7.10644 1.32738 7.10644 0.688797 6.71275 0.29506C6.31905 -0.098679 5.68054 -0.098679 5.28685 0.29506L0.295269 5.28722C-0.0984236 5.67998 -0.0984235 6.31854 0.29527 6.71228ZM6.29707 7.01458L10.26 11.1918C10.6582 11.611 11.3031 11.611 11.7013 11.1918C12.0996 10.7726 12.0996 10.0925 11.7013 9.67279L8.45888 6.25508L11.7013 2.83737C12.0995 2.41814 12.0995 1.73761 11.7013 1.31838C11.3031 0.899148 10.6582 0.899148 10.26 1.31838L6.29707 5.49559C5.89887 5.9148 5.89887 6.59485 6.29707 7.01458Z" fill="white" fill-opacity="0.6"/>
</svg>
