<svg width="12" height="12" viewBox="0 0 12 12" fill="none" xmlns="http://www.w3.org/2000/svg">
<path d="M11.7047 5.28724L6.71315 0.29506C6.31946 -0.0986788 5.68095 -0.0986788 5.28725 0.29506C4.89356 0.688798 4.89356 1.32738 5.28725 1.72112L9.56543 5.99977L5.28725 10.2784C4.89356 10.6721 4.89356 11.3107 5.28725 11.7045C5.68095 12.0982 6.31946 12.0982 6.71315 11.7045L11.7047 6.7123C12.0984 6.31954 12.0984 5.68097 11.7047 5.28724ZM5.70293 4.98494L1.74004 0.807729C1.34183 0.388518 0.696855 0.388518 0.298652 0.807729C-0.0995506 1.22694 -0.0995506 1.907 0.298652 2.32672L3.54111 5.74443L0.298652 9.16214C-0.0995506 9.58138 -0.0995506 10.2619 0.298652 10.6811C0.696855 11.1004 1.34183 11.1004 1.74004 10.6811L5.70293 6.50393C6.10113 6.08471 6.10113 5.40466 5.70293 4.98494Z" fill="white" fill-opacity="0.6"/>
</svg>
