<svg width="1920" height="75" viewBox="0 0 1920 75" fill="none" xmlns="http://www.w3.org/2000/svg">
<path fill-rule="evenodd" clip-rule="evenodd" d="M-28.7499 0L-7.62945 2.87048C15.1164 5.74702 57.3573 11.488 101.208 21.4224C145.059 31.3568 197.38 12.0107 241.241 19.1535C285.103 26.2963 331.822 33.4498 375.704 35.0095C419.586 36.5691 441.437 17.1093 485.335 14.4815C529.232 11.8538 577.355 52.5121 621.274 44.3011C665.192 36.0902 707.485 27.8732 751.398 21.058C795.312 14.2429 837.594 8.81749 881.455 15.9603C925.316 23.1031 967.505 42.802 1011.36 52.7365C1055.21 62.6709 1097.47 62.8286 1141.38 56.0135C1185.29 49.1984 1227.61 35.3982 1271.53 25.7914C1315.46 16.1847 1357.74 10.7593 1401.64 8.13153C1445.53 5.50378 1487.79 5.66155 1531.65 14.2002C1575.51 22.7388 1617.71 39.6461 1661.59 39.8099C1705.48 39.9738 1747.8 23.382 1791.71 19.3585C1835.61 15.3349 1877.84 23.8674 1900.58 28.1398L1921.7 32.4061L1921.54 74.2799L1900.41 74.2011C1877.65 74.1161 1835.39 73.9583 1791.5 73.7945C1747.62 73.6307 1705.35 73.4729 1661.47 73.309C1617.58 73.1452 1575.32 72.9874 1531.43 72.8236C1487.54 72.6598 1445.28 72.502 1401.4 72.3382C1357.51 72.1743 1315.25 72.0165 1271.36 71.8527C1227.47 71.6889 1185.21 71.5311 1141.32 71.3673C1097.44 71.2034 1055.18 71.0456 1011.29 70.8818C967.401 70.718 925.139 70.5602 881.252 70.3964C837.365 70.2325 795.103 70.0747 751.216 69.9109C707.329 69.7471 665.067 69.5893 621.18 69.4255C577.293 69.2616 535.031 69.1038 491.144 68.94C447.257 68.7762 404.995 68.6184 361.108 68.4546C317.221 68.2907 274.959 68.1329 231.072 67.9691C187.185 67.8053 144.923 67.6475 101.036 67.4837C57.1488 67.3198 14.8872 67.1621 -7.86915 67.0771L-29 66.9982L-28.7499 0Z" fill="#2D3035"/>
</svg>
