<svg width="1918" height="67" viewBox="0 0 1918 67" fill="none" xmlns="http://www.w3.org/2000/svg">
<path fill-rule="evenodd" clip-rule="evenodd" d="M1946.01 66.7808L1924.93 64.0003C1902.23 61.2199 1860.06 55.6589 1816.28 45.9243C1772.49 36.1896 1720.37 55.6723 1676.58 48.7202C1632.79 41.7681 1586.16 34.8162 1542.37 33.4292C1498.59 32.0421 1476.86 51.5218 1433.08 54.3086C1389.29 57.0953 1341.12 16.7533 1297.34 25.1051C1253.56 33.4568 1211.39 41.8085 1167.61 48.769C1123.82 55.7295 1081.66 61.2985 1037.88 54.3464C994.09 47.3943 951.924 27.9207 908.138 18.1861C864.352 8.45144 822.189 8.45547 778.404 15.416C734.62 22.3765 692.458 36.2931 648.673 46.0362C604.889 55.7792 562.726 61.3483 518.941 64.135C475.156 66.9217 432.993 66.9258 389.207 58.5824C345.421 50.239 303.256 33.5479 259.471 33.5521C215.686 33.5563 173.524 50.2555 129.739 54.4335C85.9542 58.6114 43.7898 50.2679 21.086 46.0963L0.00394771 41.9245L-5.22097e-05 0.1867L21.0816 0.18468C43.785 0.182504 85.9486 0.178463 129.734 0.174267C173.519 0.170071 215.682 0.16603 259.468 0.161834C303.253 0.157638 345.416 0.153597 389.201 0.149401C432.986 0.145205 475.15 0.141164 518.935 0.136968C562.72 0.132772 604.884 0.128732 648.669 0.124535C692.454 0.120339 734.618 0.116299 778.403 0.112102C822.188 0.107906 864.351 0.103866 908.136 0.0996695C951.922 0.0954734 994.085 0.0914327 1037.87 0.0872366C1081.66 0.0830405 1123.82 0.0789998 1167.6 0.0748037C1211.39 0.0706075 1253.55 0.0665668 1297.34 0.0623707C1341.12 0.0581746 1383.29 0.0541339 1427.07 0.0499378C1470.86 0.0457416 1513.02 0.0417009 1556.81 0.0375048C1600.59 0.0333087 1642.75 0.029268 1686.54 0.0250719C1730.32 0.0208758 1772.49 0.0168351 1816.27 0.0126389C1860.06 0.00844282 1902.22 0.00440211 1924.93 0.00222635L1946.01 0.000205994L1946.01 66.7808Z" fill="#2D3035"/>
</svg>
